<?xml version="1.0" encoding="UTF-8"?>
<svg id="Tesla_Cybertruck" data-name="Tesla Cybertruck" xmlns="http://www.w3.org/2000/svg" viewBox="0 0 1818.43 587.33">
  <path d="M487.69,446.42l779.98-12.42c2.39-.04,4.36,1.87,4.39,4.26,.04,2.39-1.87,4.36-4.26,4.39,0,0-780.03,9.58-780.04,9.58-1.61,.02-2.92-1.27-2.94-2.87-.02-1.61,1.26-2.92,2.86-2.94h0Z"/>
  <path d="M1767.66,349.13c.03,2.39-1.91,4.35-4.31,4.34-24.2,.26-48.67,2.82-72.8,5.74-8.07,1-16.17,2.07-24.19,3.26-1.58,.26-3.1-.42-3.98-1.63-24.51-34.14-61.58-82.47-87.09-116.68-1.4-1.49-3.44-2.06-5.44-1.87-37.19,.91-99.13,2.43-136.89,3.35-16.63,.42-47.32,1.14-63.69,1.57-1.71,.12-3.36,1.01-4.37,2.4-21.03,29.96-63.17,89.94-84.14,119.94l-5.24,7.48-2.58,3.68c-1.42,1.99-.88,4.19-.98,6.41-.1,9.84,.15,40.03,.09,50.21-.07,5.55-8.42,5.9-8.64,0-.1-10.39,.16-40.42,.09-50.21,.07-1.62-.1-3.57,.16-5.15,.3-2.14,1.11-4.21,2.33-6l2.67-3.78c1.83-2.47,44.35-62.9,47.38-67.11l42.06-59.7c1.19-1.73,2.74-3.21,4.55-4.25,2.59-1.57,5.55-1.99,8.52-1.94,1.32,0,5.44-.15,6.84-.16,55.72-1.27,126.81-2.89,182.53-4.17l9.13-.2,.57-.02h.68c3.69,.01,7.33,1.58,9.87,4.25,28.51,37.54,57.86,77.62,86.75,114.94,7.34-1.09,14.63-2.06,21.97-2.99,24.54-3.02,48.94-5.64,73.81-5.97,2.37-.02,4.32,1.88,4.34,4.26Z"/>
  <path d="M1633.73,447.79c-1.47,0-2.84-.94-3.33-2.42-.6-1.84,.4-3.81,2.24-4.41l152.03-49.61c1.83-.6,3.81,.4,4.41,2.24,.6,1.84-.4,3.81-2.24,4.41l-152.03,49.61c-.36,.12-.73,.17-1.09,.17Z"/>
  <path d="M15.97,271.07l90.26-14.54c3.63-.51,4.63,4.8,1,5.6,0,0-89.74,17.46-89.74,17.46-5.71,.93-7.24-7.39-1.51-8.52h0Z"/>
  <path d="M19.79,354.83c6.1,.11,80.46,1.51,84.32,1.56,.53-.05,1.01-.33,1.32-.8,19.69-30.48,44.14-68.3,63.85-98.8,.93-1.42,1.65-2.64,2.74-4.16,1.32-1.7,3.09-3.06,5.09-3.85,2.99-1.28,7.32-.83,10.46-1.04,58.83-1.53,140.38-3.89,198.96-5.36,3.71,.14,7.29,2.14,9.36,5.23,0,0,10.29,15.83,10.29,15.83l82,126.29c.88,1.36,.5,3.17-.86,4.05s-3.17,.5-4.05-.86l-82.24-126.13-10.25-15.71c-1.07-1.59-2.97-2.57-4.89-2.51-60.09,1.72-142.52,4.14-202.83,5.88-5.14-.21-5.8,2.24-8.22,5.92-19.65,30.54-44.03,68.4-63.66,98.92-1.64,2.65-4.88,4.2-7.99,3.94,0,0-1.18-.02-1.18-.02l-2.35-.04-4.7-.08-75.28-1.26c-4.41-.18-4.73-6.85,.12-7h0Z"/>
  <path d="M30.73,400l103.97,.06c4.24,.11,4.37,6.32,.06,6.54,0,0-103.95,2.06-103.95,2.06-5.75-.06-5.88-8.46-.08-8.65h0Z"/>
  <path d="M104.06,359l-1.4-130.18c-.02-2.25,1.78-4.09,4.03-4.12,2.25-.02,4.09,1.78,4.12,4.03,0,.02-1.41,130.23-1.4,130.27-.1,3.43-5.21,3.53-5.34,0h0Z"/>
  <path d="M1180.57,439.87c-.52,5.17-8.11,5.18-8.15-.49,.01,0,16.4-263.47,16.65-267.23,.03,.15,.03,.14,0-.04v.04c-.62-3.29-15.59-86.07-18.35-101.68-31.88-4.14-63.81-8.12-95.74-12.02-98.3-11.77-196.73-23.49-295.48-30.63-93.68,28.71-201.88,64.43-299.04,97.37-99.73,33.72-199.31,67.91-298.73,102.49-1.58,.55-3.3-.28-3.85-1.85-.55-1.58,.28-3.3,1.85-3.85C379.05,153.3,578.22,82.05,779.96,20.84c131.88,9.83,263.07,26.44,394.22,43.02,1.55,.2,2.73,1.39,2.99,2.85l19.17,104.97c.66,.88-16.12,267.25-15.77,268.19Z"/>
  <path d="M1189.07,172.15v-.04c.03,.18,.03,.19,0,.04Z"/>
  <path d="M106.54,225.32c567.82-29.75,1135.51-62.97,1703.79-82.96,2.35-.07,4.3,1.78,4.37,4.12,.07,2.36-1.8,4.32-4.16,4.37-568.18,19.49-1135.87,52.21-1703.62,81.45-1.93,.11-3.58-1.37-3.68-3.3-.1-1.93,1.37-3.58,3.3-3.68h0Z"/>
  <polygon points="295.57 181.94 1186.27 134.09 1186.62 141.08 295.89 187.93 295.57 181.94 295.57 181.94"/>
  <path d="M848.99,156.05l-7.56,35.1c.29-3.06-11.88,254.31-11.79,253.59,0,0-7.9-.38-7.9-.38,.08-.59,12.58-254.19,12.74-254.72,0,0,7.67-35.08,7.67-35.08l6.84,1.48h0Z"/>
  <path d="M491.2,174.97l-4.78,34.26c.08-2.75,4.09,273.7,4.13,273.05,0,0-5.63,.1-5.63,.1,.03-.52-5.37-273.59-5.26-274.07,0,0,4.61-34.29,4.61-34.29l6.94,.95h0Z"/>
  <rect x="826.7" y="90.29" width="119.69" height="7" transform="translate(716.54 968.93) rotate(-85.05)"/>
  <rect x="780.62" y="89.91" width="127.83" height="7" transform="translate(584.64 902.37) rotate(-78.5)"/>
  <rect x="512.78" y="129.54" width="78.91" height="7" transform="translate(298.49 641.25) rotate(-77.01)"/>
  <rect x="465.08" y="140.09" width="64.8" height="7" transform="translate(210.9 574.84) rotate(-72.5)"/>
  <polygon points="1180.67 47.91 1177.26 68.03 1170.2 66.62 1174.79 46.74 1180.67 47.91 1180.67 47.91"/>
  <polygon points="273.56 192.74 265.5 173.93 272.02 171.33 279.13 190.52 273.56 192.74 273.56 192.74"/>
  <g>
    <path d="M291.73,587.33c-79.4,0-144-64.6-144-144s64.6-144,144-144,144,64.6,144,144-64.6,144-144,144Zm0-280c-74.99,0-136,61.01-136,136s61.01,136,136,136,136-61.01,136-136-61.01-136-136-136Z"/>
    <path d="M283.33,483.62c-.79,0-1.56-.26-2.18-.76l-25.6-20.42c-.83-.66-1.32-1.67-1.32-2.74v-32.75c0-1.07,.48-2.07,1.32-2.74l25.6-20.42c.83-.66,1.92-.91,2.96-.68l31.93,7.29c1.04,.24,1.91,.93,2.37,1.89l14.21,29.5c.46,.96,.46,2.08,0,3.04l-14.21,29.5c-.46,.96-1.34,1.66-2.37,1.89l-31.93,7.29c-.26,.06-.52,.09-.78,.09Zm-22.1-25.6l22.97,18.32,28.64-6.54,12.75-26.47-12.75-26.47-28.64-6.54-22.97,18.32v29.38Z"/>
    <path d="M287.31,466.19c-.79,0-1.56-.26-2.18-.76l-13.47-10.75c-.83-.66-1.32-1.67-1.32-2.74v-17.23c0-1.07,.48-2.07,1.32-2.74l13.47-10.75c.83-.66,1.92-.91,2.96-.68l16.8,3.83c1.04,.24,1.91,.93,2.37,1.89l7.48,15.53c.46,.96,.46,2.08,0,3.04l-7.48,15.53c-.46,.96-1.34,1.66-2.37,1.89l-16.8,3.83c-.26,.06-.52,.09-.78,.09Zm-9.97-15.93l10.84,8.64,13.51-3.08,6.01-12.49-6.01-12.49-13.51-3.08-10.84,8.64v13.86Z"/>
    <path d="M240.17,361.45v-3.02s-.67-2.9-.67-2.9l61.19-13.97,1.34,5.85-61.19,13.97c-.22,.05-.44,.08-.67,.08Z"/>
    <path d="M300.69,545.1l-61.19-13.97,.66-2.9v-3.02c.22,0,.45,.03,.67,.08l61.19,13.97-1.34,5.85Z"/>
    <rect x="203.34" y="452.83" width="7" height="62.76" transform="translate(-189.59 137.68) rotate(-25.71)"/>
    <rect x="319.11" y="513.5" width="62.75" height="7" transform="translate(-245.88 331.31) rotate(-38.57)"/>
    <rect x="346.98" y="338.28" width="7" height="62.75" transform="translate(-157.05 413.22) rotate(-51.43)"/>
    <rect x="175.45" y="398.94" width="62.76" height="7" transform="translate(-245.49 414.18) rotate(-64.29)"/>
    <path d="M257.97,457.61l-53.98,4.21c-.36,.03-.7,0-1.04-.08l-22-5c-1.62-.37-2.72-1.81-2.72-3.41v-20c0-1.67,1.17-3.06,2.72-3.41l22-5c.35-.08,.71-.11,1.04-.08l53.97,4.4-.46,6.16-53.5-3.54,.51-.12-1.04,.08,.53,.04-18.77,4.26v14.42l18.77,4.26-.53,.04,1.04,.08-.51-.12,53.49-3.73,.48,6.54Z"/>
    <polygon points="204.51 454.92 203.47 454.84 204 454.8 204.51 454.92"/>
    <polygon points="204.51 431.74 204 431.86 203.47 431.82 204.51 431.74"/>
    <path d="M281.85,478.63l-30.37,44.83c-.2,.29-.43,.55-.7,.76l-17.63,14.08c-1.3,1.04-3.12,1-4.37,0l-15.63-12.46c-1.3-1.04-1.67-2.82-.97-4.26l9.8-20.32c.15-.32,.36-.61,.59-.86l37.08-39.45,4.54,4.2-36.13,39.63,.23-.48-.58,.86,.35-.38-8.36,17.32,11.26,8.99,15.04-12.01-.3,.43,.71-.76-.41,.33,30.43-44.15,5.42,3.7Z"/>
    <polygon points="227.71 505.16 228.29 504.3 228.06 504.78 227.71 505.16"/>
    <polygon points="246.41 518.75 245.7 519.51 246 519.08 246.41 518.75"/>
    <path d="M329.46,548.34c0,1.67-1.16,3.06-2.72,3.42l-19.5,4.45c-1.62,.37-3.24-.46-3.93-1.9l-9.77-20.33c-.16-.32-.26-.66-.31-.99l-7.72-53.6,6.11-.93,8.44,52.93-.21-.44,.3,.99-.09-.55,8.35,17.37,14.05-3.21-.02-19.23,.15,.49-.15-1.02v.53l-15.54-51.33,6.27-1.93,16.12,51.7c.1,.34,.15,.68,.15,1.02l.02,22.56Z"/>
    <polygon points="300.06 531.39 300.15 531.94 299.85 530.95 300.06 531.39"/>
    <polygon points="322.59 526.81 322.44 526.32 322.44 525.79 322.59 526.81"/>
    <path d="M398.33,483.56l-8.67,18.02c-.73,1.5-2.38,2.25-3.94,1.89l-21.99-5.04c-.34-.07-.68-.21-.97-.38l-46.72-27.37,3.09-5.36,46.66,26.4-.5-.11,.97,.38-.47-.27,18.77,4.31,6.25-12.99-15.04-11.98,.47,.19-.89-.52,.42,.33-49.83-19.85,2.4-6.1,50.47,19.62c.33,.13,.63,.31,.89,.52l17.66,14.05c1.3,1.04,1.67,2.82,.97,4.26Z"/>
    <polygon points="365.79 491.72 366.26 491.99 365.29 491.61 365.79 491.72"/>
    <polygon points="376.24 471.25 375.77 471.06 375.35 470.73 376.24 471.25"/>
    <path d="M397.35,407.34l-17.65,14.05c-.27,.22-.59,.4-.9,.52l-50.53,19.46-2.26-5.75,49.73-20.02-.4,.32,.9-.52-.5,.2,15.07-12-6.26-12.98-18.76,4.3,.46-.26-.97,.38,.51-.12-46.57,26.58-3.27-5.69,46.8-27.22c.31-.17,.64-.3,.97-.38l21.99-5.04c1.62-.37,3.24,.45,3.94,1.89l8.67,18.02c.73,1.5,.28,3.27-.97,4.26Z"/>
    <polygon points="365.28 395.04 366.25 394.66 365.79 394.92 365.28 395.04"/>
    <polygon points="376.24 415.4 375.34 415.92 375.74 415.6 376.24 415.4"/>
    <path d="M329.44,338.31v22.56c-.01,.35-.07,.71-.17,1.03l-16.29,51.64-5.91-1.82,15.36-51.38v.53l.15-1.03-.15,.5v-19.24s-14.04-3.21-14.04-3.21l-8.33,17.34,.08-.51-.31,.99,.23-.48-8.26,52.99-6.49-.98,7.91-53.57c.05-.35,.15-.68,.3-.99l9.77-20.33c.72-1.51,2.37-2.26,3.93-1.9l19.5,4.45c1.63,.37,2.73,1.81,2.72,3.41Z"/>
    <polygon points="299.83 355.71 300.14 354.72 300.06 355.23 299.83 355.71"/>
    <polygon points="322.58 359.84 322.43 360.87 322.43 360.34 322.58 359.84"/>
    <path d="M230.95,355.58l-11.26,8.99,8.37,17.34-.37-.4,.59,.86-.22-.46,36.27,39.48-4.82,4.46-36.95-39.58c-.24-.26-.44-.55-.59-.86l-9.81-20.31c-.72-1.5-.28-3.26,.97-4.26l15.64-12.47c1.3-1.04,3.12-1,4.37,0l17.62,14.08c.28,.21,.52,.48,.71,.76l30.22,44.93-5.11,3.49-30.58-44.02,.39,.31-.7-.76,.31,.45-15.05-12.03Z"/>
    <polygon points="228.06 381.91 228.28 382.37 227.69 381.51 228.06 381.91"/>
    <polygon points="246.39 367.92 246 367.61 245.69 367.16 246.39 367.92"/>
    <rect x="382.96" y="411.95" width="6" height="62.76"/>
    <path d="M322.19,581.63c-.47,0-.95-.11-1.4-.35l-54.75-28.84-61.84,2.23c-1.48,.04-2.78-.98-3.06-2.44l-11.58-60.79-40.3-46.96c-.96-1.12-.96-2.78,0-3.91l40.3-46.96,11.58-60.79c.28-1.46,1.58-2.48,3.06-2.44l61.84,2.23,54.75-28.84c1.31-.69,2.93-.32,3.81,.87l36.81,49.74,56.68,24.82c1.36,.59,2.08,2.09,1.7,3.52l-15.94,59.79,15.94,59.79c.38,1.43-.34,2.93-1.7,3.52l-56.68,24.82-36.81,49.74c-.58,.79-1.49,1.22-2.41,1.22Zm-55.45-35.21c.49,0,.97,.12,1.4,.35l53.18,28.01,35.75-48.31c.31-.42,.73-.75,1.21-.96l55.06-24.11-15.48-58.08c-.13-.51-.13-1.04,0-1.54l15.48-58.08-55.06-24.11c-.48-.21-.9-.54-1.21-.96l-35.75-48.31-53.18,28.01c-.46,.24-.98,.36-1.51,.34l-60.06-2.17-11.25,59.04c-.1,.51-.33,1-.67,1.39l-39.15,45.61,39.15,45.61c.34,.4,.57,.88,.67,1.39l11.25,59.04,60.06-2.17s.07,0,.11,0Z"/>
  </g>
  <g>
    <path d="M1468.73,587.33c-79.4,0-144-64.6-144-144s64.6-144,144-144,144,64.6,144,144-64.6,144-144,144Zm0-280c-74.99,0-136,61.01-136,136s61.01,136,136,136,136-61.01,136-136-61.01-136-136-136Z"/>
    <path d="M1460.33,483.62c-.79,0-1.56-.26-2.18-.76l-25.6-20.42c-.83-.66-1.32-1.67-1.32-2.74v-32.75c0-1.07,.49-2.07,1.32-2.74l25.6-20.42c.83-.66,1.92-.91,2.96-.68l31.93,7.29c1.04,.24,1.91,.93,2.37,1.89l14.21,29.5c.46,.96,.46,2.08,0,3.04l-14.21,29.5c-.46,.96-1.34,1.66-2.37,1.89l-31.93,7.29c-.26,.06-.52,.09-.78,.09Zm-22.1-25.6l22.97,18.32,28.64-6.54,12.75-26.47-12.75-26.47-28.64-6.54-22.97,18.32v29.38Z"/>
    <path d="M1464.31,466.19c-.79,0-1.56-.26-2.18-.76l-13.47-10.75c-.83-.66-1.32-1.67-1.32-2.74v-17.23c0-1.07,.49-2.07,1.32-2.74l13.47-10.75c.83-.66,1.92-.91,2.96-.68l16.8,3.83c1.04,.24,1.91,.93,2.37,1.89l7.48,15.53c.46,.96,.46,2.08,0,3.04l-7.48,15.53c-.46,.96-1.34,1.66-2.37,1.89l-16.8,3.83c-.26,.06-.52,.09-.78,.09Zm-9.97-15.93l10.84,8.64,13.51-3.08,6.01-12.49-6.01-12.49-13.51-3.08-10.84,8.64v13.86Z"/>
    <path d="M1417.17,361.45v-3.02s-.67-2.9-.67-2.9l61.19-13.97,1.34,5.85-61.19,13.97c-.22,.05-.44,.08-.67,.08Z"/>
    <path d="M1477.69,545.1l-61.19-13.97,.66-2.9v-3.02c.22,0,.45,.03,.67,.08l61.19,13.97-1.34,5.85Z"/>
    <rect x="1380.34" y="452.83" width="7" height="62.76" transform="translate(-73.06 648.3) rotate(-25.71)"/>
    <rect x="1496.11" y="513.5" width="62.75" height="7" transform="translate(10.84 1064.99) rotate(-38.56)"/>
    <rect x="1523.98" y="338.28" width="7" height="62.75" transform="translate(286.16 1333.48) rotate(-51.43)"/>
    <rect x="1352.45" y="398.94" width="62.76" height="7" transform="translate(420.83 1474.62) rotate(-64.29)"/>
    <path d="M1434.97,457.61l-53.98,4.21c-.36,.03-.7,0-1.04-.08l-22-5c-1.62-.37-2.72-1.81-2.72-3.41v-20c0-1.67,1.17-3.06,2.72-3.41l22-5c.35-.08,.71-.11,1.04-.08l53.97,4.4-.46,6.16-53.5-3.54,.51-.12-1.04,.08,.53,.04-18.77,4.26v14.42l18.77,4.26-.53,.04,1.04,.08-.51-.12,53.49-3.73,.48,6.54Z"/>
    <polygon points="1381 454.8 1381.51 454.92 1380.47 454.84 1381 454.8"/>
    <polygon points="1381 431.86 1380.47 431.82 1381.51 431.74 1381 431.86"/>
    <path d="M1458.85,478.63l-30.37,44.83c-.2,.29-.43,.55-.7,.76l-17.63,14.08c-1.3,1.04-3.12,1-4.37,0l-15.63-12.46c-1.3-1.04-1.67-2.82-.97-4.26l9.8-20.32c.15-.32,.36-.61,.59-.86l37.08-39.45,4.54,4.2-36.13,39.63,.23-.48-.58,.86,.35-.38-8.36,17.32,11.26,8.99,15.04-12.01-.3,.43,.71-.76-.41,.33,30.43-44.15,5.42,3.7Z"/>
    <polygon points="1404.71 505.16 1405.29 504.3 1405.06 504.78 1404.71 505.16"/>
    <polygon points="1423.41 518.75 1422.7 519.51 1423 519.08 1423.41 518.75"/>
    <path d="M1506.46,548.34c0,1.67-1.16,3.06-2.72,3.42l-19.5,4.45c-1.62,.37-3.24-.46-3.93-1.9l-9.77-20.33c-.16-.32-.26-.66-.31-.99l-7.72-53.6,6.11-.93,8.44,52.93-.21-.44,.3,.99-.09-.55,8.35,17.37,14.05-3.21-.02-19.23,.15,.49-.15-1.02v.53l-15.54-51.33,6.27-1.93,16.12,51.7c.1,.34,.15,.68,.15,1.02l.02,22.56Z"/>
    <polygon points="1477.06 531.39 1477.15 531.94 1476.85 530.95 1477.06 531.39"/>
    <polygon points="1499.59 526.81 1499.44 526.32 1499.44 525.79 1499.59 526.81"/>
    <path d="M1575.33,483.56l-8.67,18.02c-.73,1.5-2.38,2.25-3.94,1.89l-21.99-5.04c-.34-.07-.68-.21-.97-.38l-46.72-27.37,3.09-5.36,46.66,26.4-.5-.11,.97,.38-.47-.27,18.77,4.31,6.25-12.99-15.04-11.98,.47,.19-.89-.52,.42,.33-49.83-19.85,2.4-6.1,50.47,19.62c.33,.13,.63,.31,.89,.52l17.66,14.05c1.3,1.04,1.67,2.82,.97,4.26Z"/>
    <polygon points="1542.79 491.72 1543.26 491.99 1542.29 491.61 1542.79 491.72"/>
    <polygon points="1553.24 471.25 1552.77 471.06 1552.35 470.73 1553.24 471.25"/>
    <path d="M1574.35,407.34l-17.65,14.05c-.27,.22-.59,.4-.9,.52l-50.53,19.46-2.26-5.75,49.73-20.02-.4,.32,.9-.52-.5,.2,15.07-12-6.26-12.98-18.76,4.3,.46-.26-.97,.38,.51-.12-46.57,26.58-3.27-5.69,46.8-27.22c.31-.17,.64-.3,.97-.38l21.99-5.04c1.62-.37,3.24,.45,3.94,1.89l8.67,18.02c.73,1.5,.28,3.27-.97,4.26Z"/>
    <polygon points="1542.28 395.04 1543.25 394.66 1542.79 394.92 1542.28 395.04"/>
    <polygon points="1553.24 415.4 1552.34 415.92 1552.74 415.6 1553.24 415.4"/>
    <path d="M1506.44,338.31v22.56c-.01,.35-.07,.71-.17,1.03l-16.29,51.64-5.91-1.82,15.36-51.38v.53l.15-1.03-.15,.5v-19.24s-14.04-3.21-14.04-3.21l-8.33,17.34,.08-.51-.31,.99,.23-.48-8.26,52.99-6.49-.98,7.91-53.57c.05-.35,.15-.68,.3-.99l9.77-20.33c.72-1.51,2.37-2.26,3.93-1.9l19.5,4.45c1.63,.37,2.73,1.81,2.72,3.41Z"/>
    <polygon points="1476.83 355.71 1477.14 354.72 1477.06 355.23 1476.83 355.71"/>
    <polygon points="1499.58 359.84 1499.43 360.87 1499.43 360.34 1499.58 359.84"/>
    <path d="M1407.95,355.58l-11.26,8.99,8.37,17.34-.37-.4,.59,.86-.22-.46,36.27,39.48-4.82,4.46-36.95-39.58c-.24-.26-.44-.55-.59-.86l-9.81-20.31c-.72-1.5-.28-3.26,.97-4.26l15.64-12.47c1.3-1.04,3.12-1,4.37,0l17.62,14.08c.28,.21,.52,.48,.71,.76l30.22,44.93-5.11,3.49-30.58-44.02,.39,.31-.7-.76,.31,.45-15.05-12.03Z"/>
    <polygon points="1405.06 381.91 1405.28 382.37 1404.69 381.51 1405.06 381.91"/>
    <polygon points="1423.39 367.92 1423 367.61 1422.69 367.16 1423.39 367.92"/>
    <rect x="1559.96" y="411.95" width="6" height="62.76"/>
    <path d="M1499.19,581.63c-.47,0-.95-.11-1.4-.35l-54.75-28.84-61.84,2.23c-1.52,.04-2.78-.98-3.06-2.44l-11.58-60.79-40.3-46.96c-.96-1.12-.96-2.78,0-3.91l40.3-46.96,11.58-60.79c.28-1.46,1.53-2.48,3.06-2.44l61.84,2.23,54.75-28.84c1.31-.69,2.93-.32,3.81,.87l36.81,49.74,56.68,24.82c1.36,.59,2.08,2.09,1.7,3.52l-15.94,59.79,15.94,59.79c.38,1.43-.34,2.93-1.7,3.52l-56.68,24.82-36.81,49.74c-.58,.79-1.49,1.22-2.41,1.22Zm-55.45-35.21c.49,0,.97,.12,1.4,.35l53.18,28.01,35.75-48.31c.31-.42,.73-.75,1.21-.96l55.06-24.11-15.48-58.08c-.14-.51-.14-1.04,0-1.54l15.48-58.08-55.06-24.11c-.48-.21-.9-.54-1.21-.96l-35.75-48.31-53.18,28.01c-.46,.24-.99,.36-1.51,.34l-60.06-2.17-11.25,59.04c-.1,.51-.33,1-.67,1.39l-39.15,45.61,39.15,45.61c.34,.4,.57,.88,.67,1.39l11.25,59.04,60.06-2.17s.07,0,.11,0Z"/>
  </g>
  <path d="M472.73,486.65c-.31,0-.61-.03-.91-.1l-9.13-1.96c-4.79-1.02-8.29-5.16-8.51-10.05l-3.67-80.82c-.03-.65-.24-1.27-.6-1.81l-76.33-112.59c-.68-1-1.81-1.59-3.02-1.54l-173.52,5.72c-1.17,.04-2.24,.65-2.86,1.64l-55.52,88.46c-.37,.59-.56,1.27-.54,1.96l1.7,61.14c.09,3.38-1.36,6.54-3.99,8.67-2.62,2.13-6.01,2.89-9.29,2.11-31.42-7.55-67.78-13.68-78.18-15.37-3.42-.56-6.43-2.73-8.03-5.81l-9.06-17.37c-.1-.18-.28-.3-.49-.3h-3.69c-4,0-7.43-2.72-8.33-6.62l-4.41-19.1c-.5-2.18,0-4.43,1.4-6.18,1.39-1.75,3.47-2.75,5.71-2.75h4.93c-2.52-3.46-5.96-8-10-12.94-.44-.53-.74-1.16-.88-1.83-2.57-11.99-12.4-61.73-15.35-76.69-.83-4.2,1.79-8.25,5.95-9.23,1.32-.31,3.03-.71,5.17-1.19-.75-2.48-1.48-4.8-2.05-6.57-1.33-4.14,.95-8.62,5.08-9.98,53.67-17.68,207.74-70.94,287.98-99.32C381.29,128.31,685.84,27.64,784.57,.16c.48-.13,.98-.18,1.47-.15,79.88,5.82,217.22,22.19,327.58,35.35,22.75,2.71,44.51,5.31,64.62,7.67,112.6,13.25,579.98,90.55,632.9,99.32,4.71,.78,7.93,5.25,7.18,9.96l-31.32,196.7c-.32,2.03-2.03,3.55-4.08,3.64l-18.86,.82v10.53h24.64c2.53,0,4.92,1.23,6.38,3.3,1.46,2.06,1.83,4.72,.99,7.1-5.29,15.02-9.04,34.24-10.41,41.8-.71,3.92-3.48,7.2-7.23,8.55l-131.93,47.69c-3.91,1.41-8.27,.83-11.67-1.55-3.4-2.39-5.43-6.29-5.43-10.44v-41.25c0-1.3-.49-2.57-1.39-3.56-4.33-4.8-11.61-14.39-11.61-24.62v-22.34c0-1.23-.41-2.44-1.15-3.42l-64.45-85.21c-1.1-1.46-2.87-2.32-4.69-2.24l-157.32,4.7c-1.75,.05-3.41,.93-4.43,2.36l-75.25,104.88c-.7,.97-1.06,2.11-1.06,3.3v74.92c0,6.98-5.68,12.71-12.67,12.76l-822.63,5.94h-.03Zm-102.05-217.51c4.04,0,7.78,1.97,10.06,5.34l76.33,112.59c1.26,1.86,1.98,4.03,2.08,6.27l3.67,80.82c.04,.97,.73,1.78,1.68,1.98l8.67,1.86,822.16-5.94c2.25-.02,4.08-1.86,4.08-4.11v-74.92c0-3.01,.93-5.9,2.68-8.34l75.25-104.88c2.58-3.6,6.77-5.83,11.2-5.96l157.32-4.7c4.62-.13,9.05,1.98,11.84,5.67l64.45,85.21c1.87,2.47,2.9,5.54,2.9,8.64v22.34c0,7.61,6.56,15.7,9.38,18.82,2.33,2.59,3.62,5.91,3.62,9.36v41.25c0,1.36,.64,2.58,1.75,3.36,1.11,.78,2.48,.96,3.76,.5l131.93-47.69c.86-.31,1.5-1.06,1.66-1.95,1.37-7.58,5.08-26.59,10.37-42.02h-24.2c-4.37,0-7.92-3.55-7.92-7.92v-11.8c0-4.35,3.4-7.9,7.74-8.09l15.87-.69,30.76-193.21c-52.95-8.83-520.14-86.1-632.55-99.33-20.11-2.37-41.88-4.96-64.63-7.67-109.92-13.1-246.64-29.4-326.43-35.25-99.35,27.73-402.26,127.87-480.99,155.71-79.96,28.28-233.19,81.25-287.5,99.17,.9,2.84,2.13,6.78,3.22,10.57,.33,1.15,.17,2.38-.44,3.4-.61,1.02-1.61,1.75-2.78,2.01-3.86,.86-6.8,1.53-8.89,2.02,3.02,15.32,12.16,61.55,14.97,74.84,6.74,8.3,11.75,15.4,13.63,18.12,1.1,1.59,1.22,3.64,.32,5.35-.9,1.71-2.66,2.78-4.6,2.78h-9.93l4,17.35h3.6c3.44,0,6.57,1.89,8.16,4.94l9.07,17.38c.36,.69,1,1.15,1.76,1.27,10.47,1.71,47.1,7.88,78.81,15.5,.88,.21,1.52-.17,1.82-.41,.31-.25,.81-.8,.79-1.72l-1.7-61.14c-.07-2.41,.57-4.76,1.86-6.8l55.52-88.46c2.15-3.43,5.85-5.56,9.9-5.69l173.52-5.72c.14,0,.27,0,.41,0Z"/>
</svg>