<?xml version="1.0" encoding="iso-8859-1"?>
<!-- Generator: Adobe Illustrator 27.0.1, SVG Export Plug-In . SVG Version: 6.00 Build 0)  -->
<svg version="1.1" id="Tesla_Model_Y" xmlns="http://www.w3.org/2000/svg" xmlns:xlink="http://www.w3.org/1999/xlink" x="0px"
	 y="0px" viewBox="0 0 1742.6 593.825" style="enable-background:new 0 0 1742.6 593.825;" xml:space="preserve">
<g>
	<path d="M1215.246,541.708c-0.061,0-0.119,0-0.179,0l-703.933-4.818c-13.887-0.096-25.185-11.471-25.185-25.358v-51.206
		c0-39.993-15.578-77.589-43.864-105.861c-28.268-28.255-65.846-43.813-105.812-43.813c-0.027,0-0.049,0-0.076,0
		C253.709,310.691,186.6,378.497,186.6,461.799v46.197c0,6.953-2.76,13.438-7.771,18.258c-5.027,4.836-11.641,7.363-18.619,7.08
		c-59.837-2.317-85.875-14.111-96.071-20.937c-4.642-3.106-9.962-4.748-15.387-4.748h-9.478c-10.972,0-20.123-5.531-25.867-10.172
		c-2.897-2.339-3.965-6.125-2.721-9.646c1.252-3.543,4.484-5.833,8.235-5.833h15.353c3.896,0,5.452-0.736,5.758-1.172
		c1.084-1.546-1.398-8.409-3.042-12.95c-0.949-2.624-1.93-5.338-2.844-8.263c-4.989-15.965-5.282-15.965-8.872-15.965H14.396
		c-4.677,0-8.965-2.36-11.469-6.312c-2.491-3.932-2.793-8.785-0.81-12.984c3.271-6.926,5.946-14.677,7.953-23.038
		c3.946-16.44-3.916-42.414-8.954-56.434c-2.881-8.021-0.042-17.05,6.905-21.959c52.619-37.182,139.613-69.309,198.353-81.827
		c4.597-0.98,9.263-1.982,13.992-2.999c57.106-12.271,121.833-26.178,189.316-27.054c2.986-0.039,5.87-1.148,8.118-3.123
		c8.16-7.167,28.658-23.233,74.267-50.313c70.164-41.66,120.224-70.006,223.57-112.284C826.424,0,924.463,0,1019.275,0
		c100.46,0,224.947,17.535,370.003,52.118c130.612,31.139,253.405,79.277,276.694,88.611c2.422,0.971,4.955,1.68,7.528,2.107
		c9.029,1.5,32.332,5.085,53.631,5.964c3.436,0.142,6.545,1.987,8.318,4.936c1.78,2.959,1.953,6.585,0.462,9.701
		c-16.727,34.95-10.801,57.704-7.477,65.864c1.222,3,0.874,6.393-0.931,9.075c-1.799,2.675-4.8,4.273-8.028,4.273h-4.854
		c0.144,14.596,1.087,38.947,5.162,62.951c2.316,13.642,9.21,24.146,14.585,30.555c5.308,6.327,8.231,14.283,8.231,22.402v22.767
		c0,27.615-8.438,52.644-14.598,70.918c-1.844,5.468-3.436,10.189-4.561,14.239c-1.723,6.204,0.477,12.354,2.625,16.421
		c1.594,3.017,1.688,6.532,0.261,9.646c-1.442,3.146-4.202,5.392-7.573,6.162l-64.848,14.837c-6.07,1.389-12.302,2.093-18.522,2.093
		c-14.932,0.002-45.434,0.004-66.082,0.004c-13.979,0-25.353-11.376-25.353-25.358v-27.961c0-40.527-15.786-78.625-44.45-107.275
		c-28.646-28.633-66.725-44.399-107.225-44.399c-0.027,0-0.051,0-0.078,0c-83.591,0.042-151.597,68.753-151.597,153.168v52.531
		c0,6.807-2.66,13.196-7.489,17.993C1228.324,539.096,1221.986,541.708,1215.246,541.708z M336.274,302
		c42.278,0,82.023,16.457,111.927,46.346c29.92,29.907,46.399,69.675,46.399,111.979v51.206c0,9.15,7.444,16.646,16.594,16.708
		l703.933,4.818c0.039,0.001,0.079,0.001,0.118,0.001c4.44,0,8.616-1.721,11.771-4.854c3.183-3.16,4.935-7.371,4.935-11.855v-52.531
		c0-89.182,71.885-161.773,160.243-161.818c0.026,0,0.056,0,0.082,0c42.812,0,83.059,16.665,113.34,46.932
		c30.299,30.284,46.985,70.555,46.985,113.394v27.961c0,9.213,7.492,16.708,16.702,16.708c20.65,0,51.15-0.002,66.081-0.004
		c5.573,0,11.156-0.631,16.594-1.874l64.849-14.837c1.036-0.237,1.491-1.013,1.64-1.335c0.175-0.383,0.402-1.15-0.047-2
		c-4.132-7.822-5.277-15.698-3.311-22.776c1.188-4.276,2.814-9.102,4.697-14.688c5.97-17.708,14.145-41.959,14.145-68.155v-22.767
		c0-6.089-2.204-12.071-6.208-16.844c-6.063-7.229-13.845-19.112-16.485-34.666c-4.617-27.188-5.307-54.727-5.307-68.723
		c0-2.389,1.937-4.325,4.325-4.325h9.201c0.453,0,0.713-0.244,0.851-0.45c0.142-0.21,0.273-0.552,0.097-0.985
		c-3.758-9.226-10.532-34.796,7.686-72.862c0.322-0.673,0.094-1.234-0.071-1.508c-0.161-0.268-0.54-0.722-1.264-0.752
		c-21.78-0.899-45.503-4.547-54.691-6.074c-3.188-0.53-6.327-1.409-9.328-2.611c-23.191-9.294-145.461-57.228-275.482-88.227
		C1242.871,26.106,1119.06,8.65,1019.275,8.65c-93.976,0-191.149,0-300.362,44.678C608.7,98.415,556.697,129.292,496.483,165.044
		c-45.009,26.724-65.04,42.406-72.975,49.375c-3.796,3.335-8.667,5.208-13.714,5.274c-66.621,0.864-130.899,14.675-187.611,26.861
		c-4.734,1.017-9.405,2.021-14.007,3.001C150.3,261.89,64.679,293.478,13.013,329.987c-3.783,2.674-5.328,7.596-3.756,11.97
		c5.364,14.928,13.695,42.751,9.224,61.378c-2.145,8.937-5.019,17.251-8.542,24.712c-0.721,1.527-0.614,3.227,0.295,4.661
		c0.923,1.457,2.44,2.292,4.163,2.292h10.879c10.242,0,12.117,6,17.128,22.035c0.857,2.743,1.806,5.364,2.723,7.899
		c3.16,8.735,5.656,15.635,1.988,20.862c-3.052,4.351-8.789,4.854-12.838,4.854H18.922c-0.064,0.015-0.095,0.092-0.092,0.129
		c4.672,3.734,12,8.221,20.445,8.221h9.478c7.144,0,14.128,2.147,20.198,6.21c9.437,6.316,33.884,17.246,91.594,19.481
		c4.602,0.177,8.97-1.479,12.287-4.67c3.301-3.175,5.119-7.445,5.119-12.024v-46.197c0-88.069,70.987-159.756,158.244-159.8
		C336.219,302,336.248,302,336.274,302z"/>
	<polygon points="1680.897,458.753 1655.668,510.584 1650.216,508.079 1673.699,455.344 1680.897,458.753 	"/>
	<polygon points="490.216,495.985 1236.203,482.888 1236.345,491.571 490.331,502.984 490.216,495.985 	"/>
	<path d="M1548.001,468.844l113.556-6.716c2.288-0.14,3.867-0.13,5.818-0.896c3.753-1.377,5.94-4.325,7.486-8.002
		c5.865-12.049,15.86-32.951,21.726-44.896c2.55-4.755,5.508-9.609,10.833-12.168c2.673-1.247,5.594-1.511,8.476-1.422
		c0,0,7.11,0.027,7.11,0.027s14.219,0.053,14.219,0.053v7c-4.827,0.012-16.691,0.067-21.329,0.08
		c-1.868-0.029-3.754,0.01-5.431,0.801c-5.378,2.984-7.661,9.852-10.366,15.253c-1.952,4.112-13.062,27.551-15.261,32.185
		c-1.205,2.455-3.427,7.416-4.761,9.884c-2.212,3.841-5.756,6.891-9.897,8.482c-2.448,1.055-5.686,1.346-8.13,1.456
		c0,0-113.503,7.565-113.503,7.565S1548.001,468.844,1548.001,468.844L1548.001,468.844z"/>
	<path d="M1504.796,349.995c76.965-0.393,154.006-2.591,230.811-7.469c0,0,0.573,8.618,0.573,8.618
		c-19.312,1.145-38.559,2.009-57.842,2.765c-57.82,2.248-115.681,3.244-173.543,3.086
		C1504.796,356.995,1504.796,349.995,1504.796,349.995L1504.796,349.995z"/>
	<path d="M1710.274,242.65c-2.451-0.02-12.655-0.013-14.791-0.028c0,0-1.479-0.003-1.479-0.003
		c-1.665-0.128-3.395,0.462-4.427,1.821c-1.418,2.045-4.112,6.221-5.528,8.333c-1.469,2.337-3.594,4.253-6.107,5.407
		c-2.374,1.142-5.138,1.477-7.73,1.215c-20.151-0.859-40.323-5.026-58.911-12.989c-22.322-9.291-42.231-23.621-59.973-39.886
		c0,0-4.368-4.096-4.368-4.096s-1.092-1.024-1.092-1.024c-2.394-2.156-3.021-6.038-1.464-8.777c1.244-2.514,4.22-4.138,7.062-3.874
		c0,0,0.37,0.015,0.37,0.015s1.478,0.061,1.478,0.061c10.549,0.441,30.607,1.27,41.376,1.719c24.632,1.08,64.395,2.635,88.664,3.685
		c2.352,0.049,4.731,0.363,6.937,1.211c4.036,1.474,7.503,4.38,9.701,8.065c0.509,0.756,5.59,11.009,6.169,12.074
		c0,0,10.701,21.109,10.701,21.109s-6.43,3.275-6.43,3.275c-3.963-7.703-12.866-25.24-16.756-32.687
		c-2.229-3.734-6.31-5.742-10.609-5.634c-10.61-0.4-30.577-1.155-41.39-1.563c-24.577-0.888-64.462-2.463-88.693-3.349
		c0,0-1.479-0.056-1.479-0.056s-0.37-0.014-0.37-0.014s-0.185-0.007-0.185-0.007c-0.065-0.003-0.139-0.006-0.104,0.001
		c0.194,0.026,0.477-0.16,0.575-0.333c0.126-0.133,0.044-0.576-0.11-0.721c-0.038-0.019,0.051,0.052,0.048,0.052
		c0,0,1.07,0.996,1.07,0.996s4.279,3.982,4.279,3.982c32.265,29.703,69.379,48.864,113.825,50.299c0,0,1.393,0.075,1.393,0.075
		c0.279-0.002,0.558-0.007,0.833-0.053c1.747-0.219,3.296-1.347,4.175-2.858c1.067-1.634,3.829-5.843,4.863-7.424
		c2.475-4.244,7.295-6.871,12.207-6.638c0,0,1.479-0.003,1.479-0.003c2.38,0.003,12.31-0.028,14.791-0.028
		C1710.274,234,1710.274,242.65,1710.274,242.65L1710.274,242.65z"/>
	<path d="M1738.274,376.08c0,0-10.877-0.041-10.877-0.041c-0.499-0.029-1.567,0.014-2.04-0.008
		c-3.964,0.013-7.985-1.445-10.917-4.13c-3.458-3.04-5.46-7.62-5.415-12.216c0,0,0.002-0.68,0.002-0.68s0.042-10.878,0.042-10.878
		l1.563,3.257c-0.483-0.4-0.827-0.701-1.211-1.049c-8.295-7.602-14.956-16.949-19.353-27.318c-4.285-10.68-6.017-22.043-8.062-33.17
		c-2.176-12.814-3.961-25.732-5.498-38.632c-1.452-10.833-3.315-21.872-5.326-32.63c0,0-0.512-2.715-0.512-2.715
		c-0.174-0.876-0.345-1.897-0.525-2.562c-1.75-7.794-9.011-13.159-16.942-13.014c0,0-5.544-0.237-5.544-0.237
		s0.272-6.995,0.272-6.995c1.14,0.085,5.942,0.174,6.948,0.248c10.434,0.305,20.005,8.102,22.318,18.303
		c0.437,1.762,0.796,3.88,1.151,5.603c1.766,9.093,3.431,18.319,4.83,27.476c2.061,14.569,3.912,29.346,6.555,43.805
		c2.698,14.04,4.773,28.455,12.652,40.618c3.283,5.143,7.177,9.957,11.635,14.13c1.501,1.393,3.495,2.642,3.399,4.882
		c0,0,0.041,10.878,0.041,10.878s0.002,0.68,0.002,0.68c-0.101,4.233,3.66,7.946,7.894,7.764c1.472,0.023,11.273-0.063,12.917-0.049
		C1738.274,367.4,1738.274,376.08,1738.274,376.08L1738.274,376.08z"/>
	<path d="M409.725,211.048c32.701,0.507,58.789-0.837,86.944-19.377c11.074-7.02,27.415-18.353,38.565-25.804
		c38.721-25.996,78.868-49.924,120.047-71.792c18.904-10.131,43.004-22.195,62.405-31.54c0,0,2.619-1.276,2.619-1.276
		s0.655-0.319,0.655-0.319c0.467-0.233,0.555-0.247,0.843-0.504c0.517-0.489,0.606-1.48,0.112-2.054
		c-0.026-0.031-0.05-0.063-0.072-0.097l-0.206-0.229c0,0-0.452-0.491-0.452-0.491c-1.809-1.932-3.963-3.851-6.011-5.439
		c0,0,4.2-5.6,4.2-5.6c2.999,2.344,5.675,4.737,8.107,7.612c3.418,4.297,1.589,11.077-3.484,13.126
		c-0.373,0.184-2.819,1.389-3.253,1.604c-48.435,23.57-96.657,49.626-142.208,78.278c-18.971,11.885-39.481,25.709-58.034,38.452
		c-12.993,8.757-25.925,18.292-40.566,24.282c-22.074,9.494-46.648,10.013-70.196,9.81
		C409.739,219.688,409.725,211.048,409.725,211.048L409.725,211.048z"/>
	<polygon points="66.544,505.304 182.274,504.506 182.274,513.102 66.544,512.304 66.544,505.304 	"/>
	<path d="M34.274,482.002l55.308,0.28c4.274-0.056,8.47-0.611,11.334-2.383c6.472-4.155,7.176-14.746,8.576-22.014
		c6.453-41.289,16.683-82.172,32.812-120.799c1.687-3.824,7.485-1.585,5.941,2.478c-6.898,16.968-12.682,34.39-17.427,52.09
		c-5.963,22.139-10.51,44.665-13.799,67.363c-1.58,9.579-2.695,21.749-11.933,27.6c-4.559,2.85-10.183,3.592-15.344,3.718
		c0,0-55.467,0.313-55.467,0.313C28.56,490.5,28.493,482.168,34.274,482.002L34.274,482.002z"/>
	<path d="M25.274,435.001c0,0,23.761,0.236,23.761,0.236c7.494-0.156,15.471-1.526,23.003-2.742
		c15.562-2.657,31.088-5.962,46.504-9.445c0,0,1.523,6.349,1.523,6.349c-7.729,1.941-15.472,3.8-23.244,5.58
		c-11.694,2.651-23.428,5.21-35.317,7.059c-4.883,0.764-10.22,1.412-15.379,1.378c-1.956,0.024-6.934,0.075-8.936,0.099
		c0,0-11.915,0.133-11.915,0.133V435.001L25.274,435.001z"/>
	<path d="M39.086,352.27l-0.496-6.982c1.317-0.094,133.081-9.648,250.458-35.294l1.494,6.838
		C172.66,342.588,40.409,352.176,39.086,352.27z"/>
	<path d="M6.972,326.956c12.181,2.91,23.026,9.89,32.611,17.659c3.349,2.757,6.934,6.164,10.027,9.238
		c5.115,5.289,10.041,11.295,14.557,17.066c14.576,18.582,28.459,37.561,41.699,57.137c0,0-5.804,3.913-5.804,3.913
		c-16.273-23.252-33.251-46.26-51.745-67.815c-0.924-0.967-3.469-3.639-4.428-4.645c-1.026-0.979-3.643-3.47-4.636-4.413
		c-8.877-7.888-18.86-14.83-30.128-18.681c-1.112-0.358-2.58-0.791-3.611-0.99C5.515,335.425,6.972,326.956,6.972,326.956
		L6.972,326.956z"/>
	<path d="M536.043,499.089c-7.264-60.716-11.668-121.644-14.349-182.707c-1.15-22.851-0.859-45.754-1.02-68.75
		c-0.029-7.664-0.063-15.488,1.161-23.514c1.203-8.081,4.232-16.246,9.13-22.88c4.662-6.576,11.008-11.824,17.109-16.739
		c38.992-31.071,81.512-57.353,125.005-81.562c20.051-10.995,40.58-21.774,61.25-31.598c24.517-11.255,50.176-19.818,76.324-26.316
		c67.145-16.612,136.75-19.026,205.542-18.256c168.048,2.813,336.381,35.863,491.425,101.228
		c42.209,18.195,83.345,39.036,121.507,64.861c0,0-3.93,5.793-3.93,5.793c-37.725-25.394-78.661-46.004-120.471-63.893
		c-154.248-64.448-321.625-97.27-488.623-99.908c-68.216-0.693-137.042,1.714-203.465,18.201
		c-25.637,6.396-50.811,14.817-74.815,25.863c-16.984,8.097-34.134,16.97-50.67,25.925c-33.363,18.046-66.049,37.655-97.253,59.207
		c-12.467,8.638-24.688,17.63-36.461,27.093c-5.741,4.649-11.307,9.184-15.531,15.1c-8.812,11.943-8.78,26.864-8.729,41.345
		c0.048,7.58,0.166,15.267,0.022,22.972c0.576,75.963,6.106,152.125,13.792,227.71C542.994,498.263,536.043,499.089,536.043,499.089
		L536.043,499.089z"/>
	<path d="M529.354,216.824l-0.159-6.998c5.296-0.121,532.573-12.346,791.044-37.993c98.099-9.733,147.468-59.009,147.954-59.506
		l5.004,4.896c-0.52,0.531-12.999,13.162-38.097,27.135c-23.045,12.831-61.56,29.221-114.17,34.441
		C1062.195,204.472,534.653,216.704,529.354,216.824z"/>
	<path d="M974.9,199.707c-5.425,10.608-8.394,22.338-10.638,34.025c-2.112,11.948-3.142,24.127-3.218,36.332
		c-0.111,24.824-0.393,49.651-0.431,74.444c-0.111,49.575,0.773,99.15,3.677,148.634c0,0-6.987,0.43-6.987,0.43
		c-1.579-24.819-2.655-49.664-3.355-74.512c-1.462-49.665-1.058-99.37-1.027-149.026c0.062-18.943,2.127-38.076,7.491-56.35
		c1.894-6.254,4.027-12.401,7.115-18.222C967.527,195.462,974.9,199.707,974.9,199.707L974.9,199.707z"/>
	<path d="M79.8,331.741c-3.297,0-6.224-1.883-7.59-4.945c-1.478-3.315-0.719-7.064,1.934-9.552
		c14.896-13.971,39.118-27.627,74.048-41.748c32.667-13.206,68.035-19.988,86.209-22.855c3.068-0.482,5.98,1.092,7.258,3.919
		c1.277,2.826,0.532,6.053-1.853,8.031c0,0,0,0,0,0c-63.359,52.531-116.06,63.407-159.256,67.117
		C80.299,331.73,80.048,331.741,79.8,331.741z M234.774,259.67c-18.101,2.887-52.369,9.545-83.959,22.316
		c-34.115,13.791-57.628,26.994-71.883,40.363c-0.638,0.599-0.48,1.257-0.329,1.596c0.177,0.397,0.561,0.863,1.349,0.789
		C121.939,321.127,173.154,310.565,234.774,259.67z"/>
	<path d="M1609.743,181.583c28.553-10.062,57.38-19.099,86.763-26.422c9.826-2.381,19.721-4.556,29.758-6.291l1.372,8.505
		c-9.767,1.555-19.513,3.558-29.225,5.774c-29.145,6.848-57.972,15.464-86.332,25.033
		C1612.078,188.182,1609.743,181.583,1609.743,181.583L1609.743,181.583z"/>
	<path d="M1648.48,150.976c-18.848,0-33.817-2.027-69.891-15.278c-43.791-16.086-105.115-35.442-177.342-55.973
		c-7.683-2.184-13.456-8.402-15.067-16.228l-1.333-6.465l6.855-1.413l1.333,6.466c1.084,5.26,4.964,9.439,10.126,10.907
		c72.392,20.579,133.889,39.99,177.842,56.136c42.066,15.453,53.754,15.21,79.339,14.68c3.877-0.081,7.887-0.164,12.418-0.204
		l0.062,7c-4.49,0.04-8.479,0.122-12.336,0.202C1656.196,150.895,1652.258,150.976,1648.48,150.976z"/>
	<polygon points="1000.581,31.785 950.631,198.838 942.387,196.331 993.884,29.748 1000.581,31.785 	"/>
	<polygon points="1032.694,31.629 1004.179,197.408 995.791,195.926 1025.801,30.411 1032.694,31.629 	"/>
	<path d="M1550.87,196.643c-11.857-0.352-25.059-0.493-36.857-0.344c-119.151,2.041-238.5,9.504-356.992,22.019
		c-1.054,0.12-2.004-0.637-2.124-1.691c-0.119-1.047,0.63-1.992,1.673-2.121c32.714-4.024,65.504-7.289,98.319-10.23
		c81.908-7.182,164.419-12.779,246.65-15.242c16.005-0.392,33.587-0.653,49.597-0.293
		C1556.378,188.965,1556.268,196.727,1550.87,196.643L1550.87,196.643z"/>
	<path d="M1333.253,171.422c0.872,1.028,14.754,17.199,15.009,17.505c5.098,5.235,7.683,12.692,6.144,19.91
		c-8.26,40.398-20.162,79.952-34.576,118.538c0,0-6.565-2.431-6.565-2.431c9.305-25.572,17.392-51.591,24.126-77.937
		c3.372-13.168,6.397-26.432,8.944-39.739c0.496-2.604,0.217-5.27-0.803-7.675c-0.807-2.37-3.741-5.201-5.306-7.095
		c0,0-13.495-15.427-13.495-15.427L1333.253,171.422L1333.253,171.422z"/>
	<path d="M356.133,310.896l-0.673-6.967c255.91-24.702,941.482-66.169,1242.055-72.116l0.139,6.999
		C1297.209,244.756,611.932,286.205,356.133,310.896z"/>
	<path d="M535.288,460.824l-0.164-6.998c5.082-0.119,510.589-12.543,718.774-67.796l1.795,6.766
		c-109.269,29-299.362,45.952-439.59,55.065C664.265,457.73,536.56,460.794,535.288,460.824z"/>
	<path d="M234.338,252.651c46.588-7.885,93.818-10.762,140.9-13.625c140.404-7.64,282.872-11.692,423.517-14.414
		c0.994-0.017,1.814,0.775,1.831,1.77c0.017,0.987-0.765,1.803-1.748,1.831c-91.594,3.028-191.019,6.446-282.206,10.63
		c-82.196,3.809-164.524,6.745-246.329,15.72c-11.64,1.417-23.253,2.992-34.767,4.985c-1.905,0.33-3.716-0.947-4.046-2.852
		C231.161,254.791,232.433,252.981,234.338,252.651L234.338,252.651z"/>
	<g>
		<path d="M336.274,593.825c-75.267,0-136.5-61.233-136.5-136.5s61.233-136.5,136.5-136.5s136.5,61.233,136.5,136.5
			S411.54,593.825,336.274,593.825z M336.274,327.825c-71.407,0-129.5,58.094-129.5,129.5s58.093,129.5,129.5,129.5
			s129.5-58.094,129.5-129.5S407.681,327.825,336.274,327.825z"/>
		<path d="M336.274,566.825c-60.378,0-109.5-49.121-109.5-109.5s49.122-109.5,109.5-109.5s109.5,49.121,109.5,109.5
			S396.652,566.825,336.274,566.825z M336.274,354.825c-56.519,0-102.5,45.981-102.5,102.5s45.981,102.5,102.5,102.5
			s102.5-45.981,102.5-102.5S392.792,354.825,336.274,354.825z"/>
		<path d="M267.995,406.711l-4.821-3.572c7.436-10.037,16.68-18.3,27.476-24.56l3.01,5.191
			C283.575,389.618,274.941,397.335,267.995,406.711z"/>
		<path d="M393.047,394.084c-8.687-7.821-18.688-13.663-29.727-17.364l1.907-5.689c11.822,3.964,22.533,10.221,31.834,18.595
			L393.047,394.084z"/>
		<path d="M419.475,494.224l-5.482-2.438c4.721-10.617,7.167-21.935,7.271-33.638l6,0.053
			C427.152,470.733,424.532,482.852,419.475,494.224z"/>
		<path d="M336.274,548.325c-3.131,0-6.287-0.163-9.381-0.486l0.622-5.967c2.888,0.301,5.835,0.453,8.759,0.453
			c8.705,0,17.281-1.31,25.49-3.891l1.8,5.723C354.772,546.922,345.59,548.325,336.274,548.325z"/>
		<path d="M262.142,510.108c-7.27-10.184-12.27-21.531-14.863-33.729l5.869-1.248c2.42,11.387,7.089,21.981,13.877,31.49
			L262.142,510.108z"/>
		<path d="M251.487,451.399l-5.986-0.408c0.679-9.962,2.976-19.665,6.827-28.837l5.532,2.322
			C254.265,433.039,252.121,442.096,251.487,451.399z"/>
		<path d="M302.18,541.716c-9.218-3.727-17.725-8.917-25.284-15.428l3.916-4.547c7.061,6.083,15.007,10.932,23.617,14.412
			L302.18,541.716z"/>
		<path d="M383.525,535.117l-3.122-5.123c7.947-4.844,15.002-10.911,20.972-18.035l4.599,3.854
			C399.584,523.438,392.031,529.933,383.525,535.117z"/>
		<path d="M419.023,437.811c-2.124-9.048-5.711-17.635-10.661-25.521l5.082-3.189c5.302,8.448,9.144,17.646,11.419,27.34
			L419.023,437.811z"/>
		<path d="M315.7,374.836l-1.451-5.822c7.159-1.784,14.569-2.689,22.025-2.689c2.511,0,5.035,0.104,7.5,0.312l-0.501,5.979
			c-2.3-0.192-4.655-0.29-7-0.29C329.307,372.325,322.384,373.169,315.7,374.836z"/>
		<path d="M336.274,476.325c-10.477,0-19-8.523-19-19s8.523-19,19-19s19,8.523,19,19S346.75,476.325,336.274,476.325z
			 M336.274,444.325c-7.168,0-13,5.832-13,13s5.832,13,13,13s13-5.832,13-13S343.442,444.325,336.274,444.325z"/>
		<path d="M320.052,450.299c-1.021,0-2.044-0.178-3.018-0.534l-62.829-23.035c-4.826-1.77-8.382-6.013-9.281-11.072l-2.364-13.304
			l6.892-1.225l2.364,13.304c0.465,2.616,2.304,4.81,4.799,5.725l62.829,23.035c0.629,0.231,1.152,0.049,1.407-0.08
			c0.25-0.125,0.697-0.429,0.88-1.049c1.715-5.806,3.637-14.95,3.048-25.545c-0.953-17.156-19.837-59.505-20.028-59.931l6.389-2.861
			c0.8,1.787,19.604,43.97,20.628,62.403c0.644,11.596-1.453,21.582-3.325,27.918c-0.68,2.301-2.301,4.239-4.448,5.318
			C322.765,449.986,321.41,450.299,320.052,450.299z"/>
		<path d="M270.4,531.464c-0.659,0-1.321-0.045-1.983-0.137l-13.383-1.862l0.965-6.934l13.383,1.862
			c2.638,0.368,5.287-0.704,6.927-2.794l41.323-52.636c0.413-0.526,0.402-1.08,0.359-1.363c-0.042-0.276-0.193-0.795-0.726-1.16
			c-4.991-3.426-13.094-8.079-23.353-10.793c-16.604-4.394-62.723,0.477-63.187,0.527l-0.746-6.961
			c1.946-0.208,47.876-5.057,65.723-0.334c11.228,2.971,20.077,8.051,25.524,11.789c1.978,1.357,3.321,3.499,3.684,5.874
			c0.365,2.387-0.281,4.845-1.773,6.744l-41.323,52.635C279.054,529.44,274.809,531.464,270.4,531.464z"/>
		<path d="M302.564,557.351l-6.85-1.441c0.403-1.915,9.984-47.095,19.991-62.609c6.292-9.757,13.859-16.604,19.099-20.632
			c1.903-1.461,4.356-2.075,6.725-1.688c2.382,0.391,4.521,1.765,5.866,3.77l37.29,55.566c2.864,4.269,3.247,9.791,1,14.413
			l-5.907,12.152l-6.296-3.061l5.907-12.152c1.162-2.39,0.963-5.245-0.517-7.452l-37.29-55.566
			c-0.373-0.555-0.902-0.716-1.185-0.762c-0.276-0.047-0.816-0.062-1.328,0.331c-4.801,3.689-11.732,9.96-17.481,18.875
			C312.275,511.534,302.661,556.894,302.564,557.351z"/>
		<path d="M417.5,526.365c-1.697-0.976-41.705-24.05-53.368-38.361c-7.334-8.999-11.509-18.312-13.72-24.539
			c-0.802-2.262-0.63-4.783,0.472-6.918c1.108-2.146,3.075-3.754,5.398-4.414l64.369-18.293c4.943-1.407,10.314-0.064,14.017,3.502
			l9.732,9.372l-4.855,5.043l-9.733-9.373c-1.914-1.844-4.689-2.537-7.247-1.812l-64.37,18.294c-0.644,0.184-0.96,0.638-1.091,0.892
			c-0.128,0.249-0.312,0.757-0.096,1.366c2.026,5.706,5.848,14.235,12.549,22.458c10.851,13.313,51.025,36.48,51.43,36.713
			L417.5,526.365z"/>
		<path d="M346.251,445.779c-2.317,0-4.566-0.937-6.202-2.589c-1.698-1.717-2.621-4.085-2.531-6.498l2.493-66.874
			c0.192-5.136,3.128-9.828,7.662-12.247l11.922-6.359l3.295,6.176l-11.922,6.359c-2.345,1.251-3.863,3.678-3.962,6.333
			l-2.493,66.873c-0.025,0.668,0.31,1.109,0.511,1.313c0.197,0.198,0.628,0.547,1.269,0.512c6.053-0.163,15.345-1.162,25.238-4.994
			c16.014-6.205,50.462-37.255,50.809-37.567l4.695,5.191c-1.452,1.313-35.76,32.232-52.975,38.903
			c-10.827,4.194-20.973,5.286-27.579,5.465C346.405,445.778,346.328,445.779,346.251,445.779z"/>
		<path d="M311.273,433.825c-0.38,0-0.765-0.062-1.141-0.191c-29.292-10.101-59.777-35.991-61.06-37.089l4.548-5.32
			c0.295,0.251,28.835,24.483,56.069,34.805c3.536-7.465-0.883-14.789-30.671-57.708l5.751-3.992
			c32.851,47.333,37.9,54.607,29.457,67.875C313.57,433.235,312.444,433.825,311.273,433.825z"/>
		<path d="M251.521,521.476l-3.655-5.971c0.331-0.202,32.196-19.857,50.429-42.568c-6.006-5.669-14.338-3.729-64.362,11.337
			l-2.019-6.703c55.166-16.617,63.646-19.172,73.655-7.04c1.031,1.249,1.07,3.042,0.095,4.335
			C287.006,499.602,252.962,520.594,251.521,521.476z"/>
		<path d="M330.279,562.985l-6.998-0.15c1.244-57.603,1.435-66.456,16.064-72.228c1.508-0.595,3.224-0.077,4.153,1.25
			c17.76,25.389,27.205,64.255,27.598,65.896l-6.808,1.631c-0.09-0.377-8.937-36.757-24.902-61.115
			C332.138,502.23,331.407,510.753,330.279,562.985z"/>
		<path d="M432.603,502.287c-54.398-18.983-62.758-21.9-63.727-37.597c-0.1-1.617,0.922-3.091,2.471-3.563
			c29.635-9.045,69.517-6.019,71.2-5.885l-0.552,6.979c-0.387-0.029-37.72-2.859-65.819,4.798
			c1.528,8.117,9.407,11.446,58.734,28.659L432.603,502.287z"/>
		<path d="M359.683,429.528c-1.977,0-4.042-0.343-6.331-0.934c-1.568-0.404-2.654-1.832-2.625-3.451
			c0.555-30.979,15.758-67.974,16.405-69.533l6.466,2.682c-0.148,0.357-14.375,34.99-15.776,64.08
			c8.191,1.051,13.79-5.407,45.407-47.003l5.573,4.236C379.179,418.579,370.856,429.527,359.683,429.528z"/>
	</g>
	<g>
		<path d="M1392.274,593.825c-75.267,0-136.5-61.233-136.5-136.5s61.233-136.5,136.5-136.5s136.5,61.233,136.5,136.5
			S1467.54,593.825,1392.274,593.825z M1392.274,327.825c-71.406,0-129.5,58.094-129.5,129.5s58.094,129.5,129.5,129.5
			s129.5-58.094,129.5-129.5S1463.68,327.825,1392.274,327.825z"/>
		<path d="M1392.274,566.825c-60.379,0-109.5-49.121-109.5-109.5s49.121-109.5,109.5-109.5s109.5,49.121,109.5,109.5
			S1452.653,566.825,1392.274,566.825z M1392.274,354.825c-56.519,0-102.5,45.981-102.5,102.5s45.981,102.5,102.5,102.5
			s102.5-45.981,102.5-102.5S1448.792,354.825,1392.274,354.825z"/>
		<path d="M1323.995,406.711l-4.82-3.572c7.434-10.035,16.678-18.299,27.475-24.56l3.01,5.191
			C1339.574,389.619,1330.939,397.336,1323.995,406.711z"/>
		<path d="M1449.046,394.084c-8.686-7.821-18.688-13.663-29.727-17.364l1.908-5.689c11.822,3.965,22.532,10.221,31.834,18.595
			L1449.046,394.084z"/>
		<path d="M1475.475,494.224l-5.482-2.438c4.721-10.617,7.167-21.935,7.271-33.638l6,0.053
			C1483.153,470.733,1480.532,482.852,1475.475,494.224z"/>
		<path d="M1392.274,548.325c-3.131,0-6.287-0.163-9.381-0.486l0.621-5.967c2.889,0.301,5.836,0.453,8.76,0.453
			c8.706,0,17.282-1.31,25.489-3.891l1.801,5.723C1410.773,546.922,1401.591,548.325,1392.274,548.325z"/>
		<path d="M1318.143,510.108c-7.27-10.183-12.271-21.53-14.863-33.729l5.869-1.248c2.42,11.388,7.089,21.982,13.877,31.49
			L1318.143,510.108z"/>
		<path d="M1307.487,451.399l-5.986-0.408c0.679-9.963,2.977-19.665,6.828-28.837l5.531,2.322
			C1310.265,433.039,1308.12,442.096,1307.487,451.399z"/>
		<path d="M1358.18,541.716c-9.22-3.727-17.727-8.917-25.284-15.429l3.916-4.545c7.061,6.082,15.006,10.931,23.616,14.411
			L1358.18,541.716z"/>
		<path d="M1439.526,535.117l-3.123-5.123c7.946-4.844,15.003-10.911,20.972-18.035l4.6,3.854
			C1455.583,523.438,1448.031,529.933,1439.526,535.117z"/>
		<path d="M1475.023,437.811c-2.123-9.047-5.71-17.634-10.66-25.521l5.082-3.189c5.303,8.449,9.146,17.647,11.42,27.34
			L1475.023,437.811z"/>
		<path d="M1371.7,374.836l-1.451-5.822c7.159-1.784,14.569-2.689,22.025-2.689c2.512,0,5.035,0.104,7.5,0.312l-0.5,5.979
			c-2.3-0.192-4.655-0.29-7-0.29C1385.307,372.325,1378.385,373.169,1371.7,374.836z"/>
		<path d="M1392.274,476.325c-10.477,0-19-8.523-19-19s8.523-19,19-19s19,8.523,19,19S1402.75,476.325,1392.274,476.325z
			 M1392.274,444.325c-7.168,0-13,5.832-13,13s5.832,13,13,13s13-5.832,13-13S1399.442,444.325,1392.274,444.325z"/>
		<path d="M1376.051,450.299c-1.021,0-2.044-0.178-3.017-0.534l-62.83-23.035c-4.825-1.771-8.381-6.013-9.28-11.072l-2.364-13.304
			l6.893-1.225l2.364,13.304c0.465,2.616,2.303,4.81,4.798,5.725l62.83,23.035c0.623,0.229,1.149,0.049,1.406-0.08
			c0.25-0.125,0.696-0.429,0.88-1.049c1.716-5.806,3.637-14.95,3.049-25.545c-0.953-17.156-19.838-59.505-20.028-59.931l6.389-2.861
			c0.8,1.787,19.604,43.97,20.628,62.403c0.645,11.596-1.452,21.582-3.324,27.918c-0.68,2.301-2.302,4.239-4.448,5.318
			C1378.764,449.986,1377.41,450.299,1376.051,450.299z"/>
		<path d="M1326.4,531.464c-0.659,0-1.321-0.045-1.983-0.137l-13.383-1.862l0.965-6.934l13.384,1.862
			c2.626,0.368,5.286-0.704,6.928-2.794l41.323-52.636c0.413-0.526,0.401-1.079,0.358-1.362c-0.042-0.276-0.192-0.796-0.726-1.161
			c-4.991-3.426-13.095-8.079-23.354-10.793c-16.609-4.397-62.722,0.477-63.187,0.527l-0.746-6.961
			c1.946-0.208,47.876-5.055,65.724-0.334c11.227,2.97,20.076,8.051,25.523,11.789c1.978,1.357,3.32,3.498,3.685,5.874
			c0.364,2.386-0.281,4.844-1.772,6.743l-41.323,52.636C1335.054,529.44,1330.808,531.464,1326.4,531.464z"/>
		<path d="M1358.564,557.351l-6.85-1.441c0.402-1.915,9.984-47.095,19.991-62.61c6.293-9.756,13.859-16.604,19.099-20.631
			c1.903-1.462,4.356-2.078,6.726-1.688c2.382,0.391,4.52,1.765,5.865,3.77l37.291,55.566c2.863,4.269,3.246,9.791,1.001,14.412
			l-5.908,12.153l-6.295-3.061l5.907-12.152c1.16-2.39,0.962-5.245-0.519-7.453l-37.29-55.565c-0.372-0.555-0.902-0.716-1.185-0.762
			c-0.279-0.047-0.816-0.063-1.329,0.332c-4.801,3.688-11.73,9.958-17.48,18.874
			C1368.279,511.528,1358.661,556.894,1358.564,557.351z"/>
		<path d="M1473.501,526.365c-1.698-0.976-41.705-24.05-53.369-38.361c-7.336-9.001-11.51-18.312-13.72-24.539
			c-0.802-2.262-0.63-4.783,0.473-6.918c1.107-2.146,3.075-3.754,5.398-4.414l64.368-18.293c4.946-1.407,10.315-0.064,14.017,3.502
			l9.732,9.373l-4.855,5.041l-9.732-9.373c-1.914-1.843-4.689-2.536-7.247-1.811l-64.369,18.294
			c-0.644,0.184-0.96,0.638-1.092,0.892c-0.128,0.249-0.312,0.757-0.095,1.366c2.024,5.705,5.846,14.233,12.548,22.458
			c10.851,13.313,51.025,36.48,51.431,36.713L1473.501,526.365z"/>
		<path d="M1402.251,445.779c-2.318,0-4.567-0.937-6.203-2.59c-1.698-1.717-2.62-4.085-2.53-6.498l2.493-66.873
			c0.191-5.136,3.128-9.828,7.662-12.247l11.922-6.359l3.295,6.176l-11.922,6.359c-2.345,1.251-3.862,3.677-3.961,6.332
			l-2.493,66.874c-0.025,0.668,0.309,1.109,0.51,1.312c0.198,0.2,0.658,0.557,1.27,0.513c6.053-0.163,15.345-1.162,25.237-4.994
			c16.015-6.205,50.463-37.255,50.809-37.567l4.695,5.191c-1.452,1.313-35.76,32.232-52.975,38.903
			c-10.827,4.194-20.974,5.286-27.578,5.465C1402.405,445.778,1402.328,445.779,1402.251,445.779z"/>
		<path d="M1367.273,433.825c-0.38,0-0.765-0.062-1.14-0.191c-29.292-10.101-59.777-35.991-61.061-37.089l4.549-5.32
			c0.294,0.251,28.835,24.483,56.068,34.805c3.535-7.465-0.883-14.789-30.671-57.708l5.75-3.992
			c32.852,47.332,37.901,54.607,29.458,67.875C1369.571,433.235,1368.445,433.825,1367.273,433.825z"/>
		<path d="M1307.522,521.476l-3.655-5.971c0.331-0.202,32.196-19.857,50.428-42.568c-6.008-5.669-14.334-3.733-64.361,11.337
			l-2.02-6.703c55.168-16.617,63.647-19.172,73.655-7.04c1.031,1.249,1.07,3.042,0.095,4.335
			C1343.006,499.602,1308.962,520.594,1307.522,521.476z"/>
		<path d="M1386.279,562.985l-6.998-0.15c1.244-57.603,1.436-66.456,16.064-72.228c1.506-0.593,3.224-0.077,4.152,1.25
			c17.76,25.389,27.205,64.255,27.598,65.896l-6.807,1.631c-0.091-0.376-8.938-36.757-24.902-61.115
			C1388.138,502.23,1387.407,510.753,1386.279,562.985z"/>
		<path d="M1488.603,502.287c-54.397-18.982-62.759-21.9-63.727-37.597c-0.1-1.617,0.922-3.091,2.472-3.563
			c29.635-9.045,69.517-6.018,71.199-5.885l-0.553,6.979c-0.385-0.03-37.719-2.859-65.818,4.798
			c1.527,8.117,9.407,11.446,58.733,28.659L1488.603,502.287z"/>
		<path d="M1415.683,429.528c-1.977,0-4.041-0.343-6.33-0.934c-1.568-0.404-2.654-1.832-2.625-3.451
			c0.554-30.979,15.758-67.974,16.405-69.533l6.466,2.682c-0.148,0.357-14.375,34.99-15.776,64.08
			c8.202,1.058,13.794-5.409,45.407-47.003l5.572,4.236C1435.179,418.579,1426.857,429.527,1415.683,429.528z"/>
	</g>
</g>
</svg>
