<?xml version="1.0" encoding="iso-8859-1"?>
<!-- Generator: Adobe Illustrator 27.0.1, SVG Export Plug-In . SVG Version: 6.00 Build 0)  -->
<svg version="1.1" id="Tesla_Model_X" xmlns="http://www.w3.org/2000/svg" xmlns:xlink="http://www.w3.org/1999/xlink" x="0px"
	 y="0px" viewBox="0 0 1888.02 629.666" style="enable-background:new 0 0 1888.02 629.666;" xml:space="preserve">
<g>
	<path d="M549.988,565.342c-7.359,0-14.272-3.234-18.987-8.888c-4.746-5.691-6.68-13.134-5.306-20.419
		c2.839-15.055,4.278-28.805,4.278-40.869c0-43.467-16.931-84.328-47.674-115.057c-30.723-30.708-71.562-47.618-115-47.618
		c-0.029,0-0.056,0-0.085,0c-89.653,0.044-162.591,73.736-162.591,164.272v31.324c0,6.726-2.652,13.015-7.467,17.708
		c-4.813,4.691-11.185,7.178-17.885,7.008c-39.672-1.016-110.378-2.929-138.188-4.318c-16.879-0.845-28.867-5.547-35.631-13.976
		c-3.162-3.94-4.404-9.077-3.407-14.095c1.022-5.142,4.234-9.532,8.813-12.048c10.705-5.877,24.621-9.175,31.902-10.609
		c-2.417-7.688-7.872-23.568-15.093-35.62c-0.978-1.633-2.8-2.646-4.755-2.646h-7.728c-5.059,0-9.547-2.64-12.006-7.061
		c-2.458-4.419-2.333-9.622,0.335-13.918l2.033-3.271c8.193-13.165,10.061-29.151,5.125-43.859
		c-4.531-13.505-7.981-24.005-10.076-30.435c-1.007-3.09-0.731-6.376,0.775-9.255c1.34-2.56,3.5-4.504,6.152-5.562l-1.335-9.872
		c-0.858-6.343,2.159-12.521,7.687-15.739c141.988-82.665,359.049-116.265,417.875-118.541c3.538-0.137,7.01-1.159,10.04-2.956
		C476.314,178.553,658.507,74.191,855.35,29.946c249.481-56.075,488.556-20.942,608.86,4.992
		c157.691,33.993,355.884,131.346,376.33,141.514c7.891-2.928,16.487-5.453,22.497-7.101c5.109-1.402,10.536,0.572,13.505,4.912
		l0.112,0.165c3.032,4.488,3.348,10.357,0.839,15.337c-6.594,13.09-6.498,28.798-6.366,50.541l0.026,4.726
		c0.011,2.523-0.964,4.899-2.745,6.688c-1.779,1.788-4.146,2.772-6.666,2.772h-1.018c0.275,11.227,1.099,40.951,2.464,57.751
		c0.166,2.034,1.018,3.938,2.398,5.36c1.302,1.342,2.709,2.71,4.181,4.067c5.61,5.171,8.919,12.485,9.077,20.067l1.738,83.451
		l1.394,1.238c5.14,4.568,7.209,11.535,5.399,18.182c-3.002,11.033-9.53,32.193-19.526,49.941
		c-6.422,11.401-16.959,19.831-29.67,23.736c-63.152,19.404-159.545,37.711-166.676,39.054c-7.408,2.853-15.753,1.976-22.41-2.38
		c-6.786-4.438-10.967-11.927-11.184-20.034c-0.419-15.604-1.398-30.505-2.91-44.288c-8.488-77.329-73.517-157.147-167.691-157.147
		c-0.173,0-0.332,0-0.505,0.001c-87.771,0.266-159.18,72.589-159.18,161.221v41.671c0,13.555-11.027,24.646-24.582,24.726
		l-732.909,4.233C550.084,565.342,550.036,565.342,549.988,565.342z M367.3,323.841c45.75,0,88.755,17.807,121.114,50.151
		c32.377,32.361,50.209,75.396,50.209,121.174c0,12.601-1.49,26.891-4.428,42.473c-0.894,4.737,0.364,9.576,3.449,13.276
		c3.064,3.675,7.56,5.776,12.344,5.777c0.032,0,0.063,0,0.095-0.001l732.908-4.233c8.812-0.051,15.982-7.263,15.982-16.075v-41.671
		c0-93.387,75.276-169.591,167.804-169.871c0.168,0,0.34-0.001,0.508-0.001c44.883,0,87.754,18.044,120.773,50.846
		c30.689,30.485,50.933,72.04,55.539,114.009c1.539,14.019,2.534,29.159,2.959,45c0.144,5.351,2.793,10.099,7.271,13.026
		c4.477,2.929,9.887,3.451,14.845,1.438c0.269-0.109,0.548-0.191,0.834-0.245c1.006-0.188,101.327-18.983,166.133-38.895
		c10.583-3.252,19.346-10.253,24.674-19.714c9.537-16.933,15.821-37.321,18.717-47.968c0.94-3.455-0.132-7.074-2.799-9.445
		l-2.805-2.493c-0.9-0.8-1.426-1.938-1.451-3.143l-1.778-85.339c-0.109-5.241-2.402-10.303-6.292-13.887
		c-1.589-1.466-3.111-2.947-4.524-4.402c-2.775-2.859-4.484-6.654-4.812-10.685c-1.465-18.019-2.309-50.505-2.533-60.032
		c-0.044-1.875,0.653-3.647,1.964-4.988c1.312-1.343,3.068-2.083,4.946-2.083h2.798c0.258,0,0.434-0.122,0.535-0.224
		c0.104-0.104,0.227-0.283,0.226-0.547l-0.026-4.712c-0.139-22.952-0.239-39.535,7.292-54.485c1.101-2.186,0.998-4.708-0.268-6.582
		l-0.107-0.157c-0.877-1.283-2.522-1.867-4.068-1.441c-5.141,1.41-15.025,4.26-23.474,7.51c-1.141,0.439-2.411,0.375-3.502-0.176
		c-2.095-1.057-211.431-106.165-375.962-141.633c-119.609-25.784-357.278-60.72-605.141-5.008
		C661.676,82.344,480.529,186.11,446.201,206.465c-4.264,2.529-9.146,3.967-14.117,4.159
		c-58.273,2.254-273.273,35.525-413.857,117.372c-2.494,1.452-3.854,4.241-3.467,7.104l1.508,11.146
		c0.47,3.478-1.628,6.732-4.987,7.74l-0.246,0.074c-0.874,0.262-1.581,0.846-2,1.645c-0.417,0.797-0.494,1.707-0.214,2.563
		c2.09,6.413,5.531,16.887,10.053,30.362c5.759,17.163,3.579,35.818-5.982,51.182l-2.028,3.263
		c-1.423,2.292-0.562,4.366-0.125,5.151c0.91,1.637,2.572,2.614,4.446,2.614h7.728c4.978,0,9.643,2.625,12.175,6.852
		c10.453,17.444,17.103,41.315,17.381,42.323c0.329,1.194,0.13,2.472-0.545,3.51c-0.675,1.038-1.764,1.736-2.989,1.919
		c-0.203,0.03-20.427,3.101-33.912,10.505c-2.333,1.281-3.971,3.523-4.493,6.151c-0.505,2.54,0.088,5.024,1.669,6.995
		c5.078,6.328,15.215,10.045,29.317,10.751c28.753,1.437,106.071,3.493,137.978,4.311c4.379,0.099,8.498-1.507,11.626-4.556
		c3.13-3.052,4.854-7.141,4.854-11.514v-31.324c0-95.303,76.817-172.876,171.237-172.923
		C367.238,323.841,367.272,323.841,367.3,323.841z"/>
	<polygon points="1637.922,479.153 1820.894,458.689 1821.702,465.643 1638.914,487.688 1637.922,479.153 	"/>
	<path d="M1876.298,431.475c-26.277-0.368-39.782,10.791-52.043,33.03c-5.022,9.434-9.608,19.04-15.606,28.121
		c-19.081,30.687-52.77,46.099-86.758,53.703c0,0-1.603-6.813-1.603-6.813c24.184-5.908,48.165-14.843,66.295-32.14
		c12.145-11.406,20.246-26.023,27.6-40.948c5.745-11.652,13.082-23.685,23.582-31.981c7.223-5.687,16.154-9.273,25.187-10.611
		c4.479-0.703,8.931-0.903,13.346-0.977V431.475L1876.298,431.475z"/>
	<path d="M1858.944,254.516c0,0-15.646,0-15.646,0l4.325-4.325l-0.013,5.669c-0.069,2.121,0.216,4.801-0.402,6.851
		c-1.046,3.697-4.4,6.517-8.199,6.947c-0.933,0.13-2.147,0.284-3.078,0.496c-3.369,0.735-6.36,2.309-8.457,4.885
		c-1.587,1.822-2.74,4.344-3.813,6.599c-2.267,4.314-7.077,6.992-11.944,6.738c-9.524-0.012-28.534,0.019-38.252,0.037
		c-24.662-0.143-49.46,0.635-74.107-1.862c-2.835-0.315-5.87-0.803-8.69-1.309c-1.292-0.221-2.723-0.66-3.882-1.328
		c-6.743-3.774-7.248-13.736-0.855-18.135c0,0,0.29-0.207,0.29-0.207l2.324-1.657c1.952-1.352,9.92-7.101,11.619-8.281
		c5.477-3.568,11.155-7.596,16.734-10.967c19.33-12.141,40.192-23.273,62.534-28.97c11.221-2.931,23.079-3.613,34.655-3.125
		c2.998,0.064,6.05,0.092,9.026,0.637c11.595,1.706,17.927,9.241,17.685,20.957c0,0-3.5-3.5-3.5-3.5s29.471,0.067,29.471,0.067
		v6.866c0,0-29.471,0.067-29.471,0.067c-1.935,0.006-3.505-1.569-3.5-3.5c0.236-12.943-9.055-14.407-19.767-14.44
		c-3.326-0.047-7.959-0.163-11.209-0.036c-9.06,0.211-18.203,2.005-26.926,4.535c-26.665,8.388-50.773,23.457-73.629,39.39
		c-1.209,0.913-10.265,7.357-11.425,8.223c-2.68,1.582-1.944,5.395,1.284,5.676c11.903,2.108,23.929,2.376,36.049,2.646
		c21.715,0.326,46.038-0.042,67.935-0.125c2.994-0.023,12.726-0.054,15.598-0.071c1.803,0.151,3.652-0.655,4.501-2.324
		c0.121-0.19,0.374-0.831,0.485-1.042c3.075-7.405,9.365-13.208,17.361-14.789c1.163-0.276,2.874-0.503,4.065-0.69
		c0.491-0.124,0.885-0.601,0.871-1.106c0,0,0.002-1.318,0.002-1.318c0.005-1.803-0.022-6.64-0.019-8.503
		c-0.006-2.383,1.922-4.32,4.305-4.325c0.018,0,15.646,0,15.666,0C1858.944,245.866,1858.944,254.516,1858.944,254.516
		L1858.944,254.516z"/>
	<path d="M11.281,327.404c9.477,1.991,17.071,11.565,21.977,19.327c1.992,3.332,4.205,7.399,6.075,10.788
		c4.14,7.571,12.179,12.75,20.766,13.429c2.963,0.281,5.856-0.098,8.784-0.639c77.171-12.881,154.747-22.822,232.312-32.796
		c0,0,1.042,8.385,1.042,8.385c-78.317,9.698-156.693,19.383-234.569,32.064c-6.319,0.995-12.916,0.149-18.763-2.449
		c-6.689-2.93-12.366-8.12-15.861-14.527c-2.221-4.029-4.605-8.675-7.115-12.473c-3.652-5.466-8.071-10.899-14.098-13.669
		c-0.48-0.209-0.926-0.367-1.404-0.483c0,0-0.064-0.015-0.064-0.015c-0.033-0.008,0.044,0.008,0.061,0.007L11.281,327.404
		L11.281,327.404z"/>
	<path d="M8.841,345.688c0,0,2.156-0.792,2.156-0.792c0.588-0.185,1.683-0.638,2.237-0.904
		c11.105-4.973,21.874-10.732,32.904-15.977c31.741-15.342,64.961-28.627,99.609-35.73c20.893-4.026,42.142-5.245,63.35-5.99
		c28.214-0.651,58.654,0.454,83.509,15.664c12.457,7.653,22.537,18.949,29.609,31.63c0,0-6.003,3.396-6.003,3.396
		c-6.631-11.72-15.827-21.957-27.336-28.965c-29.603-17.548-67.131-14.951-100.394-13.059c-13.925,0.857-27.534,2.368-41.172,5.051
		c-16.79,3.593-33.633,8.623-49.725,14.721c-16.252,6.121-32.128,13.233-47.768,20.868c-11.083,5.341-21.928,11.221-33.179,16.314
		c-1.898,0.887-3.559,1.39-5.406,2.086C11.233,354.001,8.841,345.688,8.841,345.688L8.841,345.688z"/>
	<path d="M60.297,324.548c0,0,9.017,9.977,9.017,9.977l4.474,4.938c2.431,2.632,5.741,4.444,9.273,5.062
		c1.993,0.351,3.433,0.317,5.582,0.093c0,0,13.381-1.291,13.381-1.291c4.32-0.42,57.307-5.527,60.218-5.81
		c15.009-0.851,29.822-5.555,41.881-14.672c14.304-10.621,27.952-22.027,41.067-34.125c0,0,4.756,5.136,4.756,5.136
		c-13.167,12.321-26.984,24.037-41.389,34.898c-12.156,9.218-26.992,14.797-42.177,16.102c-2.057,0.209-7.887,0.821-10.035,1.041
		c-9.863,1.025-58.112,6.028-66.902,6.942c-7.835,1.142-16.382-1.74-21.788-7.628c0,0-4.592-4.994-4.592-4.994
		s-9.089-9.912-9.089-9.912S60.297,324.548,60.297,324.548L60.297,324.548z"/>
	<path d="M7.188,436.469c3.227,0.002,10.758,0.04,13.834,0.044c5.33,0.232,10.277-1.189,14.275-4.659
		c20.027-18.771,47.375-26.222,73.749-29.682c0,0,9.331-0.956,9.331-0.956l9.345-0.609c1.982-0.09,4.126,0.199,6.059,0.916
		c6.952,2.407,11.255,10.208,9.628,17.386c-3.928,17.406-9.293,34.457-15.155,51.289c0,0-3.123,8.73-3.123,8.73
		c-3.326,9.361-9.708,17.723-17.953,23.305c-5.224,3.74-11.606,5.829-17.627,7.894c-11.688,4.033-23.408,7.806-35.31,11.296
		c-4.293,1.129-6.183-5.088-1.929-6.5c11.691-3.508,23.378-7.35,34.926-11.418c5.4-1.937,11.232-3.747,15.903-7.151
		c7.011-4.834,12.309-11.863,15.118-19.911c0,0,3.036-8.657,3.036-8.657c3.954-11.553,7.636-23.217,10.801-35
		c1.176-4.411,2.296-8.829,3.293-13.278c0,0,0.485-2.183,0.485-2.183c0.51-2.488-0.324-5.155-2.2-6.916
		c-1.513-1.395-3.458-2.084-5.561-1.979l-9.058,0.648c-20.814,1.939-41.876,6.358-60.349,16.216
		c-5.194,2.795-10.095,6.072-14.469,9.832c-2.459,2.192-4.89,4.681-7.819,6.256c-4.512,2.679-10.301,3.893-15.396,3.694
		c-3.161,0.007-10.64,0.036-13.834,0.044C1.51,444.984,1.406,436.641,7.188,436.469L7.188,436.469z"/>
	<path d="M6.741,515.885c64.434-1.69,128.976-3.975,193.268-8.418c2.357-0.173,4.407,1.602,4.573,3.96
		c0.166,2.354-1.607,4.396-3.961,4.563c-64.556,3.945-129.108,5.714-193.749,6.894C2.336,522.85,2.059,516.142,6.741,515.885
		L6.741,515.885z"/>
	<path d="M47.876,518.794c-0.008-0.064-0.877-6.907-3.72-16.385l8.285-2.486c3.07,10.234,3.983,17.514,4.021,17.818L47.876,518.794z
		"/>
	<rect x="40.443" y="427.725" transform="matrix(0.9994 -0.0332 0.0332 0.9994 -14.2692 3.1819)" width="96.456" height="7"/>
	<polygon points="533.934,502.547 1303.287,499.751 1303.309,508.389 533.952,509.547 533.934,502.547 	"/>
	<path d="M1703.76,252.599c21.357-14.716,43.518-27.534,65.993-40.274c21.156-11.689,42.332-23.54,64.68-32.877
		c0,0,4.66-1.765,4.66-1.765s2.411,6.967,2.411,6.967s-4.313,1.679-4.313,1.679c-33.483,14.768-65.113,33.663-96.454,52.497
		c-10.852,6.691-21.686,13.515-31.939,20.805L1703.76,252.599L1703.76,252.599z"/>
	<path d="M174.822,288.57c3.222-2.468,7.299-4.524,10.945-6.296c5.005-2.465,11.237-4.854,16.512-6.827
		c14.681-5.176,30.07-9.233,45.267-12.585c20.845-4.596,42.214-7.98,63.329-10.795c107.795-12.608,216.474-16.932,324.833-21.441
		c278.082-11.931,557.54-20.615,834.536-47.875c14.138-1.399,32.162-3.719,46.063-5.347c0,0,22.937-3.196,22.937-3.196
		s5.734-0.803,5.734-0.803c1.91-0.27,3.834-0.513,5.697-0.872c18.732-2.992,37.38-7.815,54.625-15.538
		c8.645-3.771,16.853-8.325,24.462-13.793c4.399-3.146,8.575-6.632,12.117-10.682c0,0,1.629,6.584,1.629,6.584
		c-114.419-48.307-236.421-78.937-359.69-93.466c-24.237-2.857-49.86-4.804-74.319-6.093c-99.232-3.809-199.483,0.363-297.26,18.324
		C764.493,83.809,629.07,154.357,509.385,243.022c-0.001-0.001-4.173-5.711-4.173-5.711c80.671-59,166.98-111.682,260.951-146.781
		c117.424-44.578,243.784-59.006,368.673-60.208c162.71-2.489,325.288,29.532,477.365,86.669c11.71,4.502,23.29,9.108,34.883,14.236
		c2.178,0.959,3.161,3.513,2.184,5.683c-1.928,2.991-4.694,5.296-7.289,7.65c-3.709,3.29-7.945,6.348-12.111,9.045
		c-26.78,17.214-58.192,25.116-89.374,29.161c-11.594,1.737-34.58,4.681-46.194,5.986c-254.291,27.073-510.076,35.32-765.391,46.814
		c-122.156,4.923-249.427,8.956-370.902,20.073c-28.064,2.577-58.245,6.148-85.979,11.157c0,0-2.845,0.488-2.845,0.488
		s-2.828,0.563-2.828,0.563s-11.312,2.249-11.312,2.249s-2.826,0.57-2.826,0.57c-9.818,2.224-20.965,4.779-30.669,7.693
		c-9.108,2.647-18.214,5.663-26.899,9.394c0,0-2.595,1.112-2.595,1.112c-0.86,0.377-1.684,0.803-2.528,1.201
		c0,0-2.513,1.217-2.513,1.217s-2.417,1.31-2.417,1.31c-0.828,0.423-1.556,0.904-2.323,1.36c-0.39,0.229-0.759,0.461-1.084,0.694
		c-0.335,0.227-0.729,0.494-0.87,0.604C180.317,295.25,174.822,288.57,174.822,288.57L174.822,288.57z"/>
	<path d="M1646.946,131.166c26.891,11.227,53.3,23.445,80.425,33.951c27.026,10.554,54.702,19.303,82.68,27
		c0,0-1.801,6.716-1.801,6.716c-42.463-10.994-84.07-25.462-124.336-42.82c-13.443-5.661-26.812-11.386-40.263-16.846
		C1643.651,139.166,1646.946,131.166,1646.946,131.166L1646.946,131.166z"/>
	<path d="M1817.49,194.274c-1.22,4.561-4.058,15.424-5.221,19.786c-0.203,0.691-0.308,1.327,0.061,1.981
		c4.441,9.385,5.822,19.631,6.687,29.836c0.369,9.044,0.256,18.155,1.149,27.177c2.551,27.985,7.732,55.63,13.686,83.169
		c2.085,6.353,7.948,11.2,14.557,12.151c1.773,0.359,4.467,0.181,6.281,0.238c4.439,0.039,15.907,0.023,20.463,0.055c0,0,0,7,0,7
		c-4.635,0.037-16.01,0.025-20.463,0.055c0,0-3.411,0.009-3.411,0.009c-10.345,0.153-20.271-6.508-23.975-16.191
		c-0.443-1.223-0.876-2.532-1.146-3.803c-3.722-18.092-7.447-36.295-10.294-54.7c-2.093-13.587-3.74-27.346-4.309-41.12
		c-0.177-8.86-0.255-17.818-2.155-26.525c-0.829-4.105-1.912-8.491-3.513-12.243c-1.492-2.633-2.4-5.699-1.529-8.703
		c0,0,0.109-0.422,0.109-0.422s1.705-6.605,1.705-6.605s3.41-13.209,3.41-13.209S1817.49,194.274,1817.49,194.274L1817.49,194.274z"
		/>
	<path d="M1566.655,358.709c87.362-4.413,174.724-8.166,262.143-11.137c0,0,0.255,6.995,0.255,6.995
		c-87.334,3.498-174.667,7.781-261.926,12.72C1567.127,367.288,1566.655,358.709,1566.655,358.709L1566.655,358.709z"/>
	<path d="M1478.202,41.717c0.067,6.338,0.229,21.456,0.293,27.518c0.053,2.624-0.037,6.266,0.286,8.76
		c1.533,10.092,4.224,25.767,5.865,36.007c2.875,17.427,5.904,36.815,8.735,54.355c0,0,1.45,9.06,1.45,9.06
		c0.204,1.493,0.592,3.266,0.695,4.878c0.226,2.707-0.091,5.457-0.764,8.086c-8.08,34.863-16.957,70.117-26.143,104.676
		c-3.18,11.821-6.387,23.625-9.652,35.432c0,0-6.764-1.804-6.764-1.804c10.701-42.555,22.742-90.725,32.683-133.519
		c0.365-1.555,1.187-5.21,1.534-6.694c0.943-3.36,0.604-6.179-0.036-9.745c0,0-1.413-9.061-1.413-9.061
		c-4.169-26.618-8.57-54.934-12.576-81.569c-0.363-2.552-1.081-6.707-1.352-9.291c-0.325-2.997-0.132-6.608-0.134-9.572
		c0.059-6.118,0.231-21.285,0.293-27.518C1471.202,41.717,1478.202,41.717,1478.202,41.717L1478.202,41.717z"/>
	<path d="M438.417,201.902c13.926,5.568,38.092,2.257,52.207-2.732c24.557-9.305,47.708-22.041,71.302-33.633
		c59.081-29.919,118.903-58.609,180.198-83.773c0,0,0.656-0.273,0.656-0.273l0.164-0.068c0.17-0.106,0.385-0.178,0.507-0.333
		c0.612-0.521,0.545-1.834-0.079-2.231c-0.296-0.196-0.432-0.243-0.883-0.398c-4.497-1.539-9.287-2.927-13.868-3.9
		c0,0,1.358-6.792,1.358-6.792c4.871,1.025,9.446,2.293,14.104,3.843c1.201,0.388,2.544,0.885,3.598,1.721
		c4.968,3.744,3.986,12.066-1.777,14.486c0,0-0.259,0.124-0.259,0.124s-0.163,0.069-0.163,0.069s-0.652,0.275-0.652,0.275
		c-75.157,30.948-147.332,68.276-219.876,104.818c-10.306,4.989-20.677,10-31.51,13.958c-3.625,1.344-7.618,2.529-11.423,3.284
		c-14.966,3.078-33.143,5.264-47.644-0.796C434.375,209.55,438.417,201.902,438.417,201.902L438.417,201.902z"/>
	<path d="M1073.645,5.041c-8.525,41.359-15.883,82.944-23.313,124.535c-7.884,41.522-15.28,83-21.216,124.821
		c-12.014,83.544-19.765,167.758-26.379,251.898c0,0-6.982-0.495-6.982-0.495c5.612-84.426,12.99-168.808,24.959-252.608
		c7.086-52.085,17.669-104.625,27.221-156.295c5.786-31.225,12.039-62.305,18.87-93.337
		C1066.803,3.56,1073.645,5.041,1073.645,5.041L1073.645,5.041z"/>
	<path style="stroke:#000000;stroke-linejoin:round;stroke-miterlimit:10;" d="M1271.298,454.166"/>
	<path d="M581.461,238.318c-1.928,8.71-4.281,17.083-7.086,25.466c-2.495,8.089-6.641,15.708-8.41,24.026
		c-1.875,6.922-1.363,17.745-1.44,24.914c0.062,24.56-0.105,113.876-0.064,139.421c-0.654,12.525,7.34,24.536,19.465,28.143
		c3.66,1.211,7.566,1.375,11.405,1.14c24.767-1.125,115.868-5.34,142.512-6.555c68.867-3.135,444.851-20.486,505.27-23.241
		c3.82-0.18,8.128-0.21,11.773-1.542c7.196-2.333,13.253-7.91,16.113-14.899c2.053-5.831,4.337-12.44,6.805-18.249
		c0,0,2.654-6.049,2.654-6.049c9.201-20.014,21.564-38.519,36.449-54.746c70.561-77.508,191.474-90.163,276.315-28.451
		c19.665,14.003,36.578,31.636,50.591,51.247c7.938,10.248,21.033,16.051,33.957,15.473c55.572-2.441,141.558-6.264,197.579-8.735
		c0,0,0.312,6.993,0.312,6.993c-55.18,2.499-140.295,6.329-194.342,8.775c-15.089,1.418-30.667-4.03-40.917-15.362
		c-0.754-0.894-1.563-1.745-2.265-2.682c0,0-3.971-5.265-3.971-5.265c-12.59-17.081-27.958-32.154-45.188-44.522
		c-79.677-58.015-193.773-47.84-262.116,23.041c-16.327,16.677-29.74,36.2-39.477,57.407c-1.525,3.501-3.619,8.222-4.904,11.743
		c-1.729,4.218-2.7,7.843-4.415,12.292c-1.887,4.496-4.701,8.612-8.295,11.907c-6.194,5.828-14.593,9.001-23.064,9.143
		c-61.375,2.846-439.338,20.638-508.488,23.858c-25.949,1.159-117.28,5.545-142.505,6.686c-14.613,1.452-29.576-6.653-35.896-20.014
		c-2.704-5.416-3.806-11.521-3.686-17.537c0,0-0.002-3.242-0.002-3.242c-0.034-32.241-0.053-118.004-0.055-149.215
		c0.106-6.915,1.283-13.788,3.415-20.355c2.095-6.188,4.865-12.011,6.824-18.26c2.68-8.015,4.996-16.319,6.797-24.494
		C573.114,236.578,581.461,238.318,581.461,238.318L581.461,238.318z"/>
	<path style="stroke:#000000;stroke-width:7;stroke-linejoin:round;stroke-miterlimit:10;" d="M1424.162,191.75"/>
	<path style="stroke:#000000;stroke-width:7;stroke-linejoin:round;stroke-miterlimit:10;" d="M1369.161,54.038"/>
	<path d="M1369.835,50.603c21.368,3.819,42.388,16.123,51.356,36.696c4.567,9.987,5.883,20.927,6.283,31.707
		c0.502,10.402,0.796,20.816,0.957,31.223c0.209,13.882,0.202,27.72-0.07,41.638c0,0-8.399-0.235-8.399-0.235
		c0.579-27.398,0.948-55.022-0.902-82.388c-2.511-29.057-22.942-46.394-50.573-51.771
		C1368.487,57.472,1369.835,50.603,1369.835,50.603L1369.835,50.603z"/>
	<path d="M1762.407,225.068c-66.051-8.053-132.677-12.568-199.231-12.768c-18.541,0.091-37.378,0.554-55.877,1.598
		c-85.18,4.667-170.122,14.98-254.473,27.672c-1.035,0.169-2.012-0.54-2.171-1.577c-0.158-1.025,0.541-1.984,1.562-2.151
		c42.213-6.9,84.542-12.815,126.988-18.01c55.706-6.719,111.717-12.23,167.864-13.923c29.405-0.765,58.952-0.258,88.326,0.915
		c42.816,1.774,85.519,4.821,128.106,9.749C1768.974,217.358,1768.282,225.618,1762.407,225.068L1762.407,225.068z"/>
	<g>
		<path d="M367.298,629.666c-78.575,0-142.5-63.925-142.5-142.5s63.925-142.5,142.5-142.5s142.5,63.925,142.5,142.5
			S445.873,629.666,367.298,629.666z M367.298,351.666c-74.715,0-135.5,60.785-135.5,135.5s60.785,135.5,135.5,135.5
			s135.5-60.785,135.5-135.5S442.013,351.666,367.298,351.666z"/>
		<path d="M367.298,604.666c-64.79,0-117.5-52.71-117.5-117.5s52.71-117.5,117.5-117.5s117.5,52.71,117.5,117.5
			S432.088,604.666,367.298,604.666z M367.298,376.666c-60.93,0-110.5,49.57-110.5,110.5s49.57,110.5,110.5,110.5
			s110.5-49.57,110.5-110.5S428.228,376.666,367.298,376.666z"/>
		<path d="M386.989,402.918c-11.413-2.652-23.571-2.95-34.92-0.909l-1.062-5.906c12.148-2.183,25.137-1.864,37.34,0.972
			L386.989,402.918z"/>
		<path d="M453.489,479.846c-0.986-11.812-4.319-23.076-9.903-33.481l5.286-2.838c5.976,11.134,9.541,23.185,10.597,35.819
			L453.489,479.846z"/>
		<path d="M403.225,572.43l-2.334-5.527c10.893-4.599,20.573-11.262,28.772-19.804l4.329,4.154
			C425.225,560.388,414.874,567.512,403.225,572.43z"/>
		<path d="M326.948,570.415c-11.37-5.52-21.332-13.173-29.609-22.747l4.539-3.924c7.741,8.954,17.058,16.111,27.69,21.272
			L326.948,570.415z"/>
		<path d="M281.612,475.338l-5.946-0.805c1.696-12.536,5.891-24.387,12.467-35.225l5.129,3.113
			C287.117,452.55,283.197,463.624,281.612,475.338z"/>
		<path d="M307.493,424.673l-4.148-4.334c7.561-7.237,16.198-13.089,25.673-17.395l2.482,5.463
			C322.641,412.433,314.564,417.906,307.493,424.673z"/>
		<path d="M283.968,527.343c-4.543-9.383-7.434-19.407-8.591-29.795l5.963-0.664c1.082,9.708,3.783,19.076,8.029,27.844
			L283.968,527.343z"/>
		<path d="M367.298,579.666c-6.239,0-12.473-0.626-18.529-1.861l1.199-5.879c9.487,1.933,19.583,2.245,28.983,0.957l0.814,5.945
			C375.707,579.384,371.513,579.666,367.298,579.666z"/>
		<path d="M447.777,532.797l-5.217-2.963c4.826-8.496,8.145-17.667,9.866-27.258l5.905,1.059
			C456.49,513.897,452.939,523.708,447.777,532.797z"/>
		<path d="M431.123,428.789c-6.587-7.212-14.281-13.211-22.867-17.832l2.844-5.283c9.182,4.941,17.41,11.357,24.453,19.068
			L431.123,428.789z"/>
		<path d="M367.298,520.666c-2.36,0-4.703-0.245-6.961-0.728l1.463-6.846c3.621,0.775,7.573,0.764,11.178-0.051l1.542,6.828
			C372.181,520.399,369.751,520.666,367.298,520.666z"/>
		<path d="M386.967,469.426c-2.481-2.78-5.613-5.042-9.056-6.541l2.795-6.418c4.363,1.899,8.334,4.77,11.484,8.299L386.967,469.426z
			"/>
		<path d="M347.492,469.574l-5.246-4.635c3.146-3.561,7.096-6.456,11.426-8.373l2.834,6.4
			C353.091,464.478,349.974,466.763,347.492,469.574z"/>
		<path d="M396.304,503.915l-6.051-3.52c1.905-3.274,3.057-6.856,3.421-10.646l6.968,0.672
			C400.18,495.223,398.72,499.763,396.304,503.915z"/>
		<path d="M338.426,504.128c-2.445-4.133-3.942-8.656-4.448-13.444l6.961-0.736c0.4,3.782,1.582,7.354,3.512,10.616L338.426,504.128
			z"/>
		<polygon points="326.889,480.436 326.889,480.426 332.889,480.426 		"/>
		<polygon points="401.708,480.436 401.708,480.426 407.708,480.426 		"/>
		<path d="M349.099,374.379c5.09,22.339,11.16,47.831,16.566,69.994c0,0,0.604,2.497,0.604,2.497
			c0.114,0.421,0.202,1.027,0.481,1.372c0.549,0.876,1.829,0.944,2.726,1.209c0.576,0.145,0.425,0.097,0.517,0.108
			c0.152-0.004,0.312-0.112,0.361-0.251c0,0,1.322-4.601,1.322-4.601c6.142-21.38,13.602-47.75,19.436-69.252
			c0,0,6.725,1.943,6.725,1.943c-6.831,22.251-14.733,49.108-21.221,71.41c-0.117,0.359-0.426,1.49-0.54,1.849
			c-0.478,1.887-1.86,3.523-3.658,4.257c-1.15,0.617-3.378,0.564-4.358,0.199c-0.943-0.271-2.127-0.454-3-0.903
			c-2.379-1.08-4.031-3.407-4.495-5.946c0,0-0.617-2.493-0.617-2.493c-3.805-15.442-8.519-34.317-12.483-49.837
			c0,0-5.165-19.893-5.165-19.893S349.099,374.379,349.099,374.379L349.099,374.379z"/>
		<path d="M323.204,381.941c9.094,20.506,21.718,48.435,31.052,68.828c0,0,2.614,5.724,2.614,5.724l1.306,2.858
			c1.471,3.28,4.352,5.001,7.804,5.929c0.529,0.175,3.257,1.08,3.733,1.237c0.982,0.377,2.111-0.016,2.636-0.935
			c0,0,0.798-1.355,0.798-1.355c9.855-16.692,23.614-40.176,33.41-56.999c0,0,12.593-21.794,12.593-21.794s6.025,3.564,6.025,3.564
			l-13.036,21.532c-9.378,15.575-23.015,38.459-32.258,54.026c0,0-1.607,2.705-1.607,2.705c-2.193,4.477-6.421,6.512-11.18,4.627
			c-1.993-0.749-4.098-1.267-6.188-2.129c-3.569-1.512-6.516-4.397-8.141-7.913c0,0-1.321-2.86-1.321-2.86
			c-6.488-14.068-17.257-37.301-23.85-51.364c0,0-10.753-22.758-10.753-22.758S323.204,381.941,323.204,381.941L323.204,381.941z"/>
		<path d="M254.408,469.622c22.818,2.062,48.939,4.167,71.688,5.874c0,0,2.561,0.197,2.561,0.197
			c0.435,0.021,1.039,0.126,1.454-0.033c1.001-0.249,1.464-1.45,1.992-2.219c0.316-0.504,0.224-0.374,0.263-0.458
			c0.044-0.145-0.01-0.332-0.127-0.42c0,0-3.967-2.679-3.967-2.679c-18.435-12.448-41.21-27.692-59.857-39.885
			c0,0,3.926-5.795,3.926-5.795s16.855,11.76,16.855,11.76c13.098,9.067,31.395,21.569,44.503,30.489
			c0.305,0.222,1.285,0.866,1.592,1.085c3.068,1.82,3.825,6.275,1.761,9.002c-0.135,0.216-0.735,1.176-0.855,1.368
			c-1.635,2.684-4.898,4.084-7.975,3.644c-16.83-1.22-36.867-2.626-53.817-3.712c0,0-20.515-1.235-20.515-1.235L254.408,469.622
			L254.408,469.622z"/>
		<path d="M253.597,496.585c22.313-2.313,52.776-5.688,75.055-8.263c0,0,6.251-0.717,6.251-0.717l3.121-0.359
			c3.574-0.385,6.101-2.593,8.051-5.59c0.33-0.45,2.033-2.764,2.33-3.168c0.662-0.818,0.637-2.012-0.075-2.796
			c0,0-1.042-1.178-1.042-1.178c-12.83-14.531-30.913-34.874-43.885-49.389c0,0-16.836-18.711-16.836-18.711
			s5.251-4.629,5.251-4.629l16.45,19.052c11.915,13.732,29.465,33.773,41.413,47.374c0,0,2.076,2.364,2.076,2.364
			c3.58,3.469,4.209,8.119,0.946,12.063c-1.328,1.664-2.471,3.506-3.937,5.227c-2.54,2.927-6.195,4.838-10.041,5.297
			c0,0-3.128,0.373-3.128,0.373c-15.384,1.823-40.808,4.886-56.22,6.81c0,0-24.967,3.194-24.967,3.194L253.597,496.585
			L253.597,496.585z"/>
		<path d="M315.727,589.11c9.383-21.923,19.706-46.767,28.717-68.739c0.451-0.9,0.652-1.913-0.052-2.747
			c-0.237-0.274-1.211-1.483-1.38-1.618c-0.125-0.086-0.319-0.093-0.439-0.009c0,0-3.774,2.945-3.774,2.945l-8.094,6.33
			c-14.42,11.272-34.077,26.797-48.336,38.272c0,0-4.298-5.525-4.298-5.525l16.393-12.396c12.671-9.655,30.215-23.193,42.749-32.903
			c0.306-0.222,1.221-0.955,1.524-1.179c1.496-1.246,3.576-1.757,5.462-1.294c1.293,0.177,3.065,1.529,3.643,2.401
			c0.604,0.773,1.453,1.617,1.897,2.494c1.29,2.272,1.259,5.126,0.141,7.453c0,0-0.966,2.38-0.966,2.38
			c-5.998,14.729-13.279,32.77-19.195,47.656c0,0-7.514,19.129-7.514,19.129S315.727,589.11,315.727,589.11L315.727,589.11z"/>
		<path d="M341.121,598.213c4.696-21.935,10.899-51.951,15.334-73.936c0,0,1.249-6.167,1.249-6.167s0.623-3.079,0.623-3.079
			c0.738-3.518-0.581-6.603-2.829-9.384c-0.326-0.453-2.001-2.788-2.293-3.195c-0.573-0.882-1.717-1.228-2.682-0.793
			c0,0-1.443,0.627-1.443,0.627c-17.785,7.711-42.719,18.623-60.533,26.476c0,0-22.998,10.23-22.998,10.23l-2.779-6.425
			l23.202-9.757c16.742-7.089,41.226-17.586,57.853-24.747c0,0,2.89-1.244,2.89-1.244c4.405-2.333,9.022-1.494,11.765,2.828
			c1.172,1.777,2.57,3.433,3.755,5.359c1.999,3.321,2.687,7.387,1.935,11.187c0,0-0.612,3.09-0.612,3.09
			c-3.02,15.195-7.963,40.321-10.896,55.573c0,0-4.678,24.732-4.678,24.732S341.121,598.213,341.121,598.213L341.121,598.213z"/>
		<path d="M448.316,567.715c-17.248-15.081-37.143-32.137-54.544-46.889c0,0-1.957-1.665-1.957-1.665
			c-0.339-0.273-0.767-0.712-1.195-0.828c-0.953-0.388-2.04,0.314-2.916,0.624c-0.551,0.222-0.401,0.171-0.482,0.216
			c-0.121,0.092-0.187,0.274-0.145,0.415c0,0,1.635,4.499,1.635,4.499c7.598,20.907,17.063,46.626,24.981,67.451
			c0,0-6.583,2.38-6.583,2.38c-7.552-22.017-16.945-48.389-24.806-70.245c-0.117-0.359-0.531-1.456-0.651-1.813
			c-0.723-1.808-0.566-3.944,0.457-5.595c0.568-1.175,2.401-2.442,3.409-2.723c0.922-0.335,1.987-0.883,2.958-1.033
			c2.559-0.524,5.264,0.387,7.132,2.169c0,0,1.965,1.654,1.965,1.654c12.155,10.256,27.063,22.756,39.392,32.982
			c0,0,15.871,13.057,15.871,13.057S448.316,567.715,448.316,567.715L448.316,567.715z"/>
		<path d="M464.821,546.377c-19.411-11.244-46.04-26.419-65.578-37.431c0,0-5.479-3.094-5.479-3.094l-2.736-1.544
			c-3.118-1.789-6.46-1.488-9.799-0.209c-0.531,0.17-3.27,1.041-3.747,1.194c-1.016,0.272-1.699,1.253-1.583,2.306
			c0,0,0.151,1.566,0.151,1.566c1.838,19.297,4.511,46.384,6.474,65.751c0,0,2.622,25.033,2.622,25.033s-6.969,0.658-6.969,0.658
			l-2.11-25.082c-1.568-18.113-3.986-44.642-5.658-62.668c0,0-0.29-3.133-0.29-3.133c-0.858-4.911,1.367-9.043,6.325-10.315
			c2.052-0.565,4.06-1.384,6.257-1.915c3.776-0.875,7.856-0.273,11.237,1.616c0,0,2.75,1.537,2.75,1.537
			c13.518,7.567,35.886,20.033,49.486,27.536c0,0,22.076,12.091,22.076,12.091S464.821,546.377,464.821,546.377L464.821,546.377z"/>
		<path d="M468.941,435.004c-19.673,11.744-42.042,25.395-61.449,37.385c0,0-2.188,1.346-2.188,1.346
			c-0.365,0.238-0.914,0.509-1.157,0.881c-0.664,0.793-0.332,2.031-0.307,2.966c0.041,0.593,0.039,0.434,0.057,0.526
			c0.05,0.143,0.203,0.263,0.35,0.266c0,0,4.784-0.165,4.784-0.165c22.231-0.765,49.616-1.82,71.869-2.915
			c0,0,0.23,6.996,0.23,6.996l-20.548,0.393c-15.926,0.364-38.077,1.004-53.924,1.492c-0.378,0-1.549,0.055-1.926,0.058
			c-3.578,0.313-6.764-2.802-6.716-6.247c0,0-0.09-1.281-0.09-1.281c-0.383-3.236,1.429-6.46,4.287-7.964
			c14.333-8.906,31.369-19.545,45.721-28.63c0,0,17.323-11.059,17.323-11.059L468.941,435.004L468.941,435.004z"/>
		<path d="M453.748,412.714c-16.692,14.986-39.353,35.623-55.864,50.802c0,0-4.636,4.255-4.636,4.255s-2.314,2.125-2.314,2.125
			c-2.665,2.413-3.411,5.684-3.227,9.255c-0.003,0.558-0.02,3.432-0.022,3.933c-0.055,1.051,0.667,2.003,1.704,2.218
			c0,0,1.536,0.34,1.536,0.34c18.921,4.215,45.507,10.043,64.534,14.161c0,0,24.618,5.242,24.618,5.242s-1.528,6.831-1.528,6.831
			s-24.506-5.744-24.506-5.744c-17.711-4.106-43.689-10.004-61.35-13.984c0,0-3.069-0.692-3.069-0.692
			c-4.935-0.702-8.177-4.094-7.856-9.203c0.096-2.126-0.062-4.288,0.112-6.542c0.335-3.861,2.168-7.556,5.01-10.188
			c0,0,2.312-2.14,2.312-2.14c11.374-10.518,30.142-27.939,41.48-38.555c0,0,18.322-17.259,18.322-17.259
			S453.748,412.714,453.748,412.714L453.748,412.714z"/>
	</g>
	<g>
		<path d="M1468.299,629.666c-78.575,0-142.5-63.925-142.5-142.5s63.925-142.5,142.5-142.5s142.5,63.925,142.5,142.5
			S1546.874,629.666,1468.299,629.666z M1468.299,351.666c-74.715,0-135.5,60.785-135.5,135.5s60.785,135.5,135.5,135.5
			s135.5-60.785,135.5-135.5S1543.014,351.666,1468.299,351.666z"/>
		<path d="M1468.299,604.666c-64.79,0-117.5-52.71-117.5-117.5s52.71-117.5,117.5-117.5s117.5,52.71,117.5,117.5
			S1533.089,604.666,1468.299,604.666z M1468.299,376.666c-60.93,0-110.5,49.57-110.5,110.5s49.57,110.5,110.5,110.5
			s110.5-49.57,110.5-110.5S1529.228,376.666,1468.299,376.666z"/>
		<path d="M1487.988,402.918c-11.411-2.653-23.568-2.95-34.92-0.909l-1.061-5.906c12.148-2.183,25.138-1.864,37.34,0.972
			L1487.988,402.918z"/>
		<path d="M1554.489,479.846c-0.987-11.812-4.319-23.076-9.904-33.481l5.287-2.838c5.976,11.134,9.541,23.185,10.596,35.819
			L1554.489,479.846z"/>
		<path d="M1504.225,572.43l-2.334-5.527c10.894-4.6,20.574-11.262,28.772-19.804l4.328,4.154
			C1526.226,560.387,1515.875,567.512,1504.225,572.43z"/>
		<path d="M1427.948,570.415c-11.37-5.521-21.332-13.173-29.609-22.747l4.539-3.924c7.741,8.954,17.058,16.111,27.691,21.272
			L1427.948,570.415z"/>
		<path d="M1382.611,475.338l-5.945-0.805c1.696-12.535,5.891-24.386,12.468-35.225l5.129,3.113
			C1388.117,452.551,1384.196,463.625,1382.611,475.338z"/>
		<path d="M1408.492,424.673l-4.148-4.334c7.562-7.237,16.2-13.09,25.674-17.395l2.482,5.463
			C1423.642,412.432,1415.565,417.905,1408.492,424.673z"/>
		<path d="M1384.968,527.343c-4.543-9.383-7.434-19.407-8.591-29.795l5.963-0.664c1.082,9.708,3.783,19.076,8.028,27.844
			L1384.968,527.343z"/>
		<path d="M1468.299,579.666c-6.239,0-12.474-0.626-18.53-1.861l1.199-5.879c9.488,1.935,19.582,2.245,28.983,0.957l0.814,5.945
			C1476.707,579.384,1472.513,579.666,1468.299,579.666z"/>
		<path d="M1548.776,532.797l-5.217-2.963c4.826-8.496,8.146-17.667,9.866-27.259l5.906,1.061
			C1557.49,513.898,1553.938,523.709,1548.776,532.797z"/>
		<path d="M1532.124,428.789c-6.588-7.211-14.281-13.211-22.867-17.832l2.844-5.283c9.182,4.941,17.408,11.357,24.453,19.068
			L1532.124,428.789z"/>
		<path d="M1468.299,520.666c-2.361,0-4.703-0.245-6.962-0.728l1.463-6.846c3.62,0.775,7.571,0.764,11.178-0.051l1.541,6.828
			C1473.181,520.399,1470.751,520.666,1468.299,520.666z"/>
		<path d="M1487.967,469.426c-2.48-2.78-5.611-5.042-9.056-6.541l2.795-6.418c4.364,1.9,8.335,4.77,11.483,8.299L1487.967,469.426z"
			/>
		<path d="M1448.491,469.574l-5.246-4.635c3.147-3.562,7.099-6.457,11.427-8.373l2.834,6.4
			C1454.093,464.478,1450.975,466.762,1448.491,469.574z"/>
		<path d="M1497.304,503.916l-6.051-3.521c1.905-3.273,3.057-6.854,3.422-10.645l6.967,0.672
			C1501.18,495.224,1499.72,499.764,1497.304,503.916z"/>
		<path d="M1439.427,504.128c-2.446-4.134-3.943-8.657-4.449-13.444l6.961-0.736c0.4,3.781,1.581,7.354,3.512,10.616
			L1439.427,504.128z"/>
		<polygon points="1427.889,480.436 1427.889,480.426 1433.889,480.426 		"/>
		<polygon points="1502.708,480.436 1502.708,480.426 1508.708,480.426 		"/>
		<path d="M1450.099,374.379c5.09,22.339,11.16,47.831,16.566,69.994c0,0,0.605,2.497,0.605,2.497
			c0.114,0.421,0.202,1.027,0.48,1.372c0.55,0.876,1.829,0.944,2.726,1.209c0.576,0.145,0.425,0.097,0.517,0.108
			c0.152-0.004,0.312-0.112,0.361-0.251c0,0,1.322-4.601,1.322-4.601c6.142-21.38,13.602-47.75,19.436-69.252
			c0,0,6.725,1.943,6.725,1.943l-5.976,19.664c-4.576,15.259-10.812,36.524-15.244,51.746c-0.117,0.359-0.426,1.49-0.54,1.849
			c-0.478,1.887-1.86,3.523-3.658,4.257c-1.15,0.617-3.378,0.564-4.358,0.199c-0.943-0.271-2.126-0.454-3-0.903
			c-2.379-1.08-4.031-3.407-4.495-5.946c0,0-0.617-2.493-0.617-2.493c-3.806-15.442-8.519-34.317-12.483-49.837
			c0,0-5.165-19.893-5.165-19.893S1450.099,374.379,1450.099,374.379L1450.099,374.379z"/>
		<path d="M1424.204,381.941c9.094,20.506,21.718,48.435,31.052,68.828c0,0,2.614,5.724,2.614,5.724l1.306,2.858
			c1.471,3.28,4.352,5.001,7.804,5.929c0.53,0.175,3.257,1.08,3.733,1.237c0.982,0.377,2.111-0.016,2.635-0.935
			c0,0,0.798-1.355,0.798-1.355c9.855-16.692,23.614-40.176,33.41-56.999c0,0,12.593-21.794,12.593-21.794s6.025,3.564,6.025,3.564
			s-13.036,21.532-13.036,21.532c-9.378,15.575-23.015,38.459-32.258,54.026c0,0-1.607,2.705-1.607,2.705
			c-2.193,4.477-6.421,6.512-11.18,4.627c-1.993-0.749-4.098-1.267-6.188-2.129c-3.569-1.512-6.516-4.397-8.141-7.913
			c0,0-1.321-2.86-1.321-2.86c-6.488-14.068-17.257-37.301-23.85-51.364c0,0-10.753-22.758-10.753-22.758L1424.204,381.941
			L1424.204,381.941z"/>
		<path d="M1355.408,469.622c23.749,2.15,50.568,4.29,74.249,6.07c0.995,0.151,2.02,0.029,2.597-0.898
			c0.187-0.31,1.036-1.61,1.112-1.812c0.043-0.145-0.01-0.332-0.127-0.42c0,0-3.967-2.679-3.967-2.679l-8.521-5.742
			c-15.176-10.231-36.016-24.129-51.335-34.143c0,0,3.926-5.795,3.926-5.795s16.855,11.76,16.855,11.76
			c13.098,9.067,31.395,21.569,44.503,30.489c0.305,0.222,1.286,0.866,1.592,1.085c3.068,1.82,3.825,6.275,1.761,9.002
			c-0.135,0.216-0.735,1.176-0.854,1.368c-1.635,2.684-4.898,4.084-7.975,3.644c-16.83-1.22-36.867-2.626-53.817-3.712
			c0,0-20.515-1.235-20.515-1.235S1355.408,469.622,1355.408,469.622L1355.408,469.622z"/>
		<path d="M1354.597,496.585c22.313-2.313,52.776-5.688,75.055-8.263c0,0,6.251-0.717,6.251-0.717s3.121-0.359,3.121-0.359
			c3.574-0.385,6.101-2.593,8.051-5.59c0.33-0.45,2.034-2.764,2.33-3.168c0.662-0.818,0.637-2.012-0.075-2.796
			c0,0-1.042-1.178-1.042-1.178c-12.83-14.531-30.913-34.874-43.885-49.389c0,0-16.836-18.711-16.836-18.711
			s5.251-4.629,5.251-4.629l16.45,19.052c11.915,13.732,29.465,33.773,41.413,47.374c0,0,2.076,2.364,2.076,2.364
			c3.58,3.469,4.209,8.119,0.946,12.063c-1.328,1.664-2.471,3.506-3.937,5.227c-2.541,2.927-6.195,4.838-10.041,5.297
			c0,0-3.128,0.373-3.128,0.373c-15.384,1.823-40.808,4.886-56.22,6.81c0,0-24.967,3.194-24.967,3.194
			S1354.597,496.585,1354.597,496.585L1354.597,496.585z"/>
		<path d="M1416.727,589.11c9.013-21.064,19.086-45.256,27.739-66.364c0,0,0.978-2.375,0.978-2.375
			c0.155-0.407,0.44-0.949,0.418-1.393c0.07-1.032-0.925-1.838-1.495-2.581c-0.381-0.456-0.286-0.328-0.355-0.392
			c-0.125-0.086-0.319-0.093-0.439-0.009c0,0-3.774,2.945-3.774,2.945c-17.536,13.686-39.071,30.636-56.43,44.602
			c0,0-4.298-5.525-4.298-5.525l16.393-12.396c12.671-9.655,30.215-23.193,42.749-32.903c0.306-0.222,1.221-0.955,1.524-1.179
			c1.496-1.246,3.576-1.757,5.462-1.294c1.292,0.177,3.065,1.529,3.643,2.401c0.604,0.773,1.453,1.617,1.897,2.494
			c1.29,2.272,1.258,5.126,0.141,7.453c0,0-0.966,2.38-0.966,2.38c-5.998,14.729-13.279,32.77-19.195,47.656
			c0,0-7.514,19.129-7.514,19.129S1416.727,589.11,1416.727,589.11L1416.727,589.11z"/>
		<path d="M1442.121,598.213c4.696-21.935,10.899-51.951,15.334-73.936c0,0,1.25-6.167,1.25-6.167s0.623-3.079,0.623-3.079
			c0.738-3.518-0.581-6.603-2.829-9.384c-0.326-0.453-2.001-2.788-2.293-3.195c-0.573-0.882-1.717-1.228-2.682-0.793
			c0,0-1.443,0.627-1.443,0.627c-17.785,7.711-42.719,18.623-60.533,26.476c0,0-22.998,10.23-22.998,10.23s-2.779-6.425-2.779-6.425
			s23.202-9.757,23.202-9.757c16.742-7.089,41.226-17.586,57.853-24.747c0,0,2.89-1.244,2.89-1.244
			c4.405-2.333,9.022-1.494,11.765,2.828c1.172,1.777,2.57,3.433,3.755,5.359c1.998,3.321,2.687,7.387,1.935,11.187
			c0,0-0.613,3.09-0.613,3.09c-3.02,15.195-7.963,40.321-10.896,55.573c0,0-4.678,24.732-4.678,24.732
			S1442.121,598.213,1442.121,598.213L1442.121,598.213z"/>
		<path d="M1549.316,567.715c-17.248-15.081-37.143-32.137-54.544-46.889c0,0-1.956-1.665-1.956-1.665
			c-0.339-0.273-0.767-0.712-1.195-0.828c-0.953-0.388-2.04,0.314-2.916,0.624c-0.551,0.222-0.401,0.171-0.482,0.216
			c-0.12,0.092-0.187,0.274-0.145,0.415c0,0,1.635,4.499,1.635,4.499c7.598,20.907,17.063,46.626,24.981,67.451
			c0,0-6.583,2.38-6.583,2.38l-6.723-19.421c-5.267-15.034-12.721-35.904-18.083-50.824c-0.117-0.359-0.531-1.456-0.651-1.813
			c-0.722-1.808-0.566-3.944,0.457-5.595c0.568-1.175,2.401-2.442,3.409-2.723c0.922-0.335,1.987-0.883,2.958-1.033
			c2.559-0.524,5.264,0.387,7.132,2.169c0,0,1.965,1.654,1.965,1.654c12.155,10.256,27.063,22.756,39.392,32.982
			c0,0,15.871,13.057,15.871,13.057L1549.316,567.715L1549.316,567.715z"/>
		<path d="M1565.821,546.377c-19.411-11.244-46.04-26.419-65.578-37.431c0,0-5.479-3.094-5.479-3.094l-2.736-1.544
			c-3.118-1.789-6.46-1.488-9.799-0.209c-0.531,0.17-3.27,1.041-3.747,1.194c-1.016,0.272-1.698,1.253-1.583,2.306
			c0,0,0.151,1.566,0.151,1.566c1.838,19.297,4.511,46.383,6.474,65.751c0,0,2.622,25.033,2.622,25.033l-6.969,0.658
			c0,0-2.11-25.082-2.11-25.082c-1.568-18.113-3.986-44.642-5.658-62.668c0,0-0.29-3.133-0.29-3.133
			c-0.858-4.911,1.367-9.043,6.325-10.315c2.052-0.565,4.06-1.384,6.257-1.915c3.776-0.875,7.856-0.273,11.237,1.616
			c0,0,2.75,1.537,2.75,1.537c13.518,7.567,35.886,20.033,49.486,27.536c0,0,22.076,12.091,22.076,12.091
			S1565.821,546.377,1565.821,546.377L1565.821,546.377z"/>
		<path d="M1569.941,435.004c-19.673,11.744-42.042,25.395-61.449,37.385c0,0-2.188,1.346-2.188,1.346
			c-0.365,0.238-0.914,0.509-1.157,0.881c-0.664,0.793-0.332,2.031-0.307,2.966c0.041,0.593,0.039,0.434,0.057,0.526
			c0.05,0.143,0.203,0.263,0.35,0.266c0,0,4.784-0.165,4.784-0.165c22.231-0.765,49.616-1.82,71.869-2.915
			c0,0,0.23,6.996,0.23,6.996l-20.548,0.393c-15.926,0.364-38.077,1.004-53.924,1.492c-0.378,0-1.549,0.055-1.926,0.058
			c-3.578,0.313-6.764-2.802-6.716-6.247c0,0-0.089-1.281-0.089-1.281c-0.383-3.236,1.429-6.461,4.287-7.964
			c14.333-8.906,31.369-19.545,45.721-28.63c0,0,17.323-11.059,17.323-11.059L1569.941,435.004L1569.941,435.004z"/>
		<path d="M1554.748,412.714c-16.692,14.986-39.353,35.623-55.864,50.802c0,0-4.636,4.255-4.636,4.255l-2.314,2.125
			c-2.665,2.413-3.411,5.684-3.227,9.255c-0.003,0.558-0.02,3.432-0.023,3.933c-0.055,1.051,0.667,2.003,1.704,2.218
			c0,0,1.536,0.34,1.536,0.34c18.921,4.215,45.507,10.043,64.534,14.161c0,0,24.618,5.242,24.618,5.242s-1.528,6.831-1.528,6.831
			s-24.506-5.744-24.506-5.744c-17.711-4.106-43.689-10.004-61.35-13.984c0,0-3.069-0.692-3.069-0.692
			c-4.935-0.702-8.178-4.094-7.856-9.203c0.096-2.126-0.062-4.288,0.112-6.542c0.335-3.861,2.168-7.556,5.01-10.188
			c0,0,2.312-2.14,2.312-2.14c11.374-10.518,30.142-27.939,41.48-38.555c0,0,18.322-17.259,18.322-17.259L1554.748,412.714
			L1554.748,412.714z"/>
	</g>
</g>
</svg>
