<?xml version="1.0" encoding="iso-8859-1"?>
<!-- Generator: Adobe Illustrator 27.0.1, SVG Export Plug-In . SVG Version: 6.00 Build 0)  -->
<svg version="1.1" id="Tesla_Model_3" xmlns="http://www.w3.org/2000/svg" xmlns:xlink="http://www.w3.org/1999/xlink" x="0px"
	 y="0px" viewBox="0 0 1731.105 539.325" style="enable-background:new 0 0 1731.105 539.325;" xml:space="preserve">
<g>
	<path d="M137.891,476.347c-0.459,0-0.92-0.021-1.381-0.063c-45.421-4.18-83.5-10.697-107.447-15.429
		c-3.754-0.742-6.441-3.669-6.845-7.458c-0.403-3.777,1.681-7.331,5.185-8.845c8.435-3.643,9.183-8.6,9.013-12.012
		c-0.588-11.751-7.763-18.677-24.767-23.906c-3.856-1.186-7.123-3.921-8.961-7.505c-1.835-3.578-2.144-7.637-0.869-11.427
		c9.249-27.486,3.432-52.387-0.86-64.782c-2.407-6.953-0.178-14.769,5.546-19.447c34.695-28.363,92.874-55.922,177.862-84.251
		c64.362-21.454,168.99-28.278,199.524-29.859c4.166-0.215,8.263-1.455,11.849-3.583c55.655-33.043,240.429-117.468,314.659-141.568
		C779.206,23.872,892.398,0,1003.734,0c82.866,0,148.318,0,229.634,12.047c81.284,12.042,210.71,39.763,307.958,78.257
		c66.337,26.258,123.163,43.111,168.901,50.089c4.231,0.646,7.791,3.187,9.767,6.973c1.997,3.827,2.043,8.257,0.124,12.152
		c-8.654,17.581-5.565,37.475-2.953,47.769c0.822,3.241,0.119,6.609-1.93,9.242c-2.037,2.619-5.109,4.12-8.429,4.12h-1.479
		c3.329,50.256,15.78,83.731,23.049,99.441c3.117,6.741,3.581,14.315,1.307,21.33l-19.003,58.59
		c2.945,0.152,5.566,1.735,7.075,4.302c1.59,2.7,1.63,5.947,0.107,8.687l-15.457,27.824c-4.384,7.893-12.689,12.722-21.736,12.553
		c-12.666-0.209-32.461-0.331-54.817,0.271c-26.719,0.723-66.242,2.878-87.423,4.098c-4.151,0.238-8.253-1.258-11.27-4.107
		c-3.019-2.85-4.75-6.866-4.75-11.019v-25.803c0-39.12-15.416-76.019-43.409-103.899c-27.379-27.27-63.327-42.268-101.275-42.268
		c-0.193,0-0.383,0-0.576,0.001c-79.451,0.319-144.089,65.859-144.089,146.101v36.146c0,4.066-1.59,7.884-4.476,10.75
		c-2.862,2.841-6.65,4.401-10.679,4.401c-0.037,0-0.074,0-0.111,0c-407.312-2.935-711.062,4.812-767.817,6.396
		c-4.143,0.104-8.023-1.406-10.979-4.28c-2.959-2.878-4.588-6.736-4.588-10.865v-46.521c0-38.038-14.99-73.918-42.209-101.028
		c-26.623-26.516-61.576-41.099-98.474-41.099c-0.188,0-0.374,0-0.562,0.001c-77.254,0.31-140.104,64.038-140.104,142.062v48.482
		c0,4.248-1.801,8.327-4.941,11.191C145.317,474.941,141.652,476.347,137.891,476.347z M31.004,452.418
		c23.814,4.699,61.443,11.124,106.298,15.252c1.846,0.166,3.617-0.426,4.986-1.675c1.368-1.247,2.121-2.952,2.121-4.801v-48.482
		c0-82.773,66.716-150.382,148.721-150.711c0.197-0.001,0.399-0.001,0.597-0.001c39.205,0,76.32,15.475,104.577,43.62
		c28.861,28.746,44.756,66.802,44.756,107.157v46.521c0,1.772,0.699,3.429,1.968,4.664c1.268,1.231,2.938,1.888,4.708,1.835
		c56.781-1.585,360.665-9.335,768.121-6.399c0.016,0.001,0.032,0.001,0.048,0.001c1.729,0,3.355-0.671,4.585-1.891
		c1.238-1.229,1.92-2.867,1.92-4.611v-36.146c0-84.992,68.503-154.413,152.704-154.75c0.203-0.001,0.411-0.001,0.613-0.001
		c40.255,0,78.363,15.89,107.378,44.789c29.635,29.517,45.955,68.592,45.955,110.028v25.803c0,1.809,0.724,3.488,2.037,4.729
		c1.313,1.239,3.043,1.856,4.835,1.762c21.229-1.224,60.853-3.384,87.686-4.109c22.514-0.608,42.441-0.485,55.195-0.273
		c5.798,0.104,11.2-3.009,14.03-8.104l0.001-0.001l15.457-27.824c0.021-0.07-0.016-0.132-0.04-0.145l-11.476-0.004l22.669-69.896
		c1.601-4.936,1.271-10.273-0.93-15.03c-7.745-16.743-21.177-52.93-24.108-107.165l-0.247-4.559h10.638
		c0.864,0,1.375-0.49,1.602-0.782c0.234-0.3,0.593-0.934,0.372-1.804c-2.904-11.447-6.302-33.648,3.578-53.716
		c0.687-1.396,0.675-2.974-0.032-4.331c-0.687-1.315-1.927-2.198-3.403-2.424c-46.381-7.077-103.84-24.1-170.78-50.597
		c-96.562-38.223-225.214-65.769-306.042-77.743C1151.416,8.65,1086.244,8.65,1003.734,8.65
		c-110.326,0-222.486,23.653-290.665,45.789c-73.825,23.969-257.574,107.922-312.914,140.778
		c-4.787,2.842-10.257,4.497-15.818,4.785c-30.259,1.566-133.908,8.317-197.236,29.426
		c-83.973,27.991-141.255,55.056-175.123,82.742c-2.928,2.394-4.072,6.38-2.847,9.92c4.652,13.438,10.952,40.45,0.884,70.372
		c-0.525,1.559-0.395,3.234,0.367,4.719c0.792,1.542,2.144,2.674,3.808,3.186c13.843,4.257,29.862,11.712,30.863,31.742
		C45.37,438.438,43.183,447.085,31.004,452.418z"/>
	<path d="M494.63,198.719c185.431-5.686,371.788-12.832,556.892-26.606c69.504-4.966,138.996-10.152,208.309-17.186
		c45.773-5.112,92.472-9.653,136.75-22.058c20.636-5.948,39.542-16.495,57.208-28.53c0,0,1.797-1.203,1.797-1.203l0.899-0.602
		c0.123-0.084,0.359-0.237,0.39-0.265c-0.248,0.157-0.432,0.533-0.422,0.799c-0.037,0.323,0.24,0.766,0.56,0.915
		c0.036,0.032,0.176,0.062-0.09-0.031c-19.593-7.279-40.071-14.522-60.006-20.866c-83.949-27.232-171.404-43.645-259.466-49.385
		c-38.597-2.316-78.566-2.955-117.268-2.25C983.13,32.021,944.276,34,907.342,37.1c-42.832,4.081-86.644,8.781-127.89,21.17
		c-74.603,23.12-145.487,57.396-213.078,96.305c-9.694,5.781-20.155,11.851-29.587,18.045c-9.522,6.18-19.1,12.678-27.577,20.179
		c-5.803,5.099-11.917,11.593-14.118,18.849c-1.151,3.846-1.504,7.953-1.834,11.99c-0.7,7.09-0.788,14.353-0.896,21.455
		c-0.639,63.856,0.152,127.736,0.695,191.601c0,0-8.649,0.09-8.649,0.09c-0.51-58.116-1.029-116.229-0.755-174.359
		c0.038-10.17,0.182-20.443,0.49-30.633c0.279-4.45,0.56-8.954,1.045-13.309c0.479-3.966,1.06-7.976,2.638-11.697
		c0.293-0.997,1.535-3.438,2.108-4.45c0,0,0.58-1.082,0.58-1.082c0.211-0.344,0.444-0.668,0.666-1.002
		c0.882-1.223,1.805-2.804,2.781-3.883c9.526-11.627,22.241-20.122,34.53-28.481c13.244-8.665,27.458-17.089,41.223-24.959
		c67.818-38.441,138.804-72.08,213.628-94.512c14.693-4.022,30.106-7.432,45.136-9.849c25.485-4.435,52.404-7.291,78.157-9.645
		c34.135-2.886,70.432-4.688,104.677-5.482c40.38-0.756,81.986-0.428,122.285,1.98c93.107,5.584,185.534,23.457,274.055,52.831
		c16.252,5.428,33.412,11.396,49.461,17.409c0,0,2.05,0.754,2.05,0.754l0.512,0.189c0.08,0.022,0.546,0.212,0.913,0.395
		c2.278,1.124,3.819,3.739,3.706,6.249c-0.052,2.323-1.369,4.587-3.406,5.775c-0.452,0.282-2.225,1.503-2.736,1.83
		c-18.261,12.427-38.002,23.354-59.31,29.478c-45.315,12.66-91.799,17.091-138.222,22.264
		c-91.111,9.19-186.53,15.578-278.133,21.815c-162.356,10.983-325.022,16.432-487.648,21.522
		C494.838,205.931,494.63,198.719,494.63,198.719L494.63,198.719z"/>
	<path d="M438.816,440.239l-0.165-6.998c6.1-0.145,610.648-14.416,663.083-14.416c45.737,0,65.662-24.27,105.357-72.622
		c4.747-5.781,9.655-11.761,14.954-18.118c44.346-53.215,102.277-123.589,118.976-143.891c2.035-2.473,2.249-5.953,0.534-8.661
		l-14.778-23.334l5.914-3.745l14.778,23.334c3.336,5.268,2.917,12.041-1.042,16.854c-16.702,20.305-74.645,90.694-119.005,143.924
		c-5.281,6.339-10.182,12.308-14.921,18.08c-39.798,48.477-61.72,75.18-110.768,75.18
		C1049.38,425.825,444.916,440.094,438.816,440.239z"/>
	<path d="M941.011,184.508c-7.172,29.249-10.204,59.357-10.945,89.464c-1.485,50.576-2.131,101.194-2.812,151.797
		c0,0-8.692-0.133-8.692-0.133c1.034-50.65,2.033-101.294,3.873-151.933c0.774-25.427,3.276-51.014,8.378-75.99
		c1.028-5.029,2.105-9.968,3.443-15.041C934.256,182.672,941.011,184.508,941.011,184.508L941.011,184.508z"/>
	<polygon points="1274.597,155.768 1301.22,52.809 1308.009,54.515 1282.813,157.832 1274.597,155.768 	"/>
	<polygon points="913.688,183.301 973.251,27.384 979.802,29.85 921.785,186.348 913.688,183.301 	"/>
	<polygon points="972.364,180.075 1008.356,27.829 1015.176,29.406 980.69,182 972.364,180.075 	"/>
	<path d="M487.672,261.581c266.533-12.942,556.408-28.039,822.107-37.591c0,0,0.232,6.997,0.232,6.997
		c-265.313,10.08-555.756,25.701-821.891,39.291C488.121,270.278,487.672,261.581,487.672,261.581L487.672,261.581z"/>
	<path d="M1505.343,336.457c73.766-3.707,147.502-6.966,221.354-8.706c0,0,0.157,8.617,0.157,8.617
		c-36.855,0.565-73.726,1.596-110.591,2.814c-36.864,1.237-73.735,2.648-110.579,4.267L1505.343,336.457L1505.343,336.457z"/>
	<path d="M1700.734,220.65l-10.85-0.026c-0.471,0.014-1.016-0.045-1.457,0.111c-0.758,0.202-1.356,0.772-1.729,1.446
		c-0.901,1.445-3.375,5.402-4.311,6.901c-2.567,4.792-7.539,8.263-13.04,8.49c-8.828,0.147-17.638,0.085-26.581-1.326
		c-20.398-3.173-39.009-13.01-55.826-24.52c-10.144-6.826-21.002-15.575-30.326-23.544c-1.526-1.327-3.753-2.922-4.719-4.908
		c-3.739-7.073,1.732-15.379,9.725-14.839c8.321,0.024,26.72,0.061,35.261,0.084c8.08,0.01,47.062,0.12,54.248,0.13
		c11.433-0.274,23.403,1.525,33.144,7.993c12.476,8.051,19.589,22.155,21.579,36.513c0.129,0.987,0.233,1.876,0.3,3.018
		c0,0-6.981,0.305-6.981,0.305c-0.572-6.62-2.558-13.326-5.662-19.196c-3.134-5.931-7.595-11.059-13.153-14.604
		c-6.211-4.048-13.797-6.056-21.337-6.546c-4.823-0.32-13.759-0.03-18.738-0.105c-21.292,0.109-57.688,0.097-78.659,0.189
		c0,0-0.678,0.001-0.678,0.001s-0.165,0.001-0.165,0.001s-0.068,0.012-0.068,0.012c-1.56-0.061-2.727,1.964-1.922,3.296
		c0.153,0.494,2.443,2.207,2.939,2.67c9.165,7.75,19.798,16.242,29.737,22.866c10.143,6.842,21.098,13.244,32.516,17.552
		c13.982,5.59,28.693,7.01,43.732,6.536c2.369,0.132,4.771-0.778,6.227-2.689c0.354-0.41,0.901-1.401,1.214-1.876
		c0.932-1.517,3.374-5.452,4.278-6.922c1.797-3.101,5.11-5.255,8.687-5.577c1.437-0.123,11.05-0.056,12.619-0.086
		C1700.734,212,1700.734,220.65,1700.734,220.65L1700.734,220.65z"/>
	<path d="M1646.472,175.48c-2.225,1.399-4.194,3.375-5.823,5.431c-5.566,6.985-8.438,15.731-10.106,24.412
		c-0.425,2.045-0.743,5.134-1.065,7.216c-0.411,4.294-0.634,10.345-0.617,14.705c0,0-8.798,0-8.798,0
		c0.122-4.711,0.544-11.115,1.127-15.711c0.221-1.346,0.77-4.583,0.99-5.871c2.13-10.857,6.13-21.794,13.541-30.208
		c2.353-2.483,4.604-4.65,7.72-6.284C1643.443,169.17,1646.472,175.48,1646.472,175.48L1646.472,175.48z"/>
	<path d="M1689.209,220.628c-6.701-0.061-35.249-0.175-41.351-0.281c-5.259-0.234-9.684-4.993-9.573-10.25
		c0.009-1.434,0.03-4.869,0.039-6.343c-0.299-13.658,11.185-20.053,23.521-19.161c4.483,0.236,8.969,1.089,13.138,2.912
		c11.428,4.675,17.865,16.682,19.996,28.111c0,0-6.854,1.42-6.854,1.42c-2.803-13.474-10.376-23.728-24.754-24.787
		c-7.308-0.725-16.546,0.971-17.111,9.755c-0.075,1.168-0.001,4.581-0.007,5.81c0.006,0.229,0.001,2.197,0.025,2.382
		c0.026,0.897,0.693,1.731,1.556,1.988c-0.18,0.19,8.708,0.004,8.899,0.04c0,0,32.476-0.201,32.476-0.201V220.628L1689.209,220.628z
		"/>
	<path d="M1682.309,227.71c1.907,19.353,7.752,55.142,24.966,66.216c2.626,1.591,5.534,2.443,8.573,2.492c0,0,0,7,0,7
		c-4.249,0.041-8.58-1.149-12.208-3.27c-18.28-11.101-24.942-40.954-28.442-60.613c-0.597-3.682-1.118-7.286-1.506-11.111
		L1682.309,227.71L1682.309,227.71z"/>
	<path d="M1470.825,295.644c16.74-0.92,108.445-5.164,123.071-6.214c5.516-0.705,11.09-2.447,14.95-6.337
		c3.427-3.288,5.273-7.657,6.821-12.181c2.039-5.938,3.586-11.923,5.242-18c2.174-8.13,4.281-16.303,6.343-24.469l6.796,1.679
		c-2.01,8.226-4.056,16.423-6.182,24.627c-1.622,6.153-3.213,12.459-5.245,18.518c-2.079,6.601-5.544,13.351-11.315,17.559
		c-7.667,5.785-17.086,6.463-26.201,6.859c0,0-12.647,0.723-12.647,0.723l-101.18,5.785
		C1471.277,304.193,1470.825,295.644,1470.825,295.644L1470.825,295.644z"/>
	<path d="M385.432,191.238c13.693-0.537,29.019-0.419,42.762-0.3c4.328-0.022,9.807,0.136,13.983-0.07
		c9.179-0.204,17.488-2.385,25.76-6.345c21.001-10.122,40.83-23.428,61.087-35.147c45.134-26.138,92.201-48.931,140.089-69.498
		c25.674-10.897,53.218-21.626,79.551-30.818c13.587-4.696,28.491-9.497,42.289-13.715c0,0,0.849-0.264,0.849-0.264
		c0.198-0.059,0.15-0.055,0.175-0.057c0.108-0.038,0.203-0.144,0.22-0.295c-0.14-1.049-0.563-2.115-1.078-3.018
		c-0.157-0.273-0.334-0.52-0.528-0.751c0,0-0.064-0.066,0.034,0.03c0,0,4.464-4.741,4.464-4.741c1.715,1.72,2.707,3.961,3.328,6.249
		c0.252,0.939,0.4,1.915,0.291,2.888c-0.315,3.26-2.741,5.537-5.853,6.248c0,0-1.684,0.533-1.684,0.533
		c-13.181,4.091-27.339,8.768-40.268,13.292c-21.618,7.711-44.805,16.581-65.933,25.515
		c-47.767,20.059-94.614,42.698-139.725,68.154c-24.847,13.861-48.227,30.283-73.852,42.887c-8.768,4.319-19.059,7.031-28.861,7.23
		c-4.887,0.255-9.658,0.104-14.377,0.144c-13.44-0.101-28.984-0.089-42.314,0.491C385.84,199.879,385.432,191.238,385.432,191.238
		L385.432,191.238z"/>
	<path d="M1711.89,149.42c-15.578,1.982-31.307,4.855-46.572,8.66c-14.899,3.96-30.262,8.272-43.004,17.089
		c0,0-4.245-5.688-4.245-5.688c6.775-5.056,14.331-8.483,22.06-11.557c15.198-5.827,30.918-9.724,46.794-12.962
		c7.926-1.587,15.807-2.987,23.896-4.124L1711.89,149.42L1711.89,149.42z"/>
	<path d="M1459.793,96.654c56.497,20.295,113.656,41.077,165.06,72.702c0,0-3.707,5.938-3.707,5.938
		c-12.612-7.82-25.76-14.836-39.144-21.382c-26.831-13.083-54.569-24.284-82.558-34.697c-14.019-5.212-28.125-10.203-42.269-15.176
		L1459.793,96.654L1459.793,96.654z"/>
	<path d="M1704.734,408.65c-34.369-0.142-70.535,0.367-104.859,1.549c-3.706,0.06-4.051-5.41-0.288-5.748
		c34.47-2.138,70.582-3.641,105.147-4.451C1710.521,400.082,1710.572,408.551,1704.734,408.65L1704.734,408.65z"/>
	<path d="M1647.437,404.798c3.48-10.804,12.376-20.385,23.948-22.093c2.018-0.647,36.14-0.712,39.187-0.859c0,0,0,8.958,0,8.958
		s-34.334-0.467-34.334-0.467c-0.531-0.023-1.356,0.046-1.893,0.068c-9.491,0.125-17.021,7.917-20.123,16.447
		C1654.223,406.852,1647.437,404.798,1647.437,404.798L1647.437,404.798z"/>
	<path d="M85.47,267.285c-7.34,4.554-15.11,9.934-20.755,16.39c-1.691,2.14-4.533,5.612-2.828,7.877
		c2.04,2.23,6.057,3.264,9.631,2.838c8.571-0.798,17.317-4.141,25.453-7.331c8.435-3.406,16.749-7.278,24.992-11.312
		c16.03-7.822,33.182-17.297,49.113-25.482c13.705-7.58,34.233-16.181,36.879-33.203c0,0,8.525,1.464,8.525,1.464
		c-0.884,5.155-3.06,10.246-6.199,14.423c-9.121,11.799-22.773,17.817-35.456,24.578c-28.984,14.431-57.484,31.23-88.454,41.168
		c-7.19,1.941-14.824,4.332-22.612,2.088c-11.616-3.908-11.905-13.351-4.413-21.67c6.614-7.408,14.342-12.629,22.651-17.748
		C81.998,261.365,85.47,267.285,85.47,267.285L85.47,267.285z"/>
	<path d="M8.106,312.716c14.643,18.041,26.601,38.078,35.861,59.373c0,0,0.865,1.992,0.865,1.992
		c1.368,3.833,5.164,6.564,9.261,6.438c10.553,0.067,38.723,0.238,49.641,0.306c0,0,0,7,0,7
		c-12.228-0.003-39.793,0.402-51.609,0.229c-6.414-0.525-12.136-4.955-14.485-10.911c0,0-0.86-1.914-0.86-1.914
		c-4.552-10.221-9.833-20.137-15.762-29.653c-5.865-9.431-12.336-18.704-19.478-27.172C1.539,318.403,8.106,312.716,8.106,312.716
		L8.106,312.716z"/>
	<path d="M38.329,437.18c7.051,0.037,24.671,0.114,31.462,0.146c9.616,0.184,16.255-6.427,20.681-15.002
		c7.599-15.045,10.236-32.54,12.397-49.228c1.98-17.176,3.976-34.875,5.372-52.004c0,0,6.984,0.466,6.984,0.466
		c-1.643,21.019-3.541,42.068-6.243,62.926c-3.038,19.131-8.09,48.901-27.261,58.464c-6.359,3.441-15.495,2.581-22.411,2.714
		c0,0-20.981,0.099-20.981,0.099V437.18L38.329,437.18z"/>
	<path d="M21.659,337.094c41.425-12.177,83.931-20.132,126.566-26.615c13.975-2.123,28.688-3.957,42.707-5.66
		c0,0,0.953,8.593,0.953,8.593c-10.208,1.147-21.63,2.426-31.881,3.794c-31.791,4.124-63.562,9.457-94.881,16.255
		c-13.84,3.044-27.823,6.344-41.373,10.312C23.75,343.774,21.659,337.094,21.659,337.094L21.659,337.094z"/>
	<path d="M40.646,374.673l-2.491-6.541c0.569-0.217,14.17-5.308,34.58-5.308h34.66v7h-34.66
		C53.599,369.825,40.773,374.625,40.646,374.673z"/>
	<path d="M205.21,228.533c17.453-4.567,35.318-6.972,53.141-9.009c29.596-3.159,59.346-4.838,89.038-6.103
		c46.724-1.9,95.669-2.513,142.533-2.714c0,0,0,8.671,0,8.671s-35.574,0.012-35.574,0.012c-29.635,0.159-59.273,0.474-88.895,1.304
		c-35.384,1.046-71.157,2.571-106.325,6.101c-17.404,1.88-35.241,4.184-52.123,8.503C207.004,235.299,205.21,228.533,205.21,228.533
		L205.21,228.533z"/>
	<path d="M1560.779,176.235c-158.259,1.795-316.57,11.979-474.151,26.579c-1.674,0.17-3.168-1.05-3.337-2.724
		c-0.169-1.674,1.045-3.167,2.719-3.336c157.839-15.202,316.176-25.967,474.769-28.34
		C1565.762,168.493,1566.185,176,1560.779,176.235L1560.779,176.235z"/>
	<path d="M139.781,267.751c24.978,1.978,53.46,6.736,74.856,20.452c0,0-4.837,7.005-4.837,7.005
		c-4.879-3.346-10.323-6.076-15.977-8.418c-11.483-4.593-23.693-7.554-35.92-9.652c-6.144-1.037-12.43-1.898-18.543-2.4
		L139.781,267.751L139.781,267.751z"/>
	<g>
		<path d="M293.234,539.325c-72.509,0-131.5-58.99-131.5-131.5s58.991-131.5,131.5-131.5s131.5,58.99,131.5,131.5
			S365.743,539.325,293.234,539.325z M293.234,283.325c-68.649,0-124.5,55.851-124.5,124.5s55.851,124.5,124.5,124.5
			s124.5-55.851,124.5-124.5S361.883,283.325,293.234,283.325z"/>
		<path d="M293.234,512.825c-57.897,0-105-47.103-105-105s47.103-105,105-105s105,47.103,105,105S351.131,512.825,293.234,512.825z
			 M293.234,309.825c-54.038,0-98,43.963-98,98s43.962,98,98,98s98-43.963,98-98S347.272,309.825,293.234,309.825z"/>
		<path d="M222.076,444.006c-1.128,0-2.209-0.64-2.719-1.729c-4.105-8.774-6.579-18.135-7.353-27.822
			c-0.132-1.652,1.1-3.098,2.751-3.229c1.65-0.137,3.098,1.1,3.229,2.751c0.717,8.971,3.007,17.637,6.807,25.758
			c0.702,1.501,0.055,3.287-1.446,3.989C222.934,443.915,222.502,444.006,222.076,444.006z"/>
		<path d="M293.234,489.325c-6.334,0-12.655-0.733-18.789-2.18c-1.613-0.38-2.612-1.996-2.231-3.608s1.998-2.613,3.608-2.231
			c8.644,2.038,17.727,2.545,26.609,1.461c1.641-0.197,3.14,0.972,3.34,2.616s-0.971,3.141-2.616,3.341
			C299.874,489.123,296.535,489.325,293.234,489.325z"/>
		<path d="M360.291,451.655c-0.532,0-1.072-0.142-1.56-0.438c-1.414-0.863-1.861-2.709-0.999-4.124
			c4.686-7.682,7.921-16.044,9.615-24.854c0.313-1.627,1.888-2.686,3.512-2.38c1.627,0.313,2.692,1.886,2.379,3.513
			c-1.83,9.517-5.324,18.549-10.385,26.846C362.29,451.144,361.302,451.655,360.291,451.655z"/>
		<path d="M352.775,359.666c-0.844,0-1.682-0.354-2.275-1.043c-5.88-6.834-12.832-12.497-20.66-16.833
			c-1.449-0.803-1.974-2.628-1.171-4.077c0.803-1.451,2.627-1.977,4.078-1.171c8.452,4.681,15.955,10.793,22.3,18.167
			c1.081,1.256,0.939,3.15-0.317,4.231C354.165,359.427,353.468,359.666,352.775,359.666z"/>
		<path d="M239.705,353.405c-0.802,0-1.603-0.32-2.194-0.953c-1.13-1.211-1.065-3.109,0.146-4.24
			c7.102-6.628,15.231-11.878,24.162-15.604c1.53-0.639,3.286,0.085,3.924,1.613c0.638,1.529-0.084,3.286-1.613,3.924
			c-8.271,3.451-15.799,8.313-22.378,14.454C241.173,353.137,240.438,353.405,239.705,353.405z"/>
		<path d="M309.557,334.036c-0.207,0-0.417-0.021-0.627-0.066c-8.601-1.831-17.656-2.133-26.433-0.885
			c-1.643,0.235-3.159-0.906-3.393-2.547c-0.233-1.641,0.907-3.159,2.547-3.393c9.471-1.347,19.241-1.02,28.527,0.955
			c1.621,0.345,2.655,1.938,2.31,3.559C312.188,333.069,310.943,334.036,309.557,334.036z"/>
		<path d="M371.3,402.635c-1.519,0-2.822-1.148-2.981-2.692c-0.917-8.895-3.377-17.446-7.315-25.42
			c-0.733-1.485-0.124-3.284,1.361-4.018c1.486-0.734,3.285-0.124,4.019,1.361c4.255,8.615,6.914,17.854,7.904,27.461
			c0.169,1.648-1.029,3.122-2.677,3.292C371.507,402.63,371.403,402.635,371.3,402.635z"/>
		<path d="M325.166,482.556c-1.148,0-2.245-0.664-2.742-1.78c-0.674-1.514,0.007-3.287,1.521-3.961
			c8.127-3.619,15.495-8.612,21.898-14.84c1.188-1.156,3.088-1.128,4.242,0.059c1.155,1.188,1.129,3.087-0.059,4.242
			c-6.913,6.723-14.867,12.112-23.642,16.02C325.988,482.472,325.573,482.556,325.166,482.556z"/>
		<path d="M256.582,480.256c-0.473,0-0.952-0.112-1.398-0.348c-8.49-4.483-16.066-10.39-22.519-17.556
			c-1.108-1.231-1.009-3.129,0.222-4.237c1.231-1.109,3.128-1.008,4.237,0.222c5.979,6.641,12.998,12.112,20.861,16.265
			c1.465,0.774,2.026,2.589,1.252,4.054C258.699,479.674,257.658,480.256,256.582,480.256z"/>
		<path d="M215.878,397.426c-0.169,0-0.341-0.015-0.513-0.045c-1.633-0.281-2.728-1.833-2.447-3.466
			c1.637-9.493,4.911-18.528,9.73-26.854c0.83-1.434,2.664-1.922,4.099-1.094c1.434,0.83,1.923,2.666,1.093,4.1
			c-4.463,7.709-7.494,16.076-9.01,24.867C218.579,396.395,217.311,397.426,215.878,397.426z"/>
		<path d="M293.234,423.825c-8.822,0-16-7.178-16-16s7.178-16,16-16s16,7.178,16,16S302.056,423.825,293.234,423.825z
			 M293.234,398.825c-4.962,0-9,4.037-9,9s4.038,9,9,9s9-4.037,9-9S298.196,398.825,293.234,398.825z"/>
		<path d="M293.234,440.825c-2.123,0-4.251-0.207-6.326-0.616c-1.896-0.373-3.131-2.213-2.758-4.109
			c0.374-1.897,2.214-3.138,4.11-2.758c2.667,0.523,5.421,0.628,8.201,0.28c1.922-0.227,3.667,1.123,3.906,3.041
			c0.239,1.918-1.123,3.667-3.041,3.906C295.961,440.739,294.584,440.825,293.234,440.825z"/>
		<path d="M314.825,391.225c-0.939,0-1.875-0.375-2.564-1.117c-1.875-2.017-4.055-3.72-6.479-5.061
			c-1.692-0.935-2.305-3.064-1.37-4.756c0.936-1.692,3.066-2.304,4.756-1.369c3.074,1.699,5.839,3.859,8.22,6.42
			c1.316,1.416,1.235,3.63-0.181,4.946C316.533,390.916,315.678,391.225,314.825,391.225z"/>
		<path d="M273.074,389.795c-0.931,0-1.859-0.369-2.548-1.1c-1.326-1.407-1.26-3.622,0.147-4.947
			c2.545-2.399,5.453-4.363,8.641-5.839c1.754-0.814,3.834-0.049,4.646,1.705c0.812,1.755,0.048,3.835-1.706,4.646
			c-2.503,1.159-4.784,2.7-6.78,4.581C274.798,389.48,273.935,389.795,273.074,389.795z"/>
		<path d="M319.021,425.646c-0.577,0-1.162-0.144-1.702-0.444c-1.688-0.941-2.293-3.073-1.352-4.762
			c1.346-2.412,2.287-5.005,2.798-7.705c0.36-1.899,2.188-3.143,4.09-2.789c1.899,0.359,3.147,2.19,2.788,4.09
			c-0.651,3.441-1.85,6.743-3.562,9.814C321.44,424.999,320.249,425.646,319.021,425.646z"/>
		<path d="M266.526,423.856c-1.312,0-2.568-0.74-3.167-2.004c-1.49-3.151-2.459-6.525-2.881-10.029
			c-0.23-1.919,1.138-3.662,3.057-3.893c1.93-0.235,3.662,1.138,3.893,3.057c0.331,2.755,1.091,5.403,2.259,7.871
			c0.826,1.748,0.08,3.834-1.667,4.661C267.537,423.748,267.028,423.856,266.526,423.856z"/>
		<path d="M292.501,381.457c-0.805,0-1.613-0.165-2.374-0.5c-1.806-0.795-3.088-2.429-3.43-4.372l-12.061-68.528
			c-0.335-1.903,0.937-3.719,2.841-4.054c1.902-0.335,3.718,0.937,4.054,2.841l11.762,66.828c0.464-0.352,0.769-0.624,0.964-0.82
			c1.374-1.373,2.197-3.84,3.081-7.375c1-4,14.421-57.626,14.421-57.626l6.791,1.699c0,0-13.421,53.624-14.421,57.624
			c-0.962,3.85-2.135,7.841-4.92,10.626c-0.864,0.865-2.056,1.784-3.543,2.732C294.704,381.145,293.606,381.457,292.501,381.457z"/>
		<path d="M262.33,404.445c-0.275,0-0.551-0.019-0.828-0.058l-68.901-9.706c-1.914-0.27-3.247-2.04-2.978-3.954
			s2.037-3.254,3.954-2.978l67.192,9.466c-0.19-0.551-0.356-0.926-0.482-1.172c-0.881-1.73-2.973-3.275-6.062-5.209
			c-3.495-2.187-50.349-31.522-50.349-31.522l3.715-5.934c0,0,46.852,29.336,50.347,31.522c3.364,2.104,6.797,4.453,8.586,7.964
			c0.555,1.089,1.061,2.507,1.502,4.213c0.495,1.908,0.007,3.928-1.307,5.399C265.593,403.74,263.996,404.445,262.33,404.445z"/>
		<path d="M246.489,501.437c-0.516,0-1.039-0.114-1.533-0.355c-1.737-0.848-2.458-2.943-1.61-4.681l29.766-60.979
			c-0.583,0.012-0.99,0.053-1.264,0.097c-1.918,0.304-4.034,1.814-6.826,4.155c-3.16,2.648-45.539,38.145-45.539,38.145
			l-4.495-5.367c0,0,42.378-35.494,45.538-38.143c3.041-2.548,6.335-5.088,10.227-5.704c1.206-0.191,2.712-0.232,4.47-0.127
			c1.97,0.119,3.739,1.208,4.732,2.912c0.994,1.703,1.07,3.779,0.205,5.552l-30.522,62.53
			C249.03,500.714,247.784,501.437,246.489,501.437z"/>
		<path d="M330.518,502.212c0,0-20.662-51.271-22.204-55.095c-1.484-3.68-2.881-7.598-2.265-11.49
			c0.191-1.206,0.615-2.649,1.26-4.291c0.722-1.835,2.304-3.182,4.231-3.6c1.926-0.42,3.925,0.149,5.345,1.52l50.038,48.353
			c1.39,1.343,1.428,3.559,0.085,4.948c-1.344,1.391-3.558,1.431-4.949,0.085l-48.796-47.151c-0.169,0.558-0.255,0.958-0.299,1.231
			c-0.304,1.918,0.48,4.397,1.843,7.776c1.542,3.823,22.204,55.097,22.204,55.097L330.518,502.212z"/>
		<path d="M331.474,405.784c-2.736,0-5.438-0.332-7.838-1.555c-1.096-0.559-2.337-1.408-3.693-2.526
			c-1.521-1.252-2.312-3.172-2.115-5.134c0.197-1.963,1.355-3.688,3.098-4.614l61.449-32.646c1.705-0.908,3.826-0.259,4.733,1.448
			c0.907,1.707,0.258,3.826-1.449,4.733l-59.923,31.837c0.405,0.282,0.772,0.509,1.081,0.667c1.726,0.88,4.327,0.901,7.964,0.649
			c4.112-0.285,59.261-4.093,59.261-4.093l0.482,6.982c0,0-55.147,3.808-59.26,4.093
			C334.011,405.712,332.738,405.784,331.474,405.784z"/>
		<path d="M290.135,399.142c-0.632,0-1.268-0.08-1.889-0.244c-2.033-0.536-3.75-1.918-4.711-3.789
			c-3.557-6.925-8.435-17.946-13.05-29.484c-5.485-13.712-18.426-50.412-18.556-50.781c-0.643-1.823,0.314-3.821,2.138-4.464
			c1.823-0.643,3.822,0.314,4.464,2.138c0.13,0.367,13.022,36.931,18.453,50.508c4.471,11.177,9.367,22.245,12.777,28.885
			c0.059,0.114,0.149,0.188,0.271,0.22s0.236,0.014,0.342-0.057c5.721-3.751,12.336-8.521,18.448-17.689
			c7.763-11.646,29.053-57.028,29.267-57.485c0.82-1.749,2.904-2.506,4.654-1.684c1.75,0.819,2.504,2.903,1.685,4.654
			c-0.883,1.885-21.728,46.317-29.781,58.397c-6.518,9.777-13.673,15.228-20.435,19.66
			C292.991,398.727,291.569,399.142,290.135,399.142z"/>
		<path d="M191.952,418.376c-1.893,0-3.451-1.511-3.498-3.414c-0.047-1.932,1.48-3.537,3.413-3.585
			c0.39-0.01,39.147-0.973,53.739-1.941c12.014-0.799,24.054-2.034,31.42-3.226c0.125-0.021,0.224-0.084,0.292-0.189
			c0.067-0.105,0.085-0.221,0.051-0.343c-1.799-6.601-4.292-14.366-11.122-23.012c-8.678-10.983-45.26-45.254-45.628-45.599
			c-1.411-1.321-1.485-3.536-0.164-4.947c1.321-1.412,3.535-1.485,4.947-0.164c1.521,1.423,37.337,34.979,46.337,46.37
			c7.284,9.22,10.256,17.709,12.384,25.51c0.553,2.029,0.218,4.207-0.92,5.974c-1.138,1.768-2.982,2.975-5.06,3.311
			c-7.682,1.242-19.671,2.476-32.074,3.3c-14.736,0.979-53.639,1.945-54.03,1.955C192.01,418.376,191.981,418.376,191.952,418.376z"
			/>
		<path d="M268.645,509.83c-0.331,0-0.667-0.047-1-0.146c-1.853-0.552-2.907-2.501-2.355-4.354
			c0.111-0.374,11.173-37.532,14.759-51.709c2.954-11.675,5.499-23.507,6.642-30.879c0.02-0.127-0.011-0.239-0.09-0.337
			c-0.079-0.097-0.183-0.148-0.309-0.154c-6.833-0.327-14.99-0.357-25.323,3.467c-13.127,4.858-57.024,29.061-57.466,29.305
			c-1.69,0.935-3.821,0.32-4.756-1.373c-0.934-1.692-0.319-3.821,1.373-4.756c1.823-1.006,44.804-24.701,58.419-29.74
			c11.019-4.078,20.009-4.281,28.088-3.895c2.1,0.101,4.068,1.092,5.397,2.72c1.33,1.629,1.907,3.756,1.584,5.836
			c-1.191,7.688-3.723,19.472-6.772,31.523c-3.622,14.317-14.725,51.615-14.836,51.99
			C271.545,508.847,270.152,509.83,268.645,509.83z"/>
		<path d="M306.951,511.914c-1.645,0-3.11-1.165-3.433-2.839c-0.394-2.045-9.647-50.244-10.232-64.75
			c-0.474-11.742,2.112-20.356,4.976-27.917c0.745-1.967,2.296-3.531,4.255-4.292c1.96-0.762,4.161-0.653,6.039,0.295
			c6.944,3.511,17.37,9.56,27.888,16.183c12.497,7.87,44.538,29.955,44.86,30.177c1.591,1.098,1.992,3.277,0.895,4.869
			c-1.098,1.59-3.278,1.991-4.868,0.895c-0.321-0.222-32.243-22.225-44.617-30.017c-10.19-6.416-20.657-12.493-27.315-15.858
			c-0.113-0.058-0.23-0.062-0.347-0.019c-0.117,0.046-0.199,0.129-0.244,0.248c-2.423,6.396-4.972,14.144-4.528,25.154
			c0.564,13.985,10.017,63.213,10.112,63.708c0.365,1.898-0.877,3.733-2.775,4.099C307.393,511.892,307.17,511.914,306.951,511.914z
			"/>
		<path d="M393.143,429.359c-0.145,0-0.29-0.009-0.437-0.027c-2.066-0.257-50.766-6.351-64.743-10.275
			c-11.314-3.18-18.708-8.3-25.013-13.36c-1.64-1.315-2.649-3.274-2.767-5.372c-0.118-2.1,0.665-4.16,2.148-5.653
			c5.479-5.517,14.455-13.562,24.008-21.521c11.346-9.454,42.251-33.103,42.562-33.341c1.536-1.174,3.732-0.881,4.906,0.654
			c1.175,1.535,0.882,3.731-0.653,4.906c-0.31,0.236-31.1,23.797-42.333,33.157c-9.255,7.712-18.269,15.788-23.523,21.078
			c-0.09,0.091-0.132,0.2-0.125,0.325c0.007,0.125,0.061,0.228,0.159,0.307c5.335,4.282,11.916,9.1,22.525,12.081
			c13.474,3.783,63.215,10.007,63.715,10.069c1.918,0.238,3.28,1.987,3.041,3.905C396.391,428.063,394.883,429.359,393.143,429.359z
			"/>
	</g>
	<g>
		<path d="M1377.234,539.325c-72.51,0-131.5-58.99-131.5-131.5s58.99-131.5,131.5-131.5s131.5,58.99,131.5,131.5
			S1449.744,539.325,1377.234,539.325z M1377.234,283.325c-68.649,0-124.5,55.851-124.5,124.5s55.851,124.5,124.5,124.5
			s124.5-55.851,124.5-124.5S1445.883,283.325,1377.234,283.325z"/>
		<path d="M1377.234,512.825c-57.897,0-105-47.103-105-105s47.103-105,105-105s105,47.103,105,105
			S1435.131,512.825,1377.234,512.825z M1377.234,309.825c-54.037,0-98,43.963-98,98s43.963,98,98,98s98-43.963,98-98
			S1431.271,309.825,1377.234,309.825z"/>
		<path d="M1306.076,444.006c-1.129,0-2.21-0.64-2.72-1.729c-4.104-8.773-6.578-18.135-7.353-27.822
			c-0.133-1.651,1.1-3.098,2.751-3.229c1.646-0.141,3.098,1.1,3.229,2.751c0.718,8.971,3.008,17.637,6.808,25.758
			c0.701,1.501,0.054,3.287-1.446,3.989C1306.934,443.915,1306.502,444.006,1306.076,444.006z"/>
		<path d="M1377.234,489.325c-6.334,0-12.655-0.733-18.788-2.18c-1.612-0.38-2.611-1.996-2.231-3.608
			c0.381-1.613,2.001-2.611,3.608-2.231c8.644,2.038,17.724,2.545,26.609,1.461c1.642-0.197,3.14,0.972,3.341,2.616
			c0.199,1.645-0.972,3.141-2.616,3.341C1383.873,489.123,1380.535,489.325,1377.234,489.325z"/>
		<path d="M1444.292,451.655c-0.532,0-1.071-0.142-1.56-0.438c-1.414-0.863-1.861-2.709-0.999-4.124
			c4.687-7.683,7.922-16.045,9.615-24.854c0.313-1.627,1.883-2.688,3.513-2.38c1.627,0.313,2.692,1.886,2.38,3.513
			c-1.83,9.516-5.324,18.548-10.385,26.846C1446.291,451.144,1445.303,451.655,1444.292,451.655z"/>
		<path d="M1436.775,359.666c-0.843,0-1.682-0.354-2.275-1.043c-5.88-6.833-12.83-12.496-20.659-16.833
			c-1.449-0.803-1.973-2.628-1.17-4.078c0.802-1.448,2.625-1.977,4.078-1.17c8.451,4.682,15.954,10.794,22.3,18.167
			c1.08,1.256,0.938,3.15-0.317,4.231C1438.165,359.427,1437.468,359.666,1436.775,359.666z"/>
		<path d="M1323.705,353.405c-0.803,0-1.604-0.32-2.194-0.953c-1.13-1.211-1.064-3.109,0.146-4.24
			c7.102-6.628,15.231-11.878,24.162-15.604c1.527-0.635,3.286,0.084,3.924,1.613s-0.084,3.286-1.613,3.924
			c-8.271,3.451-15.8,8.314-22.379,14.454C1325.172,353.137,1324.437,353.405,1323.705,353.405z"/>
		<path d="M1393.557,334.036c-0.207,0-0.417-0.021-0.627-0.066c-8.602-1.831-17.658-2.133-26.434-0.885
			c-1.644,0.234-3.159-0.907-3.393-2.547c-0.233-1.641,0.906-3.159,2.547-3.393c9.47-1.348,19.241-1.021,28.527,0.955
			c1.621,0.345,2.655,1.938,2.311,3.559C1396.189,333.069,1394.943,334.036,1393.557,334.036z"/>
		<path d="M1455.3,402.635c-1.519,0-2.821-1.148-2.98-2.692c-0.917-8.895-3.379-17.447-7.315-25.42
			c-0.734-1.485-0.124-3.284,1.361-4.018c1.482-0.734,3.284-0.125,4.018,1.361c4.255,8.615,6.914,17.854,7.905,27.461
			c0.17,1.647-1.028,3.122-2.677,3.292C1455.507,402.63,1455.404,402.635,1455.3,402.635z"/>
		<path d="M1409.166,482.556c-1.149,0-2.245-0.664-2.742-1.78c-0.674-1.514,0.007-3.287,1.52-3.961
			c8.128-3.619,15.495-8.611,21.899-14.84c1.188-1.154,3.088-1.129,4.242,0.059c1.155,1.188,1.129,3.087-0.059,4.242
			c-6.913,6.723-14.867,12.113-23.642,16.02C1409.988,482.472,1409.573,482.556,1409.166,482.556z"/>
		<path d="M1340.581,480.256c-0.472,0-0.951-0.112-1.398-0.349c-8.488-4.482-16.064-10.39-22.518-17.555
			c-1.108-1.231-1.009-3.129,0.222-4.237c1.23-1.11,3.128-1.01,4.237,0.222c5.979,6.641,12.998,12.112,20.861,16.266
			c1.465,0.773,2.025,2.588,1.251,4.054C1342.699,479.674,1341.658,480.256,1340.581,480.256z"/>
		<path d="M1299.878,397.425c-0.17,0-0.341-0.014-0.514-0.044c-1.633-0.281-2.729-1.833-2.446-3.466
			c1.637-9.493,4.91-18.527,9.729-26.854c0.83-1.434,2.663-1.924,4.1-1.094c1.434,0.83,1.924,2.666,1.094,4.1
			c-4.463,7.709-7.494,16.076-9.011,24.867C1302.578,396.395,1301.31,397.425,1299.878,397.425z"/>
		<path d="M1377.234,423.825c-8.822,0-16-7.178-16-16s7.178-16,16-16s16,7.178,16,16S1386.056,423.825,1377.234,423.825z
			 M1377.234,398.825c-4.963,0-9,4.037-9,9s4.037,9,9,9s9-4.037,9-9S1382.197,398.825,1377.234,398.825z"/>
		<path d="M1377.234,440.825c-2.123,0-4.252-0.207-6.326-0.616c-1.897-0.373-3.132-2.213-2.758-4.109
			c0.373-1.898,2.222-3.138,4.109-2.758c2.667,0.523,5.423,0.628,8.202,0.28c1.912-0.232,3.667,1.122,3.906,3.041
			c0.238,1.918-1.123,3.667-3.041,3.906C1379.961,440.739,1378.584,440.825,1377.234,440.825z"/>
		<path d="M1398.825,391.225c-0.938,0-1.875-0.375-2.564-1.117c-1.876-2.018-4.056-3.72-6.479-5.061
			c-1.691-0.935-2.305-3.064-1.369-4.756c0.935-1.692,3.067-2.304,4.756-1.369c3.073,1.698,5.838,3.858,8.22,6.42
			c1.316,1.415,1.235,3.63-0.181,4.946C1400.533,390.916,1399.677,391.225,1398.825,391.225z"/>
		<path d="M1357.075,389.795c-0.931,0-1.859-0.369-2.548-1.1c-1.326-1.406-1.261-3.621,0.146-4.947
			c2.544-2.398,5.451-4.363,8.64-5.839c1.757-0.812,3.835-0.049,4.646,1.705c0.812,1.754,0.049,3.835-1.705,4.646
			c-2.504,1.159-4.785,2.701-6.78,4.581C1358.798,389.48,1357.935,389.795,1357.075,389.795z"/>
		<path d="M1403.021,425.646c-0.577,0-1.162-0.144-1.702-0.444c-1.688-0.941-2.293-3.073-1.352-4.762
			c1.346-2.413,2.287-5.005,2.797-7.705c0.36-1.899,2.188-3.143,4.09-2.789c1.899,0.359,3.147,2.19,2.789,4.09
			c-0.65,3.44-1.85,6.742-3.562,9.814C1405.44,424.999,1404.249,425.646,1403.021,425.646z"/>
		<path d="M1350.526,423.856c-1.311,0-2.568-0.74-3.166-2.005c-1.491-3.153-2.46-6.527-2.881-10.028
			c-0.231-1.919,1.138-3.662,3.057-3.893c1.93-0.236,3.663,1.139,3.893,3.057c0.331,2.753,1.092,5.401,2.26,7.872
			c0.826,1.747,0.079,3.834-1.668,4.66C1351.537,423.748,1351.028,423.856,1350.526,423.856z"/>
		<path d="M1376.501,381.457c-0.805,0-1.611-0.165-2.372-0.5c-1.806-0.794-3.088-2.428-3.431-4.371l-12.061-68.529
			c-0.335-1.903,0.937-3.719,2.841-4.054s3.719,0.937,4.054,2.841l11.761,66.828c0.465-0.352,0.77-0.624,0.965-0.82
			c1.374-1.373,2.197-3.84,3.081-7.375c1-4,14.421-57.626,14.421-57.626l6.791,1.699c0,0-13.421,53.624-14.421,57.624
			c-0.962,3.85-2.135,7.841-4.921,10.626c-0.862,0.863-2.055,1.783-3.542,2.731C1378.705,381.144,1377.605,381.457,1376.501,381.457
			z"/>
		<path d="M1346.33,404.445c-0.274,0-0.551-0.019-0.828-0.058l-68.9-9.706c-1.914-0.27-3.247-2.04-2.978-3.954
			s2.038-3.248,3.954-2.978l67.192,9.466c-0.19-0.551-0.356-0.925-0.481-1.171c-0.882-1.73-2.973-3.276-6.062-5.21
			c-3.495-2.187-50.35-31.522-50.35-31.522l3.715-5.934c0,0,46.853,29.336,50.348,31.522c3.365,2.105,6.799,4.455,8.586,7.965
			c0.555,1.087,1.061,2.505,1.503,4.212c0.494,1.909,0.006,3.928-1.309,5.399C1349.592,403.741,1347.996,404.445,1346.33,404.445z"
			/>
		<path d="M1330.488,501.437c-0.515,0-1.038-0.114-1.532-0.355c-1.737-0.849-2.458-2.943-1.61-4.681l29.767-60.979
			c-0.583,0.012-0.991,0.053-1.265,0.097c-1.918,0.304-4.033,1.814-6.826,4.155c-3.16,2.648-45.539,38.145-45.539,38.145
			l-4.494-5.367c0,0,42.377-35.494,45.537-38.143c3.041-2.548,6.335-5.088,10.227-5.704c1.207-0.191,2.711-0.233,4.471-0.127
			c1.97,0.119,3.738,1.208,4.732,2.912c0.993,1.704,1.07,3.779,0.205,5.552l-30.523,62.53
			C1333.03,500.714,1331.784,501.437,1330.488,501.437z"/>
		<path d="M1414.518,502.212c0,0-20.663-51.271-22.205-55.095c-1.483-3.681-2.881-7.599-2.265-11.49
			c0.192-1.209,0.616-2.652,1.261-4.291c0.722-1.835,2.303-3.181,4.229-3.6s3.926,0.147,5.346,1.52l50.037,48.353
			c1.391,1.343,1.429,3.559,0.085,4.948c-1.344,1.392-3.561,1.429-4.948,0.085l-48.797-47.152c-0.169,0.559-0.256,0.96-0.299,1.234
			c-0.304,1.916,0.479,4.396,1.843,7.775c1.542,3.822,22.205,55.096,22.205,55.096L1414.518,502.212z"/>
		<path d="M1415.473,405.784c-2.736,0-5.438-0.332-7.838-1.555c-1.094-0.558-2.337-1.408-3.693-2.526
			c-1.52-1.252-2.312-3.172-2.114-5.134c0.197-1.963,1.354-3.688,3.097-4.613l61.448-32.647c1.707-0.909,3.827-0.258,4.733,1.448
			c0.907,1.707,0.259,3.826-1.448,4.733l-59.923,31.836c0.405,0.283,0.771,0.51,1.08,0.667c1.726,0.879,4.327,0.901,7.964,0.65
			c4.112-0.285,59.262-4.093,59.262-4.093l0.482,6.982c0,0-55.147,3.808-59.261,4.093
			C1418.01,405.712,1416.738,405.784,1415.473,405.784z"/>
		<path d="M1374.135,399.142c-0.633,0-1.268-0.08-1.89-0.244c-2.033-0.537-3.75-1.918-4.711-3.79
			c-3.555-6.917-8.433-17.938-13.051-29.483c-5.484-13.712-18.425-50.412-18.555-50.781c-0.643-1.823,0.314-3.821,2.138-4.464
			c1.825-0.645,3.821,0.314,4.464,2.138c0.13,0.367,13.021,36.931,18.453,50.508c4.473,11.184,9.369,22.251,12.777,28.885
			c0.059,0.114,0.149,0.188,0.271,0.22c0.122,0.031,0.235,0.013,0.342-0.057c5.721-3.751,12.335-8.52,18.448-17.689
			c7.764-11.646,29.052-57.027,29.267-57.485c0.819-1.751,2.905-2.506,4.654-1.684c1.75,0.819,2.504,2.903,1.684,4.653
			c-0.883,1.886-21.727,46.318-29.78,58.398c-6.519,9.778-13.674,15.228-20.435,19.66
			C1376.991,398.727,1375.57,399.142,1374.135,399.142z"/>
		<path d="M1275.951,418.376c-1.893,0-3.45-1.511-3.497-3.414c-0.048-1.932,1.48-3.537,3.413-3.585
			c0.39-0.01,39.147-0.973,53.738-1.941c12.015-0.799,24.054-2.034,31.42-3.226c0.126-0.021,0.225-0.084,0.293-0.189
			c0.067-0.105,0.084-0.221,0.051-0.343c-1.799-6.6-4.29-14.364-11.122-23.012c-8.678-10.983-45.261-45.254-45.629-45.599
			c-1.411-1.321-1.484-3.536-0.164-4.947c1.322-1.41,3.537-1.485,4.947-0.164c1.521,1.423,37.338,34.979,46.338,46.37
			c7.285,9.222,10.258,17.71,12.384,25.51c0.553,2.029,0.218,4.207-0.92,5.974c-1.138,1.768-2.982,2.975-5.061,3.311
			c-7.682,1.242-19.671,2.476-32.072,3.3c-14.736,0.979-53.64,1.945-54.031,1.955
			C1276.009,418.376,1275.98,418.376,1275.951,418.376z"/>
		<path d="M1352.644,509.83c-0.33,0-0.667-0.047-1-0.146c-1.853-0.552-2.907-2.501-2.355-4.354
			c0.111-0.374,11.173-37.532,14.759-51.709c2.953-11.67,5.498-23.502,6.642-30.879c0.02-0.126-0.011-0.24-0.09-0.337
			s-0.183-0.148-0.309-0.154c-6.836-0.33-14.992-0.356-25.324,3.467c-13.125,4.858-57.024,29.061-57.466,29.305
			c-1.691,0.935-3.82,0.32-4.756-1.373c-0.934-1.692-0.319-3.821,1.373-4.756c1.823-1.006,44.804-24.701,58.419-29.74
			c11.02-4.078,20.009-4.281,28.089-3.895c2.1,0.101,4.066,1.092,5.396,2.719c1.33,1.629,1.908,3.756,1.586,5.837
			c-1.193,7.692-3.725,19.478-6.773,31.523c-3.622,14.317-14.725,51.615-14.836,51.99
			C1355.545,508.847,1354.153,509.83,1352.644,509.83z"/>
		<path d="M1390.951,511.914c-1.645,0-3.11-1.165-3.433-2.839c-0.394-2.045-9.647-50.245-10.232-64.751
			c-0.474-11.741,2.111-20.355,4.975-27.916c0.745-1.967,2.297-3.531,4.256-4.292c1.959-0.762,4.16-0.654,6.039,0.295
			c6.944,3.511,17.369,9.56,27.889,16.183c12.497,7.87,44.538,29.955,44.86,30.177c1.591,1.098,1.991,3.277,0.895,4.869
			c-1.1,1.591-3.277,1.989-4.869,0.895c-0.32-0.222-32.241-22.225-44.616-30.017c-10.189-6.416-20.656-12.493-27.315-15.858
			c-0.114-0.058-0.23-0.062-0.348-0.019c-0.116,0.046-0.198,0.129-0.243,0.248c-2.424,6.396-4.972,14.142-4.527,25.153
			c0.564,13.986,10.017,63.214,10.111,63.709c0.366,1.898-0.877,3.733-2.774,4.099
			C1391.393,511.892,1391.171,511.914,1390.951,511.914z"/>
		<path d="M1477.142,429.359c-0.144,0-0.29-0.009-0.437-0.027c-2.066-0.257-50.767-6.351-64.743-10.275
			c-11.312-3.179-18.706-8.3-25.013-13.36c-1.641-1.316-2.649-3.275-2.768-5.374s0.665-4.159,2.147-5.651
			c5.48-5.517,14.456-13.562,24.009-21.521c11.347-9.454,42.251-33.103,42.562-33.341c1.534-1.174,3.732-0.881,4.906,0.654
			s0.882,3.731-0.654,4.906c-0.31,0.236-31.099,23.797-42.334,33.157c-9.254,7.711-18.268,15.788-23.522,21.078
			c-0.09,0.09-0.132,0.199-0.125,0.325c0.007,0.125,0.061,0.229,0.159,0.308c5.336,4.281,11.917,9.1,22.524,12.08
			c13.475,3.783,63.215,10.007,63.716,10.069c1.918,0.238,3.279,1.987,3.04,3.905
			C1480.39,428.063,1478.882,429.359,1477.142,429.359z"/>
	</g>
</g>
</svg>
