<?xml version="1.0" encoding="iso-8859-1"?>
<!-- Generator: Adobe Illustrator 27.0.1, SVG Export Plug-In . SVG Version: 6.00 Build 0)  -->
<svg version="1.1" id="Tesla_Model_S" xmlns="http://www.w3.org/2000/svg" xmlns:xlink="http://www.w3.org/1999/xlink" x="0px"
	 y="0px" viewBox="0 0 1887.394 565.177" style="enable-background:new 0 0 1887.394 565.177;" xml:space="preserve">
<g>
	<path d="M1799.486,162.77c13.454-0.641,26.968-1.193,40.221-3.221c3.535-0.586,7.108-1.222,10.384-2.634
		c0.463-0.329,1.075-0.62,1.574-0.875c2.119-1.077,4.71-0.232,5.787,1.887c1.077,2.119,0.237,4.707-1.882,5.784
		c-0.727,0.371-1.468,0.725-2.206,1.051c-8.546,2.725-17.793,2.463-26.609,2.655c-9.14,0.014-18.212-0.322-27.269-0.707
		C1797.015,166.557,1796.982,162.939,1799.486,162.77L1799.486,162.77z"/>
	<path style="stroke:#000000;stroke-linejoin:round;stroke-miterlimit:10;" d="M32.09,412.58"/>
	<path style="stroke:#000000;stroke-linejoin:round;stroke-miterlimit:10;" d="M65.451,399.559"/>
	<path d="M46.927,479.822l-1.118-7.922c21.661-3.059,53.928-7.867,69.052-10.29c14.316-2.294,28.325-14.202,33.847-85.19
		l7.976,0.621c-4.873,62.646-16.245,88.572-40.557,92.468C100.964,471.938,68.627,476.757,46.927,479.822z"/>
	<path d="M46.723,317.045l-4.52-5.346c3.368-2.848,34.209-28.346,79.411-46.621c28.914-11.689,56.92-17.616,83.241-17.616
		c75.134,0,101.047,9.359,120.417,25.525l-4.485,5.374c-18.136-15.136-42.92-23.899-115.932-23.899
		c-25.417,0-52.541,5.755-80.617,17.106C80.047,289.435,50.003,314.272,46.723,317.045z"/>
	<path d="M121.615,265.079c14.783-5.851,31.453-10.622,46.783-14.855c78.717-20.835,160.047-30.834,241.304-33.982
		c65.51-1.93,224.596-3.632,292.084-4.939c0,0,194.694-2.883,194.694-2.883c1.216-0.018,2.216,0.953,2.234,2.169
		c0.018,1.214-0.951,2.213-2.163,2.234c-120.531,2.618-317.863,6.67-437.978,9.102c-96.946,1.066-194.416,10.437-288.327,35.197
		c-14.926,4.073-31.673,8.824-46.007,14.447c-1.796,0.73-3.849-0.142-4.567-1.944C118.954,267.83,119.82,265.797,121.615,265.079
		L121.615,265.079z"/>
	<path d="M63.128,300.827c4.774,8.849,7.941,12.529,17.854,10.148c0,0,26.609-6.708,26.609-6.708
		c2.858-0.802,6.476-1.273,9.463,0.652c1.25,0.795,2.179,1.854,2.901,3.072c0.427,0.767,1.156,1.789,1.722,2.127
		c1.81,1.319,6.808,0.628,9.421,0.463c41.312-6.043,88.266-36.878,123.316-59.596c0-0.001,2.715,3.96,2.715,3.96
		c-15.13,10.503-30.514,20.688-46.471,29.995c-24.112,13.693-49.171,27.463-77.002,32.207c-2.321,0.365-4.896,0.595-7.252,0.661
		c-5.261,0.42-9.906-1.4-12.508-6.284c-0.915-1.523-2.742-0.81-4.495-0.415c-8.935,2.307-17.792,4.596-26.812,6.841
		c-8.745,2.189-16.727,0.443-21.868-7.493c-1.44-2.11-2.577-4.2-3.696-6.201L63.128,300.827L63.128,300.827z"/>
	<path d="M533.05,470.299v-7c91.292,0,688.684-6.949,821.467-9.878l0.154,6.998C1221.865,463.348,624.361,470.299,533.05,470.299z"
		/>
	<path d="M603.893,466.605c-4.904-48.792-7.586-97.744-8.794-146.758c-0.491-20.38-0.571-40.967,0.289-61.383
		c0.911-16.607,1.32-34.365,10.26-49.007c4.389-7.355,10.328-13.578,16.612-19.23c15.526-13.662,33.681-23.979,51.168-34.608
		c54.732-32.076,112.775-58.53,172.722-79.259c63.878-21.877,130.463-36.812,197.876-41.725c11.798-0.831,24.969-1.375,36.87-1.512
		c134.51-0.117,271.008,6.665,401.097,43.553c10.552,3.018,24.762,7.345,35.202,10.883c50.086,17.457,100.042,34.966,150.729,50.563
		c46.665,14.53,93.486,28.736,140.722,41.246c0,0,5.982,1.581,5.982,1.581c2.058,0.584,4.089,1.257,6.085,2.018
		c3.994,1.528,7.849,3.378,11.543,5.651c5.293,3.005,10.161,8.127,9.955,14.65c0,0,0.004,3.11,0.004,3.11s-0.005,6.118-0.005,6.118
		s-6.629,0-6.629,0s-0.004-6.118-0.004-6.118c0.124-4.907-0.069-7.376-4.488-10.535c-5.477-3.852-11.821-6.603-18.279-8.455
		c-17.793-4.61-35.49-9.48-53.117-14.541c-82.382-23.522-163.991-49.963-244.734-78.553c-6.149-2.16-16.867-5.369-23.224-7.402
		c-128.938-38.645-264.643-46.093-398.564-46.84c-81.232-0.413-162.096,15.242-238.96,41.031
		c-61.587,20.71-121.148,47.767-177.231,80.573c-17.274,10.495-34.901,20.52-50.073,33.772
		c-5.848,5.215-11.316,10.913-15.341,17.586c-6.226,10.066-7.787,22.031-8.662,33.675c-0.473,5.594-0.807,12.54-1.04,18.16
		c-1.006,34.533-0.203,69.178,1.157,103.715c1.361,32.535,3.083,65.105,6.039,97.528
		C609.063,466.091,603.893,466.605,603.893,466.605L603.893,466.605z"/>
	<path d="M1226.383,198.378c-1.773,0-3.294-1.342-3.478-3.145c-0.197-1.923,1.202-3.641,3.126-3.838
		c199.301-20.372,316.256-22.571,357.289-22.571c100.084,0,225.359,8.596,243.718,16.724c1.768,0.782,2.565,2.85,1.783,4.617
		c-0.782,1.767-2.85,2.566-4.617,1.783c-15.903-7.041-135.572-16.125-240.884-16.125c-40.926,0-157.597,2.196-356.578,22.535
		C1226.622,198.372,1226.502,198.378,1226.383,198.378z"/>
	<path d="M1796.185,246.88h-7v-26.385c0-14.267,8.939-21.202,27.33-21.202c19.365,0,25.883,10.585,25.883,15.415l-7,0.013
		c-0.105-1.858-4.885-8.428-18.883-8.428c-17.867,0-20.33,6.826-20.33,14.202V246.88z"/>
	<path d="M1756.906,146.706c-12.276,0-21.669-1.056-26.465-2.69c-116.527-39.687-201.155-65.952-266.331-82.657
		c-16.984-4.353-19.699-9.727-24.195-18.63l-0.545-1.077l5.35-2.716l0.551,1.087c4.108,8.134,5.983,11.846,20.33,15.523
		c65.328,16.745,150.098,43.052,266.774,82.79c6.262,2.133,27.702,4.033,58.575,0.056l0.768,5.951
		C1778.821,146.004,1766.906,146.706,1756.906,146.706z"/>
	<path d="M1869.317,327.027c-13.42-0.429-20.626-0.732-23.728-0.875c-4.612-0.213-11.103-1.889-14.193-13.932
		c-12.756-49.71-15.318-78.122-15.318-107.853c0-10.057-5.853-13.641-11.33-13.641v-6c8.626,0,17.33,6.073,17.33,19.641
		c0,29.263,2.531,57.262,15.131,106.36c2.345,9.139,6.297,9.321,8.658,9.43c3.085,0.143,10.259,0.445,23.642,0.873L1869.317,327.027
		z"/>
	<path d="M1853.239,216.703l-25.915-1.91c-2.964-0.268-2.955-4.569,0-4.83c0,0,25.915-1.91,25.915-1.91
		c2.389-0.176,4.468,1.618,4.644,4.006C1858.098,214.673,1855.849,216.914,1853.239,216.703L1853.239,216.703z"/>
	<path d="M1422.792,141.534c16.096,9.194,31.843,19.225,45.612,31.733c1.252,1.175,1.458,3.05,0.582,4.452
		c-54.758,86.714-115.641,169.314-180.144,248.974c-8.237,10.253-19.565,23.662-27.96,33.86c0,0-4.639-3.89-4.639-3.89
		c8.428-10.279,19.668-23.718,27.789-33.871c64.021-79.571,124.576-162.273,178.838-248.802c0,0,0.579,4.449,0.579,4.449
		c-3.175-2.868-6.813-5.732-10.305-8.334c-9.014-6.697-18.543-12.726-28.304-18.286c0,0-5.909-3.278-5.909-3.278L1422.792,141.534
		L1422.792,141.534z"/>
	<path d="M1876.813,417.671c-5.843-0.45-11.471-0.49-17.145,0.964c-1.601,0.409-3.23-0.564-3.63-2.167
		c-0.363-1.452,0.407-2.92,1.749-3.476c2.994-1.243,6.211-2.195,9.436-2.802c3.227-0.615,6.433-0.938,9.59-1.17
		C1882.97,408.838,1882.978,417.851,1876.813,417.671L1876.813,417.671z"/>
	<path d="M1845.111,232.735c-20.97,0.092-44.27-0.793-65.362-1.209c-7.262-0.154-14.525-0.407-21.787-0.606
		c-1.387-0.038-2.48-1.193-2.442-2.579c0.036-1.338,1.12-2.403,2.442-2.442c7.262-0.199,14.525-0.451,21.787-0.606
		c21.124-0.415,44.356-1.3,65.362-1.209C1850.762,224.284,1850.81,232.517,1845.111,232.735L1845.111,232.735z"/>
	<path style="stroke:#000000;stroke-linejoin:round;stroke-miterlimit:10;" d="M158.281,488.677"/>
	<path d="M1693.149,511.389c-2.481,0-4.755-0.682-6.563-2.015c-2.334-1.721-3.672-4.383-3.672-7.305
		c0-3.587-0.454-6.852-0.991-8.711c-4.918-1.984-6.122-7.143-6.811-10.095c-0.508-2.175-4.959-22.265-4.959-57.438
		c0-25.951-9.536-65.608-36.303-99.086c-20.102-25.142-56.989-55.113-118.568-55.113c-74.996,0-152.569,56.5-152.569,151.049
		c0,45.486-2.483,56.712-3.418,60.938l-0.043,0.193c-0.711,3.224-2.439,7.82-9.215,10.531c-2.098,0.839-5.582,1.579-8.972,2.266
		c-0.609,0.123-1.118,0.226-1.462,0.302c-2.085,0.465-5.348,0.742-8.726,0.742c-1.33,0-143.954,0.405-309.098,0.875
		c-223.973,0.638-477.829,1.359-481.052,1.359c-10.308,0-11.369-8.376-11.822-11.952c-1.063-8.388-2.843-22.427-2.843-65.255
		c0-84.128-66.622-150.027-151.671-150.027c-102.274,0-155.785,78.999-155.785,157.036v69.991c0,6.985-4.339,11.325-11.325,11.325
		h-0.218c-0.077,0-0.156,0.001-0.235,0.001c-9.671,0-33.06-1.832-50.297-18.001H75.505c-9.636,0-18.979-2.992-24.993-8.003
		c-1.802-1.502-3.693-3.093-5.46-4.586c-5.979,0.839-12.919,1.79-15.724,2.085c-1.938,0.203-8.606,0.702-12.918-1.455
		c-1.554-0.776-10.823-5.831-14.452-9.513c-1.706-1.729-2.374-4.354-1.7-6.687c0.432-1.495,1.794-4.151,6.078-5.156
		c2.014-0.472,6.48-1.093,13.601-2.068c8.557-1.171,19.207-2.629,23.538-3.774c3.167-0.837,2.842-2.951,2.703-3.854
		c-0.887-5.775-5.35-15.898-10.076-26.616c-0.723-1.641-1.456-3.302-2.188-4.976c-0.654-1.494-0.925-1.494-1.825-1.494
		c-1.435,0-4.631,0.08-7.722,0.158c-3.288,0.083-6.395,0.161-7.938,0.161c-3.386,0-6.861-2.053-8.45-4.992
		c-1.42-2.626-1.272-5.604,0.405-8.168c2.348-3.591,14.06-22.83,14.06-49.059v-24c0-3.194,0-9.142,6.596-12.062
		c2.801-1.24,5.995-2.224,9.26-3.069c-2.502-1.475-5.388-3.312-7.405-4.992c-1.716-1.432-2.773-3.562-2.902-5.85
		c-0.128-2.272,0.662-4.425,2.226-6.059c5.893-6.163,37.893-29.505,105.335-55.053c58.341-22.101,159.128-51.378,307.96-65.35
		c7.473-0.701,13.291-1.824,17.965-2.727c5.671-1.094,9.768-1.886,13.537-1.331c1.852,0.272,3.92,0.737,6.314,1.275
		c5.475,1.231,12.288,2.763,20.12,2.763h4.945c15.59-7.031,34.537-16.789,56.411-28.056C672.091,94.208,854.999,0,1090.473,0
		c292.846,0,485.188,64.406,639.738,116.158c35.858,12.007,69.729,23.349,102.519,33.128c4.939,1.473,9.212,2.211,12.645,2.804
		c7.79,1.346,15.846,2.738,14.926,14.108c-0.18,2.223-0.434,4.745-0.702,7.416c-1.283,12.748-3.04,30.208-0.493,48.845
		c0.414,3.026-0.267,5.734-1.915,7.624c-1.492,1.709-3.696,2.651-6.207,2.651h-1.384c1.001,22.595,4.657,52.478,6.69,60.773
		c0.829,3.379,2.553,5.386,5.161,8.423c2.99,3.483,6.713,7.817,9.953,15.632c5.985,14.435,8.46,19.903,10.593,23.407
		c0.212,0.349,0.425,0.69,0.635,1.028c2.232,3.595,4.763,7.669,4.763,15.859v49.872c0,4.387-2.443,7.781-6.289,9.208
		c-0.158,9.745-0.938,28.781-3.35,36.617c-2.731,8.878-8.267,18.309-30.089,27.121c-10.936,4.417-43.651,10.032-78.288,15.977
		c-29.118,4.998-59.228,10.166-71.669,14.018C1696.152,511.151,1694.614,511.389,1693.149,511.389z M1515.281,262.978
		c65.017,0,104.038,31.737,125.325,58.361c28.162,35.224,38.196,77.07,38.196,104.487c0,34.792,4.539,54.645,4.732,55.473
		c0.931,3.988,1.496,4.071,2.15,4.167c1.248,0.183,2.354,0.901,3.029,1.968c2.643,4.179,2.849,12.259,2.849,14.636
		c0,0.218,0.053,0.268,0.154,0.342c0.376,0.277,1.521,0.588,3.434-0.006c12.98-4.018,42.02-9.002,72.764-14.279
		c32.662-5.605,66.438-11.403,76.513-15.472c19.388-7.83,23.101-15.278,25.06-21.645c2.245-7.294,3-28.919,3-37.664
		c0-2.389,1.937-4.325,4.325-4.325c1.931,0,1.931-0.841,1.931-1.292v-49.872c0-5.723-1.451-8.061-3.461-11.295
		c-0.224-0.36-0.449-0.725-0.675-1.095c-2.428-3.988-4.938-9.505-11.194-24.593c-2.711-6.538-5.8-10.135-8.525-13.309
		c-2.92-3.4-5.678-6.611-6.999-11.998c-2.309-9.414-6.408-43.19-7.102-67.032c-0.034-1.169,0.406-2.301,1.221-3.14
		c0.814-0.838,1.934-1.312,3.103-1.312h5.463c-0.004-0.129-0.016-0.28-0.039-0.454c-2.687-19.654-0.869-37.704,0.457-50.883
		c0.265-2.627,0.515-5.108,0.688-7.247c0.282-3.494,0.282-3.494-7.777-4.887c-3.659-0.632-8.212-1.419-13.645-3.039
		c-32.928-9.82-66.864-21.184-102.793-33.215C1573.51,72.809,1381.909,8.65,1090.473,8.65
		c-233.377,0-415.118,93.608-523.705,149.537c-22.383,11.528-41.713,21.485-57.676,28.638c-0.556,0.25-1.159,0.378-1.769,0.378
		h-5.872c-8.792,0-16.437-1.719-22.018-2.974c-2.224-0.5-4.145-0.932-5.675-1.157c-2.313-0.34-5.805,0.334-10.639,1.267
		c-4.858,0.938-10.905,2.105-18.796,2.846c-147.871,13.881-247.862,42.915-305.705,64.826
		c-65.435,24.788-96.118,47.104-101.77,52.563c2.907,2.283,8.343,5.339,10.238,6.287c2.453,1.227,3.828,3.74,3.504,6.403
		c-0.346,2.85-2.483,5.193-5.316,5.832c-4.503,1.018-9.164,2.178-12.732,3.758c-1.171,0.519-1.448,0.77-1.448,4.151v24
		c0,27.78-12.09,48.505-15.197,53.369c0.183,0.11,0.397,0.196,0.533,0.199c1.434,0,4.629-0.08,7.719-0.158
		c3.289-0.083,6.396-0.161,7.939-0.161c4.531,0,7.812,2.247,9.75,6.678c0.729,1.666,1.458,3.319,2.178,4.952
		c5.179,11.745,9.651,21.889,10.711,28.794c0.998,6.502-2.551,11.812-9.042,13.529c-4.845,1.281-15.328,2.717-24.576,3.982
		c-3.931,0.538-7.712,1.056-10.243,1.457c3.132,2.19,7.566,4.737,9.412,5.659c1.175,0.588,4.542,0.968,8.146,0.589
		c2.363-0.248,8.358-1.049,17.339-2.316c1.223-0.173,2.459,0.185,3.401,0.983c2.14,1.813,4.586,3.877,6.885,5.793
		c5.306,4.422,13.529,5.997,19.455,5.997h82.776c1.147,0,2.247,0.456,3.058,1.267c15.184,15.184,36.999,16.741,45.697,16.734
		l0.245-0.001c2.225,0,2.675-0.45,2.675-2.675v-69.991c0-43.429,15.147-84.083,42.65-114.477
		C282.924,281.708,325.036,264,374.391,264c44.461,0,85.398,16.807,115.269,47.326c29.053,29.684,45.053,69.229,45.053,111.352
		c0,42.282,1.737,55.981,2.774,64.167c0.557,4.39,1.072,4.39,3.241,4.39c3.21,0,257.06-0.722,481.026-1.358
		c165.151-0.471,307.78-0.876,309.123-0.876c3.279,0,5.738-0.288,6.847-0.535c0.384-0.085,0.947-0.2,1.624-0.337
		c1.925-0.39,5.932-1.201,7.477-1.818c3.31-1.324,3.665-2.938,3.979-4.362l0.044-0.199c0.795-3.594,3.214-14.529,3.214-59.07
		c0-45.341,17.89-86.719,50.374-116.513C1434.359,278.719,1474.761,262.978,1515.281,262.978z M7.886,468.246L7.886,468.246
		C7.886,468.246,7.886,468.246,7.886,468.246z"/>
	<path d="M636.58,179.712c152.231,0.735,304.507,0.052,456.587-6.89c94.892-4.564,189.925-10.591,283.911-24.741
		c37.278-5.915,74.836-12.761,110.486-25.114c8.782-3.113,17.464-6.641,25.655-11.009c7.864-4.224,15.652-9.315,21.211-16.181
		c0,0,6.442,5.078,6.442,5.078c-6.471,8-14.986,13.553-23.814,18.309c-25.759,13.303-54.317,20.351-82.345,26.595
		c-74.774,15.617-151.033,22.467-227.076,28.158c-190.035,13.163-380.671,13.854-571.057,12.796
		C636.58,186.712,636.58,179.712,636.58,179.712L636.58,179.712z"/>
	<path d="M218.327,484.909c-1.018,1.946-2.01,4.437-3.714,6.247c-5.117,5.209-12.946,2.734-19.211,2.467
		c-10.965-0.996-22.296-1.834-33.25-0.997c-1.204,0.093-2.397,0.248-3.592,0.367l-0.557-8.632
		c10.232-0.046,20.438,0.924,30.562,1.997c4.993,0.53,10.035,1.159,14.86,1.553c1.839,0.127,4.082,0.332,5.391-0.621
		c1.107-1.22,1.04-2.761,1.15-4.601C209.966,482.689,218.327,484.909,218.327,484.909L218.327,484.909z"/>
	<path d="M474.395,306.168l-0.481-6.984c130.506-8.988,298.481-19.262,561.666-34.354c244.095-13.997,557.686-21.452,690.212-21.452
		v7c-132.442,0-445.847,7.451-689.812,21.44C772.823,286.909,604.873,297.182,474.395,306.168z"/>
	<path d="M120.448,332.791c44.481-7.377,89.195-11.855,133.986-16.732c4.575-0.331,5.321,6.351,0.697,6.966
		c-44.63,3.931-89.561,7.512-133.893,13.923C118.538,337.419,117.662,333.393,120.448,332.791L120.448,332.791z"/>
	<path d="M800.837,48.68c9.338,0.328,18.554,2.019,27.42,4.971c1.094,0.381,2.231,0.785,3.27,1.34
		c4.921,2.543,4.708,9.613-0.979,11.482c0,0-1.405,0.514-1.405,0.514c-9.606,3.432-21.249,7.892-30.801,11.666
		c-74.111,30.196-146.786,64.115-218.536,99.551c-10.024,5.126-21.758,8.975-33.403,8.585c-4.419,0.034-11.073,0.008-15.031,0.034
		c0,0-24.049,0.054-24.049,0.054s0-8,0-8s24.049,0.054,24.049,0.054c2.824-0.033,12.627,0.057,15.031,0.034
		c10.566,0.366,20.387-2.847,29.991-7.635c64.856-31.787,130.521-61.924,197.176-89.768c17.418-7.189,35.659-14.374,53.44-20.652
		c0,0,1.421-0.512,1.421-0.512c0.158-0.054,0.152-0.063,0.178-0.073c0.021-0.013,0.062-0.013,0.071-0.027
		c0.027-0.023,0.062-0.03,0.059-0.039c0.027-0.047-0.14,0.216-0.082,0.425c0.06,0.213,0.116,0.088-0.239-0.099
		c-8.778-3.647-18.403-5.309-27.851-6.059C800.567,54.526,800.837,48.68,800.837,48.68L800.837,48.68z"/>
	<path d="M1834.349,314.973c-58.891,0.955-143.921,3.86-203.659,5.742c0,0-0.249-8.225-0.249-8.225
		c60.14-1.518,144.515-3.921,203.814-4.516C1834.255,307.974,1834.349,314.973,1834.349,314.973L1834.349,314.973z"/>
	<path d="M31.982,408.311c10.519-0.393,21.321-3.35,29.149-10.432c6.786-7.219,15.116-14.092,25.086-16.433
		c12.565-2.833,25.302-3.929,37.986-5.602c33.458-3.933,66.897-7.358,100.433-10.527c0,0,0.744,7.965,0.744,7.965
		c-41.71,4.169-83.562,8.276-125.071,14.07c-13.593,1.766-21.345,4.068-31.039,14.331c-6.146,6.789-14.911,11.188-23.691,13.327
		c-4.385,1.075-8.843,1.702-13.383,1.84C32.197,416.849,31.982,408.311,31.982,408.311L31.982,408.311z"/>
	<path d="M68.331,402.646c-1.81,1.705-3.642,3.824-3.527,6.088c-0.001-0.041-0.325-0.225-0.32-0.176
		c0.027-0.017,0.047-0.013,0.071,0.013c0,0,0.756,0.007,0.756,0.007c19.474-0.03,39.041-0.929,58.479-2.145
		c8.426-0.556,16.844-1.216,25.212-2.105c0,0,0.699,5.79,0.699,5.79c-28.019,3.497-56.142,5.554-84.361,6.454
		c-5.556,0.487-9.322-4.261-8.696-9.372c0.445-4.297,3.089-8.019,5.928-10.727C62.572,396.472,68.331,402.646,68.331,402.646
		L68.331,402.646z"/>
	<path d="M1883.068,403.75c-7.421,0.143-14.815-0.286-22.14,0.601c-6.902,0.855-11.261,5.453-14.003,11.99
		c-2.299,5.315-3.719,11.456-4.671,17.329c-0.949,6.482-1.341,13.156-4.211,19.312c-2.24,5.139-6.49,9.016-10.645,12.591
		c-6.65,6.141-16.129,7.808-24.792,8.536c-4.276,0.474-8.576,1.136-12.851,1.813c-23.202,3.711-50.905,8.824-74.217,13.097
		c-6.692,1.23-19.448,3.663-26.086,4.938c-1.545,0.231-3.202,0.333-5.019,0.082l1.255-8.572c1.12,0.212,2.9-0.074,4.154-0.337
		c31.875-5.735,66.819-11.819,98.78-16.667c4.999-0.74,10.091-1.455,15.156-1.901c11.627-0.979,16.334-3.183,24.32-11.285
		c6.721-6.717,6.214-17.633,8.195-26.512c2.658-13.102,8.222-28.98,23.678-30.699c7.662-0.912,15.454-0.402,23.098-0.487
		C1883.068,397.58,1883.068,403.75,1883.068,403.75L1883.068,403.75z"/>
	<path d="M1832.832,197.2c-1.688-1.564-3.913-2.906-6.26-4.142c-2.509-1.32-3.986-1.971-6.713-2.127
		c-5.311-0.225-11.101-0.149-16.413,0.404c-31.26,3.388-59.28,20.975-81.552,42.453c-2.433,1.754-3.183,6.006-0.828,8.118
		c1.388,1.298,3.768,1.511,5.686,1.507c39.749,0.458,79.525-0.1,119.272-0.734c0,0,0.127,6.999,0.127,6.999
		c-39.835,0.62-79.659,1.163-119.501,0.689c-5.918,0.152-11.711-2.419-13.487-8.479c-1.296-4.696,0.131-9.909,3.899-13.087
		c2.651-2.436,5.287-4.957,7.966-7.351c13.685-11.839,29.067-21.994,45.882-28.871c14.267-5.721,29.516-9.017,44.944-8.657
		c3.156,0.01,6.302,0.023,9.517,1.033c4.605,1.836,8.412,3.96,12.104,7.601C1837.475,192.556,1832.832,197.2,1832.832,197.2
		L1832.832,197.2z"/>
	<path d="M1101.687,37.416c-13.882,47.63-26.5,95.714-43.999,142.227c-0.558,1.471-1.939,2.384-3.421,2.421
		c-4.786,0.241-7.738,4.615-9.582,8.96c-4.335,10.59-4.336,23-4.842,34.456c-1.724,78.64,1.933,157.36,5.262,235.943
		c0,0-6.112,0.304-6.112,0.304c-3.749-78.757-7.825-157.593-6.501-236.486c0.689-14.731,0.155-34.365,10.891-45.996
		c2.715-2.784,6.642-4.664,10.614-4.815c0,0-3.42,2.421-3.42,2.421c4.498-11.415,8.575-23.049,12.468-34.756
		c11.617-35.229,21.868-70.894,32.387-106.492C1095.433,35.603,1101.687,37.416,1101.687,37.416L1101.687,37.416z"/>
	<path d="M41.937,454.213c12.642-1.693,25.261-6.026,36.492-12.251c2.862-1.555,5.368,2.466,2.708,4.353
		c-11.481,7.725-24.141,13.345-37.744,16.424c-2.336,0.513-4.645-0.965-5.158-3.3C37.677,456.966,39.421,454.509,41.937,454.213
		L41.937,454.213z"/>
	<path d="M1329.652,47.547c12.404,15.771,22.321,32.75,32.554,49.834c10.006,17.033,19.653,34.243,28.786,51.813
		c0,0-7.546,3.805-7.546,3.805c-8.664-17.552-17.918-34.898-27.503-52.016c-9.62-16.863-19.318-34.219-30.949-49.655
		C1324.994,51.328,1329.652,47.547,1329.652,47.547L1329.652,47.547z"/>
	<g>
		<path d="M374.281,565.177c-78.575,0-142.5-63.925-142.5-142.5s63.925-142.5,142.5-142.5s142.5,63.925,142.5,142.5
			S452.856,565.177,374.281,565.177z M374.281,287.177c-74.715,0-135.5,60.785-135.5,135.5s60.785,135.5,135.5,135.5
			s135.5-60.785,135.5-135.5S448.996,287.177,374.281,287.177z"/>
		<path d="M374.281,540.177c-64.79,0-117.5-52.71-117.5-117.5s52.71-117.5,117.5-117.5s117.5,52.71,117.5,117.5
			S439.071,540.177,374.281,540.177z M374.281,312.177c-60.93,0-110.5,49.57-110.5,110.5s49.57,110.5,110.5,110.5
			s110.5-49.57,110.5-110.5S435.211,312.177,374.281,312.177z"/>
		<path d="M393.972,338.429c-11.414-2.653-23.571-2.95-34.92-0.909l-1.062-5.906c12.148-2.182,25.137-1.866,37.34,0.972
			L393.972,338.429z"/>
		<path d="M460.471,415.357c-0.986-11.811-4.318-23.075-9.903-33.48l5.286-2.838c5.976,11.134,9.541,23.185,10.597,35.818
			L460.471,415.357z"/>
		<path d="M410.208,507.941l-2.334-5.527c10.894-4.599,20.574-11.262,28.772-19.804l4.329,4.154
			C432.208,495.899,421.857,503.023,410.208,507.941z"/>
		<path d="M333.931,505.926c-11.37-5.52-21.332-13.173-29.609-22.747l4.539-3.924c7.741,8.954,17.058,16.111,27.69,21.272
			L333.931,505.926z"/>
		<path d="M288.594,410.849l-5.946-0.805c1.696-12.536,5.891-24.387,12.468-35.224l5.129,3.113
			C294.099,388.061,290.179,399.135,288.594,410.849z"/>
		<path d="M314.475,360.184l-4.148-4.334c7.559-7.235,16.196-13.087,25.673-17.395l2.482,5.463
			C329.622,347.945,321.545,353.417,314.475,360.184z"/>
		<path d="M290.951,462.855c-4.543-9.381-7.434-19.406-8.591-29.796l5.963-0.664c1.083,9.71,3.784,19.079,8.029,27.845
			L290.951,462.855z"/>
		<path d="M374.281,515.177c-6.237,0-12.471-0.626-18.529-1.86l1.198-5.879c9.491,1.934,19.585,2.244,28.984,0.956l0.814,5.945
			C382.69,514.895,378.495,515.177,374.281,515.177z"/>
		<path d="M454.76,468.308l-5.217-2.963c4.826-8.498,8.146-17.669,9.866-27.258l5.905,1.059
			C463.473,449.407,459.923,459.218,454.76,468.308z"/>
		<path d="M438.106,364.3c-6.589-7.212-14.283-13.212-22.867-17.832l2.844-5.283c9.18,4.94,17.407,11.356,24.453,19.068
			L438.106,364.3z"/>
		<path d="M374.281,456.177c-2.366,0-4.709-0.245-6.963-0.729l1.467-6.844c3.605,0.772,7.567,0.764,11.176-0.052l1.542,6.828
			C379.163,455.91,376.734,456.177,374.281,456.177z"/>
		<path d="M393.949,404.937c-2.481-2.78-5.612-5.042-9.056-6.541l2.794-6.418c4.364,1.899,8.335,4.77,11.484,8.299L393.949,404.937z
			"/>
		<path d="M354.473,405.084l-5.245-4.635c3.147-3.562,7.098-6.457,11.426-8.373l2.834,6.4
			C360.075,399.988,356.958,402.273,354.473,405.084z"/>
		<path d="M403.286,439.427l-6.051-3.52c1.905-3.275,3.057-6.857,3.421-10.646l6.968,0.672
			C407.162,430.733,405.703,435.273,403.286,439.427z"/>
		<path d="M345.409,439.639c-2.445-4.132-3.942-8.655-4.448-13.444l6.961-0.736c0.4,3.783,1.582,7.354,3.512,10.616L345.409,439.639
			z"/>
		<polygon points="333.871,415.947 333.871,415.937 339.871,415.937 		"/>
		<polygon points="408.691,415.947 408.691,415.937 414.691,415.937 		"/>
		<path d="M356.082,309.89c5.295,23.251,11.546,49.418,17.171,72.491c0.164,0.993,0.597,1.93,1.657,2.192
			c0.352,0.082,1.851,0.488,2.067,0.498c0.152-0.004,0.312-0.112,0.361-0.251c0,0,1.322-4.601,1.322-4.601l2.827-9.878
			c5.04-17.595,11.818-41.709,16.609-59.374c0,0,6.725,1.943,6.725,1.943s-5.976,19.664-5.976,19.664
			c-4.576,15.259-10.812,36.524-15.244,51.746c-0.117,0.359-0.426,1.49-0.54,1.849c-0.478,1.887-1.86,3.523-3.658,4.257
			c-1.15,0.617-3.378,0.564-4.358,0.199c-0.943-0.271-2.126-0.454-3-0.903c-2.379-1.08-4.031-3.407-4.495-5.946
			c0,0-0.617-2.493-0.617-2.493c-3.805-15.442-8.519-34.317-12.483-49.837c0,0-5.165-19.893-5.165-19.893
			S356.082,309.89,356.082,309.89L356.082,309.89z"/>
		<path d="M330.187,317.452c9.094,20.506,21.718,48.435,31.052,68.828c0,0,2.614,5.724,2.614,5.724l1.306,2.858
			c1.471,3.28,4.352,5.001,7.804,5.929c0.529,0.175,3.258,1.08,3.733,1.237c0.982,0.377,2.111-0.016,2.636-0.935
			c0,0,0.798-1.355,0.798-1.355c9.856-16.692,23.614-40.176,33.41-56.999c0,0,12.593-21.794,12.593-21.794s6.025,3.564,6.025,3.564
			s-13.036,21.532-13.036,21.532c-9.378,15.575-23.015,38.459-32.258,54.026c0,0-1.607,2.705-1.607,2.705
			c-2.193,4.477-6.421,6.512-11.18,4.627c-1.993-0.749-4.098-1.267-6.188-2.129c-3.568-1.512-6.516-4.397-8.141-7.913
			c0,0-1.321-2.86-1.321-2.86c-6.488-14.068-17.257-37.301-23.85-51.364c0,0-10.753-22.758-10.753-22.758
			S330.187,317.452,330.187,317.452L330.187,317.452z"/>
		<path d="M261.39,405.133c22.818,2.062,48.939,4.167,71.688,5.874c0,0,2.561,0.197,2.561,0.197
			c0.435,0.022,1.039,0.126,1.453-0.033c1.001-0.249,1.464-1.45,1.992-2.219c0.316-0.504,0.224-0.374,0.263-0.458
			c0.043-0.145-0.01-0.332-0.127-0.42c0,0-3.967-2.679-3.967-2.679c-18.435-12.448-41.21-27.692-59.857-39.885
			c0,0,3.926-5.795,3.926-5.795c19.051,13.373,42.152,29.188,61.358,42.249c0.305,0.222,1.285,0.866,1.592,1.085
			c3.068,1.82,3.825,6.275,1.761,9.002c-0.135,0.216-0.735,1.176-0.854,1.368c-1.635,2.684-4.898,4.084-7.975,3.644
			c-16.83-1.22-36.867-2.626-53.817-3.712c0,0-20.515-1.235-20.515-1.235L261.39,405.133L261.39,405.133z"/>
		<path d="M260.58,432.096c22.313-2.313,52.776-5.688,75.055-8.263c0,0,6.251-0.717,6.251-0.717l3.121-0.359
			c3.574-0.385,6.101-2.593,8.051-5.59c0.33-0.45,2.033-2.764,2.33-3.168c0.662-0.817,0.637-2.012-0.075-2.796
			c0,0-1.042-1.178-1.042-1.178c-12.83-14.531-30.913-34.874-43.885-49.389c0,0-16.836-18.711-16.836-18.711
			s5.251-4.629,5.251-4.629l16.45,19.052c11.915,13.732,29.465,33.773,41.413,47.374c0,0,2.076,2.364,2.076,2.364
			c3.58,3.469,4.209,8.119,0.946,12.063c-1.328,1.664-2.471,3.506-3.937,5.227c-2.54,2.927-6.195,4.838-10.041,5.297
			c0,0-3.128,0.372-3.128,0.372c-15.384,1.823-40.808,4.886-56.22,6.81c0,0-24.967,3.194-24.967,3.194
			S260.58,432.096,260.58,432.096L260.58,432.096z"/>
		<path d="M322.71,524.621c9.013-21.064,19.086-45.256,27.739-66.364c0,0,0.978-2.375,0.978-2.375
			c0.155-0.407,0.44-0.949,0.418-1.393c0.072-1.029-0.927-1.841-1.495-2.581c-0.381-0.456-0.286-0.328-0.355-0.392
			c-0.125-0.086-0.319-0.093-0.439-0.009c0,0-3.774,2.945-3.774,2.945c-17.535,13.686-39.071,30.636-56.43,44.602
			c0,0-4.298-5.525-4.298-5.525s16.393-12.396,16.393-12.396c12.671-9.655,30.215-23.193,42.749-32.903
			c0.306-0.222,1.221-0.955,1.524-1.179c1.496-1.246,3.576-1.757,5.462-1.294c1.292,0.177,3.065,1.529,3.643,2.401
			c0.604,0.773,1.453,1.617,1.897,2.494c1.29,2.272,1.259,5.126,0.141,7.453c0,0-0.966,2.38-0.966,2.38
			c-5.998,14.729-13.279,32.77-19.195,47.656c0,0-7.514,19.129-7.514,19.129S322.71,524.621,322.71,524.621L322.71,524.621z"/>
		<path d="M348.104,533.724c4.696-21.935,10.899-51.951,15.334-73.936c0,0,1.25-6.167,1.25-6.167s0.623-3.079,0.623-3.079
			c0.738-3.518-0.581-6.604-2.829-9.384c-0.326-0.453-2.001-2.788-2.293-3.195c-0.573-0.882-1.717-1.228-2.682-0.793
			c0,0-1.443,0.627-1.443,0.627c-17.785,7.711-42.719,18.623-60.533,26.476c0,0-22.998,10.23-22.998,10.23s-2.779-6.425-2.779-6.425
			l23.202-9.757c16.742-7.089,41.226-17.586,57.853-24.747c0,0,2.89-1.244,2.89-1.244c4.405-2.333,9.022-1.494,11.765,2.828
			c1.172,1.777,2.57,3.433,3.755,5.359c1.998,3.32,2.687,7.387,1.935,11.187c0,0-0.612,3.09-0.612,3.09
			c-3.02,15.195-7.963,40.321-10.896,55.573c0,0-4.678,24.732-4.678,24.732L348.104,533.724L348.104,533.724z"/>
		<path d="M455.299,503.226c-17.248-15.081-37.143-32.137-54.544-46.889c0,0-1.956-1.664-1.956-1.664
			c-0.339-0.273-0.767-0.712-1.195-0.828c-0.953-0.388-2.04,0.314-2.916,0.624c-0.551,0.222-0.401,0.171-0.482,0.216
			c-0.121,0.092-0.187,0.274-0.145,0.415c0,0,1.635,4.499,1.635,4.499c7.598,20.907,17.063,46.626,24.981,67.451
			c0,0-6.583,2.38-6.583,2.38s-6.723-19.421-6.723-19.421c-5.267-15.034-12.721-35.904-18.083-50.824
			c-0.117-0.359-0.531-1.456-0.651-1.813c-0.722-1.808-0.566-3.944,0.457-5.595c0.568-1.175,2.401-2.442,3.409-2.723
			c0.922-0.335,1.987-0.883,2.958-1.033c2.559-0.524,5.264,0.387,7.132,2.169c0,0,1.965,1.654,1.965,1.654
			c12.155,10.256,27.063,22.756,39.392,32.982c0,0,15.871,13.057,15.871,13.057L455.299,503.226L455.299,503.226z"/>
		<path d="M471.804,481.888c-19.411-11.244-46.04-26.419-65.578-37.431c0,0-5.479-3.094-5.479-3.094l-2.736-1.544
			c-3.118-1.789-6.46-1.488-9.799-0.209c-0.531,0.17-3.27,1.041-3.747,1.194c-1.016,0.272-1.699,1.253-1.583,2.306
			c0,0,0.151,1.566,0.151,1.566c1.838,19.297,4.511,46.384,6.474,65.751c0,0,2.622,25.033,2.622,25.033s-6.969,0.658-6.969,0.658
			l-2.11-25.082c-1.568-18.113-3.986-44.642-5.658-62.668c0,0-0.29-3.133-0.29-3.133c-0.858-4.911,1.367-9.043,6.325-10.315
			c2.052-0.565,4.06-1.384,6.257-1.915c3.776-0.875,7.856-0.273,11.237,1.616c0,0,2.75,1.537,2.75,1.537
			c13.518,7.567,35.887,20.033,49.486,27.536c0,0,22.076,12.092,22.076,12.092S471.804,481.888,471.804,481.888L471.804,481.888z"/>
		<path d="M475.924,370.515c-20.477,12.22-43.431,26.252-63.637,38.731c-0.893,0.463-1.651,1.164-1.573,2.253
			c0.031,0.361,0.108,1.911,0.165,2.12c0.05,0.143,0.203,0.263,0.35,0.266c0,0,4.784-0.165,4.784-0.165l10.269-0.364
			c18.291-0.643,43.32-1.649,61.6-2.552c0,0,0.23,6.996,0.23,6.996l-20.548,0.393c-15.926,0.364-38.077,1.004-53.924,1.492
			c-0.378,0-1.549,0.055-1.926,0.058c-3.578,0.313-6.764-2.802-6.716-6.247c0,0-0.09-1.281-0.09-1.281
			c-0.383-3.236,1.429-6.461,4.287-7.964c14.333-8.906,31.369-19.545,45.721-28.63c0,0,17.323-11.059,17.323-11.059
			S475.924,370.515,475.924,370.515L475.924,370.515z"/>
		<path d="M460.731,348.225c-16.692,14.986-39.353,35.623-55.864,50.802c0,0-4.636,4.255-4.636,4.255l-2.314,2.125
			c-2.665,2.413-3.411,5.684-3.227,9.255c-0.003,0.558-0.02,3.432-0.023,3.933c-0.055,1.051,0.667,2.003,1.704,2.218
			c0,0,1.536,0.34,1.536,0.34c18.921,4.215,45.507,10.043,64.534,14.161c0,0,24.618,5.242,24.618,5.242s-1.528,6.831-1.528,6.831
			s-24.506-5.744-24.506-5.744c-17.711-4.106-43.689-10.004-61.35-13.984c0,0-3.069-0.692-3.069-0.692
			c-4.935-0.702-8.178-4.094-7.856-9.203c0.096-2.126-0.062-4.288,0.112-6.543c0.335-3.861,2.168-7.556,5.01-10.188
			c0,0,2.312-2.14,2.312-2.14c11.374-10.518,30.142-27.939,41.48-38.555c0,0,18.322-17.259,18.322-17.259
			S460.731,348.225,460.731,348.225L460.731,348.225z"/>
	</g>
	<g>
		<path d="M1515.281,565.177c-78.575,0-142.5-63.925-142.5-142.5s63.925-142.5,142.5-142.5s142.5,63.925,142.5,142.5
			S1593.857,565.177,1515.281,565.177z M1515.281,287.177c-74.715,0-135.5,60.785-135.5,135.5s60.785,135.5,135.5,135.5
			s135.5-60.785,135.5-135.5S1589.996,287.177,1515.281,287.177z"/>
		<path d="M1515.281,540.177c-64.79,0-117.5-52.71-117.5-117.5s52.71-117.5,117.5-117.5s117.5,52.71,117.5,117.5
			S1580.072,540.177,1515.281,540.177z M1515.281,312.177c-60.93,0-110.5,49.57-110.5,110.5s49.57,110.5,110.5,110.5
			s110.5-49.57,110.5-110.5S1576.211,312.177,1515.281,312.177z"/>
		<path d="M1534.971,338.429c-11.413-2.653-23.569-2.95-34.92-0.909l-1.061-5.906c12.147-2.183,25.135-1.864,37.34,0.972
			L1534.971,338.429z"/>
		<path d="M1601.472,415.357c-0.987-11.812-4.319-23.076-9.904-33.48l5.287-2.838c5.976,11.132,9.541,23.184,10.596,35.818
			L1601.472,415.357z"/>
		<path d="M1551.208,507.941l-2.334-5.527c10.894-4.6,20.574-11.262,28.772-19.804l4.328,4.154
			C1573.209,495.898,1562.858,503.023,1551.208,507.941z"/>
		<path d="M1474.931,505.926c-11.37-5.521-21.332-13.173-29.609-22.747l4.539-3.924c7.741,8.954,17.058,16.111,27.691,21.272
			L1474.931,505.926z"/>
		<path d="M1429.594,410.849l-5.945-0.805c1.696-12.535,5.891-24.386,12.468-35.224l5.129,3.113
			C1435.1,388.062,1431.179,399.136,1429.594,410.849z"/>
		<path d="M1455.475,360.184l-4.148-4.334c7.56-7.235,16.198-13.088,25.674-17.395l2.482,5.463
			C1470.623,347.945,1462.546,353.417,1455.475,360.184z"/>
		<path d="M1431.95,462.855c-4.543-9.383-7.434-19.408-8.591-29.796l5.963-0.664c1.082,9.709,3.782,19.077,8.028,27.845
			L1431.95,462.855z"/>
		<path d="M1515.281,515.177c-6.237,0-12.472-0.626-18.529-1.86l1.197-5.879c9.491,1.934,19.584,2.244,28.984,0.956l0.814,5.945
			C1523.69,514.895,1519.495,515.177,1515.281,515.177z"/>
		<path d="M1595.759,468.308l-5.217-2.963c4.826-8.497,8.146-17.668,9.865-27.258l5.906,1.059
			C1604.473,449.408,1600.922,459.219,1595.759,468.308z"/>
		<path d="M1579.106,364.3c-6.589-7.212-14.282-13.212-22.866-17.832l2.844-5.283c9.181,4.941,17.407,11.356,24.452,19.068
			L1579.106,364.3z"/>
		<path d="M1515.281,456.177c-2.366,0-4.709-0.245-6.964-0.729l1.467-6.844c3.604,0.772,7.565,0.764,11.176-0.052l1.541,6.828
			C1520.163,455.91,1517.734,456.177,1515.281,456.177z"/>
		<path d="M1534.949,404.937c-2.48-2.78-5.611-5.042-9.056-6.541l2.795-6.418c4.364,1.9,8.335,4.77,11.483,8.299L1534.949,404.937z"
			/>
		<path d="M1495.473,405.085l-5.244-4.637c3.147-3.562,7.099-6.456,11.425-8.372l2.834,6.4
			C1501.076,399.988,1497.959,402.273,1495.473,405.085z"/>
		<path d="M1544.286,439.427l-6.051-3.52c1.905-3.276,3.057-6.858,3.422-10.646l6.967,0.672
			C1548.162,430.732,1546.703,435.272,1544.286,439.427z"/>
		<path d="M1486.409,439.639c-2.446-4.134-3.943-8.657-4.449-13.444l6.961-0.736c0.4,3.781,1.581,7.354,3.512,10.616
			L1486.409,439.639z"/>
		<polygon points="1474.871,415.947 1474.871,415.937 1480.871,415.937 		"/>
		<polygon points="1549.691,415.947 1549.691,415.937 1555.691,415.937 		"/>
		<path d="M1497.082,309.89c5.09,22.339,11.16,47.831,16.566,69.994c0,0,0.604,2.497,0.604,2.497
			c0.114,0.421,0.202,1.027,0.48,1.372c0.55,0.876,1.829,0.944,2.726,1.209c0.576,0.145,0.425,0.097,0.517,0.108
			c0.151-0.004,0.312-0.112,0.361-0.25c0,0,1.322-4.601,1.322-4.601c6.142-21.38,13.602-47.75,19.436-69.252
			c0,0,6.725,1.943,6.725,1.943l-5.976,19.664c-4.576,15.259-10.812,36.524-15.245,51.746c-0.117,0.359-0.426,1.49-0.54,1.849
			c-0.478,1.887-1.86,3.523-3.658,4.257c-1.15,0.617-3.378,0.564-4.358,0.199c-0.943-0.271-2.127-0.454-3-0.903
			c-2.379-1.08-4.031-3.407-4.495-5.946c0,0-0.617-2.493-0.617-2.493c-3.805-15.442-8.519-34.317-12.483-49.837
			c0,0-5.165-19.893-5.165-19.893S1497.082,309.89,1497.082,309.89L1497.082,309.89z"/>
		<path d="M1471.187,317.452c9.094,20.506,21.719,48.435,31.052,68.828c0,0,2.614,5.724,2.614,5.724s1.306,2.858,1.306,2.858
			c1.471,3.28,4.352,5.001,7.805,5.929c0.529,0.175,3.257,1.08,3.733,1.237c0.982,0.377,2.111-0.016,2.635-0.935
			c0,0,0.798-1.355,0.798-1.355c9.856-16.692,23.614-40.176,33.41-56.999c0,0,12.593-21.794,12.593-21.794s6.025,3.564,6.025,3.564
			l-13.036,21.532c-9.378,15.575-23.015,38.459-32.258,54.026c0,0-1.607,2.705-1.607,2.705c-2.193,4.477-6.421,6.512-11.18,4.627
			c-1.993-0.749-4.098-1.267-6.188-2.129c-3.569-1.512-6.516-4.397-8.141-7.913c0,0-1.321-2.86-1.321-2.86
			c-6.488-14.068-17.257-37.301-23.85-51.364c0,0-10.753-22.758-10.753-22.758L1471.187,317.452L1471.187,317.452z"/>
		<path d="M1402.39,405.133c23.749,2.15,50.568,4.29,74.249,6.07c0.995,0.151,2.021,0.029,2.597-0.898
			c0.187-0.31,1.036-1.61,1.112-1.812c0.044-0.145-0.01-0.332-0.127-0.42c0,0-3.967-2.679-3.967-2.679l-8.521-5.742
			c-15.176-10.231-36.016-24.129-51.335-34.143c0,0,3.926-5.795,3.926-5.795l16.855,11.76c13.098,9.067,31.395,21.569,44.503,30.489
			c0.305,0.222,1.285,0.866,1.592,1.085c3.068,1.82,3.825,6.275,1.761,9.002c-0.135,0.216-0.735,1.176-0.854,1.368
			c-1.635,2.684-4.898,4.084-7.975,3.644c-16.83-1.22-36.866-2.626-53.817-3.712c0,0-20.515-1.235-20.515-1.235L1402.39,405.133
			L1402.39,405.133z"/>
		<path d="M1401.58,432.096c22.313-2.313,52.776-5.688,75.055-8.263c0,0,6.251-0.717,6.251-0.717s3.121-0.359,3.121-0.359
			c3.574-0.385,6.101-2.593,8.05-5.59c0.33-0.45,2.033-2.764,2.33-3.168c0.662-0.818,0.637-2.012-0.075-2.796
			c0,0-1.042-1.178-1.042-1.178c-12.83-14.531-30.913-34.874-43.886-49.389c0,0-16.836-18.711-16.836-18.711
			s5.251-4.629,5.251-4.629s16.45,19.052,16.45,19.052c11.915,13.732,29.465,33.773,41.413,47.374c0,0,2.076,2.364,2.076,2.364
			c3.58,3.469,4.209,8.119,0.946,12.063c-1.328,1.664-2.471,3.506-3.937,5.227c-2.54,2.927-6.195,4.838-10.041,5.297
			c0,0-3.128,0.372-3.128,0.372c-15.384,1.823-40.808,4.886-56.22,6.81c0,0-24.967,3.194-24.967,3.194L1401.58,432.096
			L1401.58,432.096z"/>
		<path d="M1463.71,524.621c9.383-21.923,19.706-46.767,28.718-68.739c0.451-0.9,0.652-1.913-0.052-2.747
			c-0.237-0.274-1.211-1.483-1.38-1.618c-0.125-0.086-0.319-0.093-0.439-0.009c0,0-3.774,2.945-3.774,2.945l-8.094,6.33
			c-14.42,11.272-34.077,26.797-48.336,38.272c0,0-4.298-5.525-4.298-5.525l16.393-12.396c12.671-9.655,30.215-23.193,42.749-32.903
			c0.306-0.222,1.221-0.955,1.524-1.179c1.496-1.246,3.576-1.757,5.462-1.294c1.293,0.177,3.065,1.529,3.643,2.401
			c0.604,0.773,1.453,1.617,1.897,2.494c1.29,2.272,1.259,5.126,0.141,7.453c0,0-0.966,2.38-0.966,2.38
			c-5.998,14.729-13.279,32.77-19.195,47.656c0,0-7.514,19.129-7.514,19.129S1463.71,524.621,1463.71,524.621L1463.71,524.621z"/>
		<path d="M1489.104,533.724c4.696-21.935,10.899-51.951,15.334-73.936c0,0,1.25-6.167,1.25-6.167l0.623-3.079
			c0.738-3.518-0.581-6.604-2.829-9.384c-0.326-0.453-2.001-2.788-2.293-3.195c-0.573-0.882-1.717-1.228-2.682-0.793
			c0,0-1.443,0.627-1.443,0.627c-17.785,7.711-42.719,18.623-60.533,26.476c0,0-22.998,10.23-22.998,10.23s-2.779-6.425-2.779-6.425
			l23.202-9.757c16.742-7.089,41.225-17.586,57.853-24.747c0,0,2.89-1.244,2.89-1.244c4.405-2.333,9.022-1.494,11.765,2.828
			c1.172,1.777,2.57,3.433,3.755,5.359c1.999,3.32,2.687,7.387,1.935,11.187c0,0-0.613,3.09-0.613,3.09
			c-3.02,15.195-7.963,40.321-10.896,55.573c0,0-4.678,24.732-4.678,24.732S1489.104,533.724,1489.104,533.724L1489.104,533.724z"/>
		<path d="M1596.299,503.226c-17.248-15.081-37.143-32.137-54.544-46.889c0,0-1.957-1.664-1.957-1.664
			c-0.339-0.273-0.766-0.712-1.195-0.828c-0.953-0.388-2.04,0.314-2.916,0.624c-0.551,0.222-0.401,0.171-0.482,0.216
			c-0.121,0.092-0.187,0.274-0.145,0.415c0,0,1.635,4.499,1.635,4.499c7.598,20.907,17.063,46.626,24.981,67.451
			c0,0-6.583,2.38-6.583,2.38c-7.236-21.093-16.405-46.882-23.939-67.828c-0.27-0.77-1.035-2.875-1.301-3.627
			c-0.051-0.188-0.292-0.778-0.345-0.974c-0.869-2.502,0.061-5.447,2.198-7c1.17-0.844,1.954-0.963,2.987-1.429
			c0.56-0.227,1.171-0.447,1.767-0.552c2.559-0.524,5.264,0.387,7.132,2.169c0,0,1.965,1.654,1.965,1.654
			c12.155,10.256,27.063,22.756,39.392,32.982c0,0,15.871,13.057,15.871,13.057S1596.299,503.226,1596.299,503.226L1596.299,503.226
			z"/>
		<path d="M1612.804,481.888c-19.411-11.244-46.04-26.419-65.578-37.431c0,0-5.479-3.094-5.479-3.094s-2.736-1.544-2.736-1.544
			c-3.118-1.789-6.46-1.488-9.799-0.209c-0.531,0.17-3.27,1.041-3.747,1.194c-1.016,0.272-1.699,1.253-1.583,2.306
			c0,0,0.151,1.566,0.151,1.566c1.838,19.297,4.511,46.383,6.474,65.751c0,0,2.622,25.033,2.622,25.033l-6.969,0.658
			c0,0-2.11-25.082-2.11-25.082c-1.568-18.113-3.986-44.642-5.658-62.668c0,0-0.29-3.133-0.29-3.133
			c-0.858-4.911,1.367-9.043,6.325-10.315c2.052-0.565,4.059-1.384,6.257-1.915c3.776-0.875,7.856-0.273,11.237,1.616
			c0,0,2.75,1.537,2.75,1.537c13.518,7.567,35.886,20.033,49.486,27.536c0,0,22.076,12.092,22.076,12.092
			S1612.804,481.888,1612.804,481.888L1612.804,481.888z"/>
		<path d="M1616.924,370.515c-19.673,11.744-42.042,25.395-61.449,37.385c0,0-2.188,1.346-2.188,1.346
			c-0.365,0.238-0.914,0.509-1.157,0.881c-0.663,0.79-0.332,2.034-0.307,2.966c0.041,0.593,0.039,0.434,0.057,0.526
			c0.05,0.143,0.203,0.263,0.35,0.266c0,0,4.784-0.165,4.784-0.165c22.231-0.765,49.616-1.82,71.869-2.915
			c0,0,0.23,6.996,0.23,6.996c-23.273,0.379-51.257,1.163-74.473,1.885c-0.378,0-1.549,0.055-1.926,0.058
			c-3.578,0.313-6.764-2.802-6.716-6.247c0,0-0.09-1.281-0.09-1.281c-0.383-3.236,1.429-6.46,4.287-7.964
			c14.333-8.906,31.369-19.545,45.721-28.63c0,0,17.323-11.059,17.323-11.059S1616.924,370.515,1616.924,370.515L1616.924,370.515z"
			/>
		<path d="M1601.731,348.225c-16.692,14.986-39.353,35.623-55.864,50.802c0,0-4.636,4.255-4.636,4.255l-2.314,2.125
			c-2.665,2.413-3.411,5.684-3.227,9.255c-0.003,0.558-0.02,3.432-0.022,3.933c-0.055,1.051,0.667,2.003,1.704,2.218
			c0,0,1.536,0.34,1.536,0.34c18.921,4.215,45.507,10.043,64.534,14.161c0,0,24.618,5.242,24.618,5.242l-1.528,6.831l-24.506-5.744
			c-17.711-4.106-43.689-10.004-61.35-13.984c0,0-3.069-0.692-3.069-0.692c-4.935-0.702-8.178-4.094-7.856-9.203
			c0.097-2.126-0.062-4.288,0.112-6.543c0.335-3.861,2.168-7.556,5.01-10.188c0,0,2.312-2.14,2.312-2.14
			c11.374-10.518,30.142-27.939,41.48-38.555c0,0,18.322-17.259,18.322-17.259L1601.731,348.225L1601.731,348.225z"/>
	</g>
</g>
</svg>
